<svg xmlns="http://www.w3.org/2000/svg" xmlns:xlink="http://www.w3.org/1999/xlink" zoomAndPan="magnify" preserveAspectRatio="xMidYMid meet" version="1.0" viewBox="64.82 179.03 482.35 482.36"><defs><clipPath id="7daf03659f"><path d="M 64.824219 179.027344 L 547.175781 179.027344 L 547.175781 661.382812 L 64.824219 661.382812 Z M 64.824219 179.027344 " clip-rule="nonzero"/></clipPath><clipPath id="87985642cd"><path d="M 306 179.027344 C 172.800781 179.027344 64.824219 287.007812 64.824219 420.207031 C 64.824219 553.402344 172.800781 661.382812 306 661.382812 C 439.199219 661.382812 547.175781 553.402344 547.175781 420.207031 C 547.175781 287.007812 439.199219 179.027344 306 179.027344 Z M 306 179.027344 " clip-rule="nonzero"/></clipPath><clipPath id="3276c31b6a"><path d="M 0.824219 0.0273438 L 483.175781 0.0273438 L 483.175781 482.382812 L 0.824219 482.382812 Z M 0.824219 0.0273438 " clip-rule="nonzero"/></clipPath><clipPath id="118a11a4a1"><path d="M 242 0.0273438 C 108.800781 0.0273438 0.824219 108.007812 0.824219 241.207031 C 0.824219 374.402344 108.800781 482.382812 242 482.382812 C 375.199219 482.382812 483.175781 374.402344 483.175781 241.207031 C 483.175781 108.007812 375.199219 0.0273438 242 0.0273438 Z M 242 0.0273438 " clip-rule="nonzero"/></clipPath><clipPath id="7c25b472ec"><rect x="0" width="484" y="0" height="483"/></clipPath><clipPath id="f30b3f9637"><path d="M 145 289 L 469 289 L 469 562 L 145 562 Z M 145 289 " clip-rule="nonzero"/></clipPath><clipPath id="c5850025bb"><path d="M 386.9375 183.351562 L 555.9375 409.101562 L 225.117188 656.757812 L 56.117188 431.007812 Z M 386.9375 183.351562 " clip-rule="nonzero"/></clipPath><clipPath id="ce803a56fb"><path d="M 386.9375 183.351562 L 555.9375 409.101562 L 225.117188 656.757812 L 56.117188 431.007812 Z M 386.9375 183.351562 " clip-rule="nonzero"/></clipPath></defs><g clip-path="url(#7daf03659f)"><g clip-path="url(#87985642cd)"><g transform="matrix(1, 0, 0, 1, 64, 179)"><g clip-path="url(#7c25b472ec)"><g clip-path="url(#3276c31b6a)"><g clip-path="url(#118a11a4a1)"><path fill="#ef7557" d="M 0.824219 0.0273438 L 483.175781 0.0273438 L 483.175781 482.382812 L 0.824219 482.382812 Z M 0.824219 0.0273438 " fill-opacity="1" fill-rule="nonzero"/></g></g></g></g></g></g><g clip-path="url(#f30b3f9637)"><g clip-path="url(#c5850025bb)"><g clip-path="url(#ce803a56fb)"><path fill="#eef0e6" d="M 455.613281 331.105469 C 471.832031 314.140625 472.777344 298 457.808594 290.882812 C 450.3125 287.328125 441.753906 291.328125 412.613281 309.769531 C 327.035156 365.46875 286.429688 353.582031 227.246094 317.851562 C 218.59375 312.753906 213.273438 313.363281 202.75 321.238281 C 190.09375 330.714844 190.09375 332.644531 198.171875 360.835938 C 223.792969 451.324219 126.339844 525.152344 148.496094 554.746094 C 167.53125 580.171875 199.96875 529.738281 279.5625 521.730469 C 340.316406 515.496094 364.457031 552.691406 387.640625 535.335938 C 395.042969 529.796875 398.074219 524.152344 396.152344 518.359375 C 374.15625 455.789062 377.367188 413.121094 455.613281 331.105469 Z M 455.613281 331.105469 " fill-opacity="1" fill-rule="nonzero"/></g></g></g></svg>