<svg xmlns="http://www.w3.org/2000/svg" xmlns:xlink="http://www.w3.org/1999/xlink" zoomAndPan="magnify" preserveAspectRatio="xMidYMid meet" version="1.0" viewBox="59.44 269.45 447.13 127.67"><defs><g/><clipPath id="ba6f523456"><rect x="0" width="405" y="0" height="238"/></clipPath><clipPath id="fe8dca65a6"><rect x="0" width="74" y="0" height="173"/></clipPath><clipPath id="eae2acb882"><rect x="0" width="74" y="0" height="173"/></clipPath><clipPath id="2964cb3ebe"><rect x="0" width="71" y="0" height="156"/></clipPath><clipPath id="8265f51e87"><path d="M 351 87 L 377 87 L 377 109 L 351 109 Z M 351 87 " clip-rule="nonzero"/></clipPath><clipPath id="11347657c0"><path d="M 370.417969 78.691406 L 383.671875 96.394531 L 357.636719 115.886719 L 344.382812 98.179688 Z M 370.417969 78.691406 " clip-rule="nonzero"/></clipPath><clipPath id="edc286e663"><path d="M 370.417969 78.691406 L 383.671875 96.394531 L 357.636719 115.886719 L 344.382812 98.179688 Z M 370.417969 78.691406 " clip-rule="nonzero"/></clipPath><clipPath id="2565e7266c"><rect x="0" width="491" y="0" height="284"/></clipPath></defs><g transform="matrix(1, 0, 0, 1, 40, 202)"><g clip-path="url(#2565e7266c)"><g transform="matrix(1, 0, 0, 1, 74, 24)"><g clip-path="url(#ba6f523456)"><g fill="#ee6c4d" fill-opacity="1"><g transform="translate(8.721621, 166.228852)"><g><path d="M 63.515625 -74.203125 C 63.628906 -72.003906 63.820312 -69.804688 64.09375 -67.609375 C 64.363281 -65.421875 64.550781 -63.28125 64.65625 -61.1875 C 64.894531 -56.78125 64.515625 -51.984375 63.515625 -46.796875 C 62.523438 -41.609375 61.273438 -36.425781 59.765625 -31.25 C 58.253906 -26.070312 56.835938 -21.144531 55.515625 -16.46875 C 55.097656 -14.4375 54.179688 -12.363281 52.765625 -10.25 C 51.347656 -8.132812 49.757812 -6.316406 48 -4.796875 C 46.25 -3.285156 44.640625 -2.492188 43.171875 -2.421875 C 41.390625 -2.328125 39.78125 -3.03125 38.34375 -4.53125 C 36.90625 -6.03125 35.675781 -7.984375 34.65625 -10.390625 C 33.632812 -12.804688 32.816406 -15.3125 32.203125 -17.90625 C 31.597656 -20.5 31.238281 -22.796875 31.125 -24.796875 C 31.050781 -26.253906 31.050781 -27.769531 31.125 -29.34375 C 31.207031 -30.914062 31.257812 -32.546875 31.28125 -34.234375 C 31.238281 -34.972656 31.09375 -35.703125 30.84375 -36.421875 C 30.59375 -37.148438 30.34375 -37.875 30.09375 -38.59375 C 29.382812 -38.132812 28.59375 -37.75 27.71875 -37.4375 C 26.84375 -37.132812 26.21875 -36.601562 25.84375 -35.84375 C 24.488281 -33.664062 23.070312 -31.144531 21.59375 -28.28125 C 20.113281 -25.425781 18.578125 -22.644531 16.984375 -19.9375 C 15.390625 -17.238281 13.800781 -14.976562 12.21875 -13.15625 C 10.632812 -11.34375 9.003906 -10.390625 7.328125 -10.296875 C 7.222656 -10.296875 7.140625 -10.316406 7.078125 -10.359375 C 7.023438 -10.410156 7 -10.4375 7 -10.4375 C 5.0625 -11.5 3.8125 -12.828125 3.25 -14.421875 C 2.695312 -16.023438 2.378906 -17.660156 2.296875 -19.328125 C 1.960938 -23.628906 1.867188 -27.929688 2.015625 -32.234375 C 2.160156 -36.546875 2.117188 -40.847656 1.890625 -45.140625 C 1.671875 -49.421875 2.035156 -52.453125 2.984375 -54.234375 C 3.929688 -56.023438 5.816406 -57.101562 8.640625 -57.46875 C 10.734375 -57.582031 12.175781 -57.023438 12.96875 -55.796875 C 13.769531 -54.578125 14.21875 -53.082031 14.3125 -51.3125 C 14.394531 -49.738281 14.347656 -48.128906 14.171875 -46.484375 C 14.003906 -44.847656 13.960938 -43.242188 14.046875 -41.671875 C 14.078125 -41.046875 14.257812 -40.453125 14.59375 -39.890625 C 14.9375 -39.335938 15.175781 -38.800781 15.3125 -38.28125 C 15.8125 -38.53125 16.347656 -38.71875 16.921875 -38.84375 C 17.492188 -38.976562 17.929688 -39.210938 18.234375 -39.546875 C 20.023438 -41.628906 21.914062 -44.113281 23.90625 -47 C 25.90625 -49.894531 27.921875 -52.46875 29.953125 -54.71875 C 31.992188 -56.976562 33.851562 -58.148438 35.53125 -58.234375 C 37.40625 -58.335938 38.738281 -57.832031 39.53125 -56.71875 C 40.332031 -55.601562 40.757812 -54.519531 40.8125 -53.46875 C 40.863281 -52.4375 40.785156 -51.359375 40.578125 -50.234375 C 40.378906 -49.117188 40.203125 -48.085938 40.046875 -47.140625 C 39.472656 -43.859375 39.007812 -40.523438 38.65625 -37.140625 C 38.3125 -33.753906 38.226562 -30.390625 38.40625 -27.046875 C 38.539062 -24.429688 38.851562 -22.007812 39.34375 -19.78125 C 39.832031 -17.550781 41.046875 -14.960938 42.984375 -12.015625 C 43.796875 -12.785156 44.734375 -13.539062 45.796875 -14.28125 C 46.859375 -15.019531 47.523438 -15.820312 47.796875 -16.6875 C 50.335938 -26.15625 52.742188 -35.722656 55.015625 -45.390625 C 57.296875 -55.066406 59.648438 -64.695312 62.078125 -74.28125 C 62.285156 -74.289062 62.523438 -74.273438 62.796875 -74.234375 C 63.066406 -74.203125 63.304688 -74.191406 63.515625 -74.203125 Z M 63.515625 -74.203125 "/></g></g></g><g fill="#ee6c4d" fill-opacity="1"><g transform="translate(81.752474, 162.395979)"><g><path d="M 2.28125 -16.515625 C 2.175781 -20.585938 2.484375 -25.21875 3.203125 -30.40625 C 3.929688 -35.59375 5.113281 -40.613281 6.75 -45.46875 C 8.382812 -50.332031 10.5625 -54.382812 13.28125 -57.625 C 16 -60.863281 19.296875 -62.585938 23.171875 -62.796875 C 25.785156 -62.929688 28.078125 -62.257812 30.046875 -60.78125 C 32.015625 -59.3125 33.070312 -57.164062 33.21875 -54.34375 C 33.3125 -52.570312 32.914062 -50.554688 32.03125 -48.296875 C 31.15625 -46.046875 30.117188 -43.8125 28.921875 -41.59375 C 27.722656 -39.382812 26.644531 -37.410156 25.6875 -35.671875 C 24.539062 -33.617188 23.085938 -31.8125 21.328125 -30.25 C 19.566406 -28.6875 18 -27.054688 16.625 -25.359375 C 15.25 -23.660156 14.632812 -21.445312 14.78125 -18.71875 C 14.851562 -17.269531 15.066406 -15.679688 15.421875 -13.953125 C 15.773438 -12.234375 17.253906 -11.445312 19.859375 -11.59375 C 21.429688 -11.664062 22.9375 -12.03125 24.375 -12.6875 C 25.8125 -13.34375 27.3125 -13.710938 28.875 -13.796875 C 30.65625 -13.890625 31.585938 -13.148438 31.671875 -11.578125 C 31.773438 -9.484375 30.984375 -7.5 29.296875 -5.625 C 27.617188 -3.757812 25.570312 -2.257812 23.15625 -1.125 C 20.75 0 18.554688 0.613281 16.578125 0.71875 C 12.585938 0.925781 9.625 0.0820312 7.6875 -1.8125 C 5.757812 -3.71875 4.457031 -6.039062 3.78125 -8.78125 C 3.113281 -11.53125 2.613281 -14.109375 2.28125 -16.515625 Z M 27.40625 -50.578125 C 26.851562 -51.285156 26.320312 -52.039062 25.8125 -52.84375 C 25.300781 -53.65625 24.78125 -54.050781 24.25 -54.03125 C 23.09375 -53.96875 22.109375 -53.128906 21.296875 -51.515625 C 20.492188 -49.898438 19.832031 -48.078125 19.3125 -46.046875 C 18.789062 -44.023438 18.347656 -42.375 17.984375 -41.09375 C 17.992188 -40.988281 17.972656 -40.9375 17.921875 -40.9375 C 17.867188 -40.9375 17.847656 -40.878906 17.859375 -40.765625 C 17.867188 -40.460938 18.097656 -40.0625 18.546875 -39.5625 C 18.992188 -39.0625 19.425781 -38.820312 19.84375 -38.84375 C 20.6875 -38.894531 21.546875 -39.617188 22.421875 -41.015625 C 23.296875 -42.421875 24.175781 -44.066406 25.0625 -45.953125 C 25.957031 -47.847656 26.738281 -49.390625 27.40625 -50.578125 Z M 27.40625 -50.578125 "/></g></g></g><g fill="#ee6c4d" fill-opacity="1"><g transform="translate(123.058104, 160.228139)"><g><path d="M 2.28125 -16.515625 C 2.175781 -20.585938 2.484375 -25.21875 3.203125 -30.40625 C 3.929688 -35.59375 5.113281 -40.613281 6.75 -45.46875 C 8.382812 -50.332031 10.5625 -54.382812 13.28125 -57.625 C 16 -60.863281 19.296875 -62.585938 23.171875 -62.796875 C 25.785156 -62.929688 28.078125 -62.257812 30.046875 -60.78125 C 32.015625 -59.3125 33.070312 -57.164062 33.21875 -54.34375 C 33.3125 -52.570312 32.914062 -50.554688 32.03125 -48.296875 C 31.15625 -46.046875 30.117188 -43.8125 28.921875 -41.59375 C 27.722656 -39.382812 26.644531 -37.410156 25.6875 -35.671875 C 24.539062 -33.617188 23.085938 -31.8125 21.328125 -30.25 C 19.566406 -28.6875 18 -27.054688 16.625 -25.359375 C 15.25 -23.660156 14.632812 -21.445312 14.78125 -18.71875 C 14.851562 -17.269531 15.066406 -15.679688 15.421875 -13.953125 C 15.773438 -12.234375 17.253906 -11.445312 19.859375 -11.59375 C 21.429688 -11.664062 22.9375 -12.03125 24.375 -12.6875 C 25.8125 -13.34375 27.3125 -13.710938 28.875 -13.796875 C 30.65625 -13.890625 31.585938 -13.148438 31.671875 -11.578125 C 31.773438 -9.484375 30.984375 -7.5 29.296875 -5.625 C 27.617188 -3.757812 25.570312 -2.257812 23.15625 -1.125 C 20.75 0 18.554688 0.613281 16.578125 0.71875 C 12.585938 0.925781 9.625 0.0820312 7.6875 -1.8125 C 5.757812 -3.71875 4.457031 -6.039062 3.78125 -8.78125 C 3.113281 -11.53125 2.613281 -14.109375 2.28125 -16.515625 Z M 27.40625 -50.578125 C 26.851562 -51.285156 26.320312 -52.039062 25.8125 -52.84375 C 25.300781 -53.65625 24.78125 -54.050781 24.25 -54.03125 C 23.09375 -53.96875 22.109375 -53.128906 21.296875 -51.515625 C 20.492188 -49.898438 19.832031 -48.078125 19.3125 -46.046875 C 18.789062 -44.023438 18.347656 -42.375 17.984375 -41.09375 C 17.992188 -40.988281 17.972656 -40.9375 17.921875 -40.9375 C 17.867188 -40.9375 17.847656 -40.878906 17.859375 -40.765625 C 17.867188 -40.460938 18.097656 -40.0625 18.546875 -39.5625 C 18.992188 -39.0625 19.425781 -38.820312 19.84375 -38.84375 C 20.6875 -38.894531 21.546875 -39.617188 22.421875 -41.015625 C 23.296875 -42.421875 24.175781 -44.066406 25.0625 -45.953125 C 25.957031 -47.847656 26.738281 -49.390625 27.40625 -50.578125 Z M 27.40625 -50.578125 "/></g></g></g><g fill="#ee6c4d" fill-opacity="1"><g transform="translate(164.371388, 158.059897)"><g/></g></g><g fill="#ee6c4d" fill-opacity="1"><g transform="translate(191.69908, 156.625659)"><g/></g></g><g fill="#ee6c4d" fill-opacity="1"><g transform="translate(219.026773, 155.191422)"><g/></g></g><g fill="#ee6c4d" fill-opacity="1"><g transform="translate(246.354465, 153.757185)"><g/></g></g><g fill="#ee6c4d" fill-opacity="1"><g transform="translate(273.69446, 152.322302)"><g><path d="M -0.46875 -8.796875 C 0.1875 -12.503906 0.734375 -16.179688 1.171875 -19.828125 C 1.609375 -23.472656 2.097656 -27.195312 2.640625 -31 C 2.847656 -33.007812 2.957031 -35.347656 2.96875 -38.015625 C 2.988281 -40.691406 3.160156 -43.351562 3.484375 -46 C 3.816406 -48.65625 4.59375 -50.878906 5.8125 -52.671875 C 7.03125 -54.460938 8.953125 -55.429688 11.578125 -55.578125 C 13.347656 -55.660156 14.867188 -55.101562 16.140625 -53.90625 C 17.421875 -52.71875 18.109375 -51.238281 18.203125 -49.46875 L 18.234375 -48.6875 C 17.023438 -41.6875 15.765625 -34.660156 14.453125 -27.609375 C 13.148438 -20.566406 11.78125 -13.59375 10.34375 -6.6875 C 10.007812 -5.207031 9.179688 -3.957031 7.859375 -2.9375 C 6.546875 -1.914062 5.335938 -1.113281 4.234375 -0.53125 C 3.441406 -1.550781 2.566406 -2.660156 1.609375 -3.859375 C 0.648438 -5.066406 0.140625 -6.25 0.078125 -7.40625 L 0.015625 -8.515625 C 0.015625 -8.515625 -0.0078125 -8.5625 -0.0625 -8.65625 C -0.125 -8.757812 -0.257812 -8.804688 -0.46875 -8.796875 Z M 10.59375 -77.25 C 10.550781 -80.082031 11.070312 -82.128906 12.15625 -83.390625 C 13.25 -84.648438 14.789062 -85.332031 16.78125 -85.4375 C 18.25 -85.519531 19.492188 -85.273438 20.515625 -84.703125 C 21.546875 -84.128906 22.09375 -83.265625 22.15625 -82.109375 C 22.144531 -82.328125 21.859375 -81.707031 21.296875 -80.25 C 20.742188 -78.800781 20.007812 -77.316406 19.09375 -75.796875 C 18.175781 -74.285156 17.035156 -73.492188 15.671875 -73.421875 C 15.253906 -73.398438 14.4375 -73.929688 13.21875 -75.015625 C 12.007812 -76.109375 11.132812 -76.851562 10.59375 -77.25 Z M 10.59375 -77.25 "/></g></g></g><g fill="#ee6c4d" fill-opacity="1"><g transform="translate(302.278588, 150.822123)"><g><path d="M 2.203125 -24.0625 L 2.078125 -26.265625 C 1.898438 -29.816406 2.046875 -33.570312 2.515625 -37.53125 C 2.992188 -41.488281 3.796875 -45.226562 4.921875 -48.75 C 6.046875 -52.28125 7.519531 -55.195312 9.34375 -57.5 C 11.164062 -59.800781 13.332031 -61.019531 15.84375 -61.15625 C 17.519531 -61.238281 19.101562 -60.554688 20.59375 -59.109375 C 22.09375 -57.671875 23.570312 -56.144531 25.03125 -54.53125 C 25.507812 -55.082031 25.96875 -55.660156 26.40625 -56.265625 C 26.84375 -56.867188 27.15625 -57.488281 27.34375 -58.125 C 29.394531 -65.0625 31.5 -71.890625 33.65625 -78.609375 C 35.820312 -85.335938 38.300781 -93.238281 41.09375 -102.3125 C 42 -104.988281 43.648438 -106.390625 46.046875 -106.515625 C 48.253906 -106.628906 49.769531 -106.3125 50.59375 -105.5625 C 51.425781 -104.820312 51.875 -103.925781 51.9375 -102.875 C 51.957031 -102.351562 51.929688 -101.773438 51.859375 -101.140625 C 51.796875 -100.503906 51.71875 -99.921875 51.625 -99.390625 C 50.914062 -95.054688 50.347656 -91.382812 49.921875 -88.375 C 49.503906 -85.363281 49.082031 -82.347656 48.65625 -79.328125 C 48.238281 -76.316406 47.628906 -72.632812 46.828125 -68.28125 C 45.785156 -62.03125 44.503906 -55.820312 42.984375 -49.65625 C 41.472656 -43.488281 40.09375 -37.273438 38.84375 -31.015625 C 38.175781 -27.722656 37.5625 -23.9375 37 -19.65625 C 36.4375 -15.375 35.734375 -11.269531 34.890625 -7.34375 C 34.046875 -3.414062 32.929688 -0.132812 31.546875 2.5 C 30.160156 5.144531 28.320312 6.53125 26.03125 6.65625 C 23.195312 6.800781 21.644531 4.257812 21.375 -0.96875 C 21.28125 -2.644531 21.289062 -4.320312 21.40625 -6 C 21.53125 -7.6875 21.601562 -9.367188 21.625 -11.046875 C 21.570312 -11.992188 21.472656 -12.882812 21.328125 -13.71875 C 21.179688 -14.550781 20.976562 -15.429688 20.71875 -16.359375 C 20 -15.910156 19.175781 -15.53125 18.25 -15.21875 C 17.320312 -14.90625 16.515625 -14.410156 15.828125 -13.734375 C 15.023438 -12.859375 14.144531 -12.023438 13.1875 -11.234375 C 12.226562 -10.453125 11.171875 -10.03125 10.015625 -9.96875 C 8.546875 -9.894531 7.226562 -10.507812 6.0625 -11.8125 C 4.90625 -13.125 3.960938 -14.625 3.234375 -16.3125 C 2.515625 -18.007812 2.128906 -19.378906 2.078125 -20.421875 C 2.035156 -21.265625 2.050781 -21.976562 2.125 -22.5625 C 2.195312 -23.144531 2.222656 -23.644531 2.203125 -24.0625 Z M 7.5625 -24.03125 C 8.132812 -23 8.601562 -21.96875 8.96875 -20.9375 C 9.34375 -19.90625 9.75 -19.296875 10.1875 -19.109375 C 10.8125 -19.148438 11.53125 -19.398438 12.34375 -19.859375 C 13.164062 -20.316406 13.875 -20.769531 14.46875 -21.21875 C 14.882812 -21.457031 15.5625 -22.625 16.5 -24.71875 C 17.4375 -26.820312 18.40625 -29.257812 19.40625 -32.03125 C 20.414062 -34.8125 21.28125 -37.375 22 -39.71875 C 22.71875 -42.070312 23.054688 -43.671875 23.015625 -44.515625 C 22.960938 -45.566406 22.40625 -46.664062 21.34375 -47.8125 C 20.289062 -48.96875 19.140625 -49.929688 17.890625 -50.703125 C 16.640625 -51.472656 15.644531 -51.835938 14.90625 -51.796875 C 14.1875 -51.753906 13.460938 -50.691406 12.734375 -48.609375 C 12.003906 -46.535156 11.320312 -43.957031 10.6875 -40.875 C 10.0625 -37.800781 9.488281 -34.726562 8.96875 -31.65625 C 8.445312 -28.582031 7.976562 -26.039062 7.5625 -24.03125 Z M 7.5625 -24.03125 "/></g></g></g><g fill="#ee6c4d" fill-opacity="1"><g transform="translate(358.504499, 147.871223)"><g><path d="M 2.28125 -16.515625 C 2.175781 -20.585938 2.484375 -25.21875 3.203125 -30.40625 C 3.929688 -35.59375 5.113281 -40.613281 6.75 -45.46875 C 8.382812 -50.332031 10.5625 -54.382812 13.28125 -57.625 C 16 -60.863281 19.296875 -62.585938 23.171875 -62.796875 C 25.785156 -62.929688 28.078125 -62.257812 30.046875 -60.78125 C 32.015625 -59.3125 33.070312 -57.164062 33.21875 -54.34375 C 33.3125 -52.570312 32.914062 -50.554688 32.03125 -48.296875 C 31.15625 -46.046875 30.117188 -43.8125 28.921875 -41.59375 C 27.722656 -39.382812 26.644531 -37.410156 25.6875 -35.671875 C 24.539062 -33.617188 23.085938 -31.8125 21.328125 -30.25 C 19.566406 -28.6875 18 -27.054688 16.625 -25.359375 C 15.25 -23.660156 14.632812 -21.445312 14.78125 -18.71875 C 14.851562 -17.269531 15.066406 -15.679688 15.421875 -13.953125 C 15.773438 -12.234375 17.253906 -11.445312 19.859375 -11.59375 C 21.429688 -11.664062 22.9375 -12.03125 24.375 -12.6875 C 25.8125 -13.34375 27.3125 -13.710938 28.875 -13.796875 C 30.65625 -13.890625 31.585938 -13.148438 31.671875 -11.578125 C 31.773438 -9.484375 30.984375 -7.5 29.296875 -5.625 C 27.617188 -3.757812 25.570312 -2.257812 23.15625 -1.125 C 20.75 0 18.554688 0.613281 16.578125 0.71875 C 12.585938 0.925781 9.625 0.0820312 7.6875 -1.8125 C 5.757812 -3.71875 4.457031 -6.039062 3.78125 -8.78125 C 3.113281 -11.53125 2.613281 -14.109375 2.28125 -16.515625 Z M 27.40625 -50.578125 C 26.851562 -51.285156 26.320312 -52.039062 25.8125 -52.84375 C 25.300781 -53.65625 24.78125 -54.050781 24.25 -54.03125 C 23.09375 -53.96875 22.109375 -53.128906 21.296875 -51.515625 C 20.492188 -49.898438 19.832031 -48.078125 19.3125 -46.046875 C 18.789062 -44.023438 18.347656 -42.375 17.984375 -41.09375 C 17.992188 -40.988281 17.972656 -40.9375 17.921875 -40.9375 C 17.867188 -40.9375 17.847656 -40.878906 17.859375 -40.765625 C 17.867188 -40.460938 18.097656 -40.0625 18.546875 -39.5625 C 18.992188 -39.0625 19.425781 -38.820312 19.84375 -38.84375 C 20.6875 -38.894531 21.546875 -39.617188 22.421875 -41.015625 C 23.296875 -42.421875 24.175781 -44.066406 25.0625 -45.953125 C 25.957031 -47.847656 26.738281 -49.390625 27.40625 -50.578125 Z M 27.40625 -50.578125 "/></g></g></g><g fill="#ee6c4d" fill-opacity="1"><g transform="translate(8.721621, 166.228852)"><g><path d="M 64.34375 -74.246094 C 64.460938 -72.066406 64.652344 -69.894531 64.921875 -67.722656 C 65.195312 -65.511719 65.390625 -63.351562 65.5 -61.234375 C 65.734375 -56.769531 65.351562 -51.90625 64.351562 -46.644531 C 63.359375 -41.421875 62.101562 -36.210938 60.582031 -31.015625 C 59.070312 -25.84375 57.648438 -20.917969 56.320312 -16.230469 L 55.515625 -16.457031 L 56.335938 -16.289062 C 55.894531 -14.164062 54.9375 -12 53.46875 -9.789062 C 52.015625 -7.601562 50.378906 -5.730469 48.5625 -4.167969 C 46.660156 -2.535156 44.882812 -1.675781 43.226562 -1.589844 C 41.191406 -1.484375 39.363281 -2.269531 37.746094 -3.953125 C 36.230469 -5.527344 34.941406 -7.566406 33.882812 -10.078125 C 32.84375 -12.535156 32.015625 -15.082031 31.398438 -17.722656 C 30.777344 -20.363281 30.414062 -22.703125 30.308594 -24.742188 C 30.230469 -26.234375 30.226562 -27.785156 30.304688 -29.390625 C 30.378906 -30.960938 30.421875 -32.578125 30.441406 -34.25 L 31.277344 -34.242188 L 30.441406 -34.199219 C 30.40625 -34.851562 30.277344 -35.503906 30.054688 -36.152344 L 29.3125 -38.320312 L 30.101562 -38.589844 L 30.554688 -37.886719 C 29.789062 -37.394531 28.9375 -36.984375 28 -36.652344 C 27.335938 -36.417969 26.863281 -36.023438 26.582031 -35.46875 L 26.566406 -35.4375 L 26.546875 -35.402344 C 25.203125 -33.25 23.796875 -30.757812 22.328125 -27.917969 C 20.84375 -25.042969 19.304688 -22.246094 17.707031 -19.523438 C 16.089844 -16.769531 14.472656 -14.46875 12.851562 -12.613281 C 11.113281 -10.621094 9.289062 -9.574219 7.378906 -9.472656 C 7.042969 -9.453125 6.761719 -9.546875 6.535156 -9.75 L 6.453125 -9.828125 L 7.011719 -10.445312 L 6.613281 -9.710938 C 4.476562 -10.867188 3.097656 -12.347656 2.46875 -14.148438 C 1.886719 -15.820312 1.550781 -17.535156 1.457031 -19.289062 L 2.292969 -19.332031 L 1.460938 -19.269531 C 1.128906 -23.585938 1.03125 -27.917969 1.175781 -32.261719 C 1.316406 -36.550781 1.273438 -40.828125 1.046875 -45.097656 C 0.816406 -49.546875 1.214844 -52.730469 2.242188 -54.648438 C 3.335938 -56.683594 5.433594 -57.898438 8.53125 -58.292969 L 8.5625 -58.296875 L 8.59375 -58.296875 C 11.007812 -58.425781 12.703125 -57.746094 13.675781 -56.261719 C 14.558594 -54.917969 15.050781 -53.28125 15.152344 -51.347656 C 15.234375 -49.734375 15.1875 -48.085938 15.003906 -46.40625 C 14.832031 -44.8125 14.789062 -43.253906 14.867188 -41.726562 C 14.894531 -41.242188 15.042969 -40.777344 15.3125 -40.339844 C 15.699219 -39.707031 15.972656 -39.09375 16.125 -38.492188 L 15.3125 -38.285156 L 14.964844 -39.042969 C 15.527344 -39.304688 16.121094 -39.507812 16.746094 -39.65625 C 17.148438 -39.75 17.4375 -39.898438 17.621094 -40.101562 L 18.242188 -39.542969 L 17.605469 -40.085938 C 19.367188 -42.152344 21.242188 -44.617188 23.226562 -47.480469 C 25.246094 -50.398438 27.285156 -53 29.34375 -55.285156 C 31.53125 -57.714844 33.578125 -58.980469 35.484375 -59.078125 C 37.675781 -59.195312 39.253906 -58.570312 40.226562 -57.207031 C 41.113281 -55.964844 41.589844 -54.738281 41.652344 -53.527344 C 41.710938 -52.414062 41.632812 -51.269531 41.414062 -50.09375 C 41.210938 -48.984375 41.03125 -47.953125 40.871094 -47.003906 C 40.3125 -43.738281 39.859375 -40.425781 39.511719 -37.066406 C 39.171875 -33.730469 39.085938 -30.410156 39.257812 -27.101562 C 39.394531 -24.527344 39.699219 -22.148438 40.175781 -19.960938 C 40.636719 -17.828125 41.808594 -15.335938 43.691406 -12.480469 L 42.992188 -12.019531 L 42.410156 -12.621094 C 43.242188 -13.429688 44.210938 -14.214844 45.3125 -14.980469 C 46.21875 -15.609375 46.777344 -16.261719 46.992188 -16.933594 L 47.789062 -16.683594 L 46.980469 -16.898438 C 49.527344 -26.367188 51.933594 -35.9375 54.207031 -45.601562 C 56.484375 -55.28125 58.839844 -64.910156 61.28125 -74.492188 L 61.429688 -75.089844 L 62.046875 -75.121094 C 62.308594 -75.132812 62.601562 -75.117188 62.921875 -75.070312 C 63.128906 -75.039062 63.3125 -75.03125 63.46875 -75.039062 L 64.300781 -75.082031 Z M 62.675781 -74.160156 L 63.511719 -74.203125 L 63.554688 -73.367188 C 63.289062 -73.355469 63 -73.371094 62.679688 -73.417969 C 62.46875 -73.449219 62.289062 -73.460938 62.132812 -73.453125 L 62.089844 -74.285156 L 62.898438 -74.078125 C 60.460938 -64.507812 58.109375 -54.886719 55.835938 -45.21875 C 53.558594 -35.535156 51.144531 -25.953125 48.59375 -16.464844 L 48.589844 -16.449219 L 48.585938 -16.429688 C 48.257812 -15.394531 47.484375 -14.453125 46.265625 -13.605469 C 45.238281 -12.894531 44.34375 -12.167969 43.574219 -11.421875 L 42.851562 -10.71875 L 42.296875 -11.5625 C 40.300781 -14.589844 39.046875 -17.273438 38.542969 -19.605469 C 38.046875 -21.882812 37.730469 -24.351562 37.589844 -27.011719 C 37.414062 -30.40625 37.5 -33.816406 37.851562 -37.234375 C 38.199219 -40.632812 38.660156 -43.980469 39.222656 -47.28125 C 39.382812 -48.238281 39.566406 -49.277344 39.773438 -50.394531 C 39.964844 -51.441406 40.035156 -52.457031 39.984375 -53.441406 C 39.9375 -54.324219 39.5625 -55.257812 38.863281 -56.238281 C 38.25 -57.101562 37.152344 -57.492188 35.570312 -57.410156 C 34.125 -57.335938 32.464844 -56.253906 30.585938 -54.167969 C 28.574219 -51.933594 26.578125 -49.386719 24.597656 -46.53125 C 22.582031 -43.621094 20.675781 -41.109375 18.875 -39 L 18.871094 -38.992188 L 18.863281 -38.984375 C 18.449219 -38.523438 17.871094 -38.207031 17.132812 -38.03125 C 16.617188 -37.910156 16.125 -37.742188 15.664062 -37.527344 L 14.753906 -37.105469 L 14.503906 -38.078125 C 14.394531 -38.515625 14.1875 -38.976562 13.886719 -39.464844 C 13.46875 -40.144531 13.238281 -40.871094 13.199219 -41.640625 C 13.113281 -43.253906 13.164062 -44.902344 13.34375 -46.585938 C 13.515625 -48.175781 13.5625 -49.734375 13.480469 -51.261719 C 13.394531 -52.890625 12.996094 -54.25 12.277344 -55.34375 C 11.65625 -56.292969 10.457031 -56.722656 8.683594 -56.628906 L 8.636719 -57.464844 L 8.742188 -56.636719 C 6.210938 -56.3125 4.535156 -55.386719 3.714844 -53.859375 C 2.832031 -52.214844 2.5 -49.320312 2.71875 -45.183594 C 2.945312 -40.867188 2.984375 -36.542969 2.84375 -32.207031 C 2.703125 -27.925781 2.796875 -23.65625 3.125 -19.398438 L 3.125 -19.378906 C 3.210938 -17.78125 3.519531 -16.222656 4.046875 -14.699219 C 4.535156 -13.304688 5.652344 -12.132812 7.410156 -11.183594 L 7.496094 -11.132812 L 7.652344 -10.992188 C 7.535156 -11.097656 7.414062 -11.148438 7.289062 -11.140625 C 8.730469 -11.214844 10.164062 -12.074219 11.59375 -13.710938 C 13.144531 -15.488281 14.703125 -17.707031 16.265625 -20.371094 C 17.847656 -23.066406 19.375 -25.835938 20.84375 -28.683594 C 22.332031 -31.5625 23.761719 -34.097656 25.128906 -36.289062 L 25.835938 -35.847656 L 25.089844 -36.222656 C 25.570312 -37.175781 26.355469 -37.847656 27.445312 -38.230469 C 28.257812 -38.515625 28.996094 -38.871094 29.652344 -39.292969 L 30.546875 -39.867188 L 31.636719 -36.695312 C 31.910156 -35.898438 32.066406 -35.097656 32.109375 -34.285156 L 32.109375 -34.234375 C 32.09375 -32.542969 32.046875 -30.902344 31.972656 -29.3125 C 31.898438 -27.761719 31.902344 -26.265625 31.976562 -24.828125 C 32.078125 -22.890625 32.425781 -20.648438 33.023438 -18.101562 C 33.621094 -15.554688 34.421875 -13.097656 35.421875 -10.726562 C 36.402344 -8.40625 37.578125 -6.535156 38.949219 -5.113281 C 40.214844 -3.796875 41.613281 -3.179688 43.136719 -3.257812 C 44.414062 -3.324219 45.859375 -4.050781 47.472656 -5.4375 C 49.171875 -6.898438 50.707031 -8.65625 52.078125 -10.714844 C 53.425781 -12.746094 54.300781 -14.714844 54.699219 -16.628906 L 54.714844 -16.683594 C 56.042969 -21.375 57.464844 -26.308594 58.980469 -31.484375 C 60.484375 -36.628906 61.730469 -41.789062 62.710938 -46.957031 C 63.683594 -52.085938 64.058594 -56.816406 63.832031 -61.148438 C 63.722656 -63.222656 63.535156 -65.34375 63.261719 -67.515625 C 62.988281 -69.726562 62.792969 -71.941406 62.675781 -74.160156 Z M 62.675781 -74.160156 "/></g></g></g><g fill="#ee6c4d" fill-opacity="1"><g transform="translate(81.752474, 162.395979)"><g><path d="M 1.449219 -16.476562 C 1.335938 -20.613281 1.648438 -25.292969 2.378906 -30.523438 C 3.113281 -35.757812 4.304688 -40.828125 5.957031 -45.742188 C 7.625 -50.703125 9.851562 -54.84375 12.636719 -58.164062 C 15.507812 -61.589844 19.003906 -63.410156 23.117188 -63.628906 C 25.9375 -63.777344 28.410156 -63.054688 30.539062 -61.460938 C 32.714844 -59.832031 33.886719 -57.476562 34.046875 -54.386719 C 34.148438 -52.488281 33.734375 -50.355469 32.8125 -47.992188 C 31.921875 -45.710938 30.867188 -43.445312 29.65625 -41.203125 C 28.457031 -38.984375 27.378906 -37.007812 26.417969 -35.277344 C 25.21875 -33.136719 23.707031 -31.253906 21.882812 -29.628906 C 20.160156 -28.097656 18.625 -26.5 17.269531 -24.835938 C 16.027344 -23.300781 15.46875 -21.28125 15.601562 -18.773438 C 15.675781 -17.347656 15.882812 -15.800781 16.226562 -14.128906 C 16.484375 -12.882812 17.683594 -12.316406 19.820312 -12.429688 C 21.285156 -12.503906 22.6875 -12.847656 24.027344 -13.457031 C 25.558594 -14.152344 27.164062 -14.546875 28.839844 -14.632812 C 29.941406 -14.691406 30.804688 -14.472656 31.4375 -13.972656 C 32.097656 -13.445312 32.457031 -12.664062 32.511719 -11.628906 C 32.632812 -9.304688 31.773438 -7.117188 29.933594 -5.074219 C 28.171875 -3.117188 26.035156 -1.550781 23.523438 -0.378906 C 21.015625 0.789062 18.714844 1.429688 16.617188 1.539062 C 12.394531 1.761719 9.226562 0.839844 7.117188 -1.222656 C 5.066406 -3.230469 3.6875 -5.683594 2.980469 -8.585938 C 2.304688 -11.359375 1.796875 -13.957031 1.457031 -16.382812 L 1.449219 -16.429688 Z M 3.117188 -16.519531 L 2.285156 -16.5 L 3.109375 -16.613281 C 3.441406 -14.246094 3.941406 -11.699219 4.601562 -8.980469 C 5.234375 -6.386719 6.460938 -4.199219 8.285156 -2.417969 C 10.046875 -0.695312 12.792969 0.0664062 16.53125 -0.128906 C 18.410156 -0.226562 20.507812 -0.816406 22.816406 -1.894531 C 25.121094 -2.96875 27.082031 -4.402344 28.691406 -6.191406 C 30.222656 -7.894531 30.941406 -9.675781 30.84375 -11.539062 C 30.816406 -12.074219 30.667969 -12.449219 30.398438 -12.660156 C 30.097656 -12.898438 29.605469 -13 28.925781 -12.964844 C 27.460938 -12.890625 26.058594 -12.546875 24.71875 -11.9375 C 23.1875 -11.238281 21.585938 -10.847656 19.910156 -10.761719 C 16.8125 -10.597656 15.039062 -11.609375 14.589844 -13.789062 C 14.230469 -15.546875 14.011719 -17.175781 13.929688 -18.683594 C 13.777344 -21.621094 14.457031 -24.023438 15.972656 -25.886719 C 17.382812 -27.625 18.980469 -29.285156 20.769531 -30.878906 C 22.457031 -32.378906 23.851562 -34.113281 24.957031 -36.085938 C 25.914062 -37.8125 26.992188 -39.785156 28.1875 -41.996094 C 29.367188 -44.179688 30.390625 -46.382812 31.253906 -48.601562 C 32.089844 -50.742188 32.464844 -52.640625 32.378906 -54.300781 C 32.242188 -56.867188 31.296875 -58.808594 29.539062 -60.125 C 27.734375 -61.472656 25.621094 -62.085938 23.207031 -61.960938 C 19.574219 -61.769531 16.476562 -60.144531 13.914062 -57.09375 C 11.265625 -53.933594 9.140625 -49.972656 7.539062 -45.207031 C 5.921875 -40.394531 4.753906 -35.421875 4.035156 -30.289062 C 3.316406 -25.152344 3.011719 -20.5625 3.117188 -16.519531 Z M 26.773438 -50.054688 C 26.191406 -50.785156 25.636719 -51.566406 25.105469 -52.40625 C 24.765625 -52.945312 24.496094 -53.207031 24.296875 -53.195312 C 23.46875 -53.152344 22.722656 -52.46875 22.0625 -51.140625 C 21.28125 -49.578125 20.632812 -47.8125 20.125 -45.847656 C 19.601562 -43.820312 19.160156 -42.164062 18.808594 -40.882812 L 18 -41.105469 L 18.835938 -41.148438 C 18.84375 -40.964844 18.816406 -40.800781 18.753906 -40.652344 C 18.605469 -40.308594 18.34375 -40.128906 17.976562 -40.109375 C 18.292969 -40.125 18.515625 -40.277344 18.640625 -40.566406 C 18.679688 -40.660156 18.699219 -40.746094 18.695312 -40.824219 C 18.703125 -40.707031 18.863281 -40.46875 19.179688 -40.113281 C 19.449219 -39.8125 19.65625 -39.664062 19.808594 -39.671875 C 20.355469 -39.703125 20.988281 -40.296875 21.703125 -41.460938 C 22.558594 -42.84375 23.429688 -44.464844 24.316406 -46.324219 C 25.222656 -48.226562 26.015625 -49.78125 26.699219 -50.988281 L 27.425781 -50.574219 Z M 28.078125 -51.097656 L 28.429688 -50.65625 L 28.152344 -50.164062 C 27.492188 -48.992188 26.714844 -47.472656 25.824219 -45.605469 C 24.914062 -43.691406 24.011719 -42.019531 23.125 -40.582031 C 22.101562 -38.921875 21.027344 -38.0625 19.894531 -38.003906 C 19.210938 -37.96875 18.554688 -38.300781 17.929688 -39.003906 C 17.355469 -39.652344 17.054688 -40.230469 17.027344 -40.738281 C 17.015625 -40.921875 17.042969 -41.085938 17.109375 -41.234375 C 17.257812 -41.578125 17.515625 -41.757812 17.886719 -41.777344 C 17.570312 -41.761719 17.347656 -41.609375 17.222656 -41.320312 C 17.179688 -41.226562 17.164062 -41.140625 17.167969 -41.0625 L 17.160156 -41.195312 L 17.195312 -41.328125 C 17.546875 -42.601562 17.984375 -44.246094 18.507812 -46.265625 C 19.046875 -48.34375 19.730469 -50.21875 20.566406 -51.886719 C 21.519531 -53.796875 22.734375 -54.789062 24.207031 -54.867188 C 25.058594 -54.910156 25.828125 -54.390625 26.515625 -53.300781 C 27.015625 -52.511719 27.535156 -51.777344 28.078125 -51.097656 Z M 28.078125 -51.097656 "/></g></g></g><g fill="#ee6c4d" fill-opacity="1"><g transform="translate(123.058104, 160.228139)"><g><path d="M 1.449219 -16.476562 C 1.335938 -20.613281 1.648438 -25.292969 2.378906 -30.523438 C 3.113281 -35.757812 4.304688 -40.828125 5.957031 -45.742188 C 7.625 -50.703125 9.851562 -54.84375 12.636719 -58.164062 C 15.507812 -61.589844 19.003906 -63.410156 23.117188 -63.628906 C 25.9375 -63.777344 28.410156 -63.054688 30.539062 -61.460938 C 32.714844 -59.832031 33.886719 -57.476562 34.046875 -54.386719 C 34.148438 -52.488281 33.734375 -50.355469 32.8125 -47.992188 C 31.921875 -45.710938 30.867188 -43.445312 29.65625 -41.203125 C 28.457031 -38.984375 27.378906 -37.007812 26.417969 -35.277344 C 25.21875 -33.136719 23.707031 -31.253906 21.882812 -29.628906 C 20.160156 -28.097656 18.625 -26.5 17.269531 -24.835938 C 16.027344 -23.300781 15.46875 -21.28125 15.601562 -18.773438 C 15.675781 -17.347656 15.882812 -15.800781 16.226562 -14.128906 C 16.484375 -12.882812 17.683594 -12.316406 19.820312 -12.429688 C 21.285156 -12.503906 22.6875 -12.847656 24.027344 -13.457031 C 25.558594 -14.152344 27.164062 -14.546875 28.839844 -14.632812 C 29.941406 -14.691406 30.804688 -14.472656 31.4375 -13.972656 C 32.097656 -13.445312 32.457031 -12.664062 32.511719 -11.628906 C 32.632812 -9.304688 31.773438 -7.117188 29.933594 -5.074219 C 28.171875 -3.117188 26.035156 -1.550781 23.523438 -0.378906 C 21.015625 0.789062 18.714844 1.429688 16.617188 1.539062 C 12.394531 1.761719 9.226562 0.839844 7.117188 -1.222656 C 5.066406 -3.230469 3.6875 -5.683594 2.980469 -8.585938 C 2.304688 -11.359375 1.796875 -13.957031 1.457031 -16.382812 L 1.449219 -16.429688 Z M 3.117188 -16.519531 L 2.285156 -16.5 L 3.109375 -16.613281 C 3.441406 -14.246094 3.941406 -11.699219 4.601562 -8.980469 C 5.234375 -6.386719 6.460938 -4.199219 8.285156 -2.417969 C 10.046875 -0.695312 12.792969 0.0664062 16.53125 -0.128906 C 18.410156 -0.226562 20.507812 -0.816406 22.816406 -1.894531 C 25.121094 -2.96875 27.082031 -4.402344 28.691406 -6.191406 C 30.222656 -7.894531 30.941406 -9.675781 30.84375 -11.539062 C 30.816406 -12.074219 30.667969 -12.449219 30.398438 -12.660156 C 30.097656 -12.898438 29.605469 -13 28.925781 -12.964844 C 27.460938 -12.890625 26.058594 -12.546875 24.71875 -11.9375 C 23.1875 -11.238281 21.585938 -10.847656 19.910156 -10.761719 C 16.8125 -10.597656 15.039062 -11.609375 14.589844 -13.789062 C 14.230469 -15.546875 14.011719 -17.175781 13.929688 -18.683594 C 13.777344 -21.621094 14.457031 -24.023438 15.972656 -25.886719 C 17.382812 -27.625 18.980469 -29.285156 20.769531 -30.878906 C 22.457031 -32.378906 23.851562 -34.113281 24.957031 -36.085938 C 25.914062 -37.8125 26.992188 -39.785156 28.1875 -41.996094 C 29.367188 -44.179688 30.390625 -46.382812 31.253906 -48.601562 C 32.089844 -50.742188 32.464844 -52.640625 32.378906 -54.300781 C 32.242188 -56.867188 31.296875 -58.808594 29.539062 -60.125 C 27.734375 -61.472656 25.621094 -62.085938 23.207031 -61.960938 C 19.574219 -61.769531 16.476562 -60.144531 13.914062 -57.09375 C 11.265625 -53.933594 9.140625 -49.972656 7.539062 -45.207031 C 5.921875 -40.394531 4.753906 -35.421875 4.035156 -30.289062 C 3.316406 -25.152344 3.011719 -20.5625 3.117188 -16.519531 Z M 26.773438 -50.054688 C 26.191406 -50.785156 25.636719 -51.566406 25.105469 -52.40625 C 24.765625 -52.945312 24.496094 -53.207031 24.296875 -53.195312 C 23.46875 -53.152344 22.722656 -52.46875 22.0625 -51.140625 C 21.28125 -49.578125 20.632812 -47.8125 20.125 -45.847656 C 19.601562 -43.820312 19.160156 -42.164062 18.808594 -40.882812 L 18 -41.105469 L 18.835938 -41.148438 C 18.84375 -40.964844 18.816406 -40.800781 18.753906 -40.652344 C 18.605469 -40.308594 18.34375 -40.128906 17.976562 -40.109375 C 18.292969 -40.125 18.515625 -40.277344 18.640625 -40.566406 C 18.679688 -40.660156 18.699219 -40.746094 18.695312 -40.824219 C 18.703125 -40.707031 18.863281 -40.46875 19.179688 -40.113281 C 19.449219 -39.8125 19.65625 -39.664062 19.808594 -39.671875 C 20.355469 -39.703125 20.988281 -40.296875 21.703125 -41.460938 C 22.558594 -42.84375 23.429688 -44.464844 24.316406 -46.324219 C 25.222656 -48.226562 26.015625 -49.78125 26.699219 -50.988281 L 27.425781 -50.574219 Z M 28.078125 -51.097656 L 28.429688 -50.65625 L 28.152344 -50.164062 C 27.492188 -48.992188 26.714844 -47.472656 25.824219 -45.605469 C 24.914062 -43.691406 24.011719 -42.019531 23.125 -40.582031 C 22.101562 -38.921875 21.027344 -38.0625 19.894531 -38.003906 C 19.210938 -37.96875 18.554688 -38.300781 17.929688 -39.003906 C 17.355469 -39.652344 17.054688 -40.230469 17.027344 -40.738281 C 17.015625 -40.921875 17.042969 -41.085938 17.109375 -41.234375 C 17.257812 -41.578125 17.515625 -41.757812 17.886719 -41.777344 C 17.570312 -41.761719 17.347656 -41.609375 17.222656 -41.320312 C 17.179688 -41.226562 17.164062 -41.140625 17.167969 -41.0625 L 17.160156 -41.195312 L 17.195312 -41.328125 C 17.546875 -42.601562 17.984375 -44.246094 18.507812 -46.265625 C 19.046875 -48.34375 19.730469 -50.21875 20.566406 -51.886719 C 21.519531 -53.796875 22.734375 -54.789062 24.207031 -54.867188 C 25.058594 -54.910156 25.828125 -54.390625 26.515625 -53.300781 C 27.015625 -52.511719 27.535156 -51.777344 28.078125 -51.097656 Z M 28.078125 -51.097656 "/></g></g></g><g fill="#ee6c4d" fill-opacity="1"><g transform="translate(164.371388, 158.059897)"><g/></g></g><g fill="#ee6c4d" fill-opacity="1"><g transform="translate(191.69908, 156.625659)"><g/></g></g><g fill="#ee6c4d" fill-opacity="1"><g transform="translate(219.026773, 155.191422)"><g/></g></g><g fill="#ee6c4d" fill-opacity="1"><g transform="translate(246.354465, 153.757185)"><g/></g></g><g fill="#ee6c4d" fill-opacity="1"><g transform="translate(273.69446, 152.322302)"><g><path d="M -1.285156 -8.9375 C -0.640625 -12.632812 -0.101562 -16.296875 0.335938 -19.925781 C 0.773438 -23.578125 1.261719 -27.308594 1.796875 -31.121094 L 2.625 -31.003906 L 1.792969 -31.09375 C 2 -33.070312 2.113281 -35.386719 2.128906 -38.035156 C 2.148438 -40.75 2.324219 -43.441406 2.660156 -46.117188 C 3.011719 -48.890625 3.835938 -51.234375 5.128906 -53.140625 C 6.5 -55.164062 8.632812 -56.253906 11.527344 -56.40625 C 13.546875 -56.511719 15.277344 -55.886719 16.71875 -54.53125 C 18.152344 -53.183594 18.921875 -51.507812 19.027344 -49.503906 L 19.074219 -48.625 L 19.058594 -48.535156 C 17.847656 -41.539062 16.589844 -34.511719 15.277344 -27.457031 C 13.96875 -20.402344 12.601562 -13.421875 11.175781 -6.515625 L 11.175781 -6.507812 L 11.171875 -6.5 C 10.785156 -4.816406 9.859375 -3.40625 8.390625 -2.273438 C 7.039062 -1.226562 5.777344 -0.402344 4.609375 0.203125 L 3.996094 0.523438 L 0.953125 -3.347656 C -0.113281 -4.695312 -0.679688 -6.035156 -0.75 -7.363281 L -0.808594 -8.460938 L 0.0273438 -8.503906 L -0.699219 -8.09375 L -0.789062 -8.246094 C -0.710938 -8.113281 -0.605469 -8.023438 -0.472656 -7.976562 C -0.4375 -7.964844 -0.421875 -7.960938 -0.417969 -7.960938 L -1.464844 -7.90625 Z M 0.363281 -8.652344 L -0.460938 -8.796875 L -0.503906 -9.628906 C 0.046875 -9.660156 0.4375 -9.472656 0.664062 -9.070312 L 0.851562 -8.746094 L 0.917969 -7.449219 C 0.96875 -6.476562 1.417969 -5.453125 2.265625 -4.378906 L 4.882812 -1.054688 L 4.222656 -0.535156 L 3.839844 -1.277344 C 4.917969 -1.839844 6.09375 -2.609375 7.367188 -3.59375 C 8.519531 -4.484375 9.246094 -5.578125 9.542969 -6.871094 L 10.359375 -6.6875 L 9.539062 -6.855469 C 10.960938 -13.75 12.328125 -20.71875 13.636719 -27.761719 C 14.945312 -34.808594 16.203125 -41.828125 17.410156 -48.816406 L 18.234375 -48.675781 L 17.398438 -48.632812 L 17.359375 -49.417969 C 17.277344 -50.972656 16.683594 -52.273438 15.574219 -53.3125 C 14.480469 -54.34375 13.160156 -54.816406 11.617188 -54.738281 C 9.273438 -54.613281 7.574219 -53.769531 6.511719 -52.203125 C 5.367188 -50.515625 4.636719 -48.417969 4.320312 -45.90625 C 3.992188 -43.296875 3.816406 -40.671875 3.800781 -38.027344 C 3.785156 -35.320312 3.667969 -32.953125 3.457031 -30.917969 L 3.453125 -30.902344 L 3.453125 -30.890625 C 2.917969 -27.085938 2.433594 -23.367188 1.992188 -19.726562 C 1.554688 -16.066406 1.007812 -12.375 0.363281 -8.652344 Z M 9.757812 -77.238281 C 9.710938 -80.285156 10.300781 -82.519531 11.527344 -83.945312 C 12.769531 -85.386719 14.503906 -86.167969 16.730469 -86.285156 C 18.359375 -86.371094 19.757812 -86.085938 20.925781 -85.433594 C 22.21875 -84.707031 22.90625 -83.613281 22.984375 -82.15625 L 21.3125 -82.066406 C 21.320312 -81.984375 21.339844 -81.898438 21.375 -81.816406 C 21.511719 -81.492188 21.753906 -81.328125 22.105469 -81.316406 C 22.394531 -81.308594 22.613281 -81.410156 22.769531 -81.625 C 22.761719 -81.621094 22.738281 -81.5625 22.6875 -81.457031 C 22.554688 -81.164062 22.351562 -80.664062 22.082031 -79.957031 C 21.507812 -78.464844 20.75 -76.9375 19.808594 -75.375 C 18.738281 -73.605469 17.375 -72.675781 15.71875 -72.589844 C 15.070312 -72.554688 14.054688 -73.164062 12.667969 -74.40625 C 11.480469 -75.480469 10.625 -76.199219 10.105469 -76.574219 L 9.761719 -76.820312 Z M 11.425781 -77.265625 L 10.59375 -77.253906 L 11.078125 -77.933594 C 11.648438 -77.523438 12.550781 -76.761719 13.789062 -75.648438 C 14.828125 -74.714844 15.441406 -74.25 15.632812 -74.257812 C 16.699219 -74.316406 17.613281 -74.976562 18.378906 -76.242188 C 19.269531 -77.71875 19.984375 -79.15625 20.519531 -80.554688 C 20.804688 -81.292969 21.019531 -81.828125 21.167969 -82.152344 C 21.261719 -82.355469 21.34375 -82.503906 21.410156 -82.601562 C 21.601562 -82.867188 21.851562 -82.996094 22.15625 -82.988281 C 22.679688 -82.96875 22.953125 -82.695312 22.984375 -82.15625 L 22.148438 -82.113281 L 21.3125 -82.066406 C 21.269531 -82.914062 20.867188 -83.546875 20.109375 -83.972656 C 19.222656 -84.472656 18.125 -84.6875 16.820312 -84.617188 C 15.066406 -84.527344 13.726562 -83.9375 12.792969 -82.851562 C 11.84375 -81.75 11.386719 -79.886719 11.425781 -77.265625 Z M 11.425781 -77.265625 "/></g></g></g><g fill="#ee6c4d" fill-opacity="1"><g transform="translate(302.278588, 150.822123)"><g><path d="M 1.367188 -24.011719 L 1.253906 -26.207031 C 1.0625 -29.816406 1.207031 -33.625 1.6875 -37.636719 C 2.167969 -41.648438 2.980469 -45.445312 4.125 -49.019531 C 5.285156 -52.640625 6.804688 -55.640625 8.691406 -58.019531 C 10.667969 -60.519531 13.039062 -61.839844 15.804688 -61.984375 C 17.71875 -62.085938 19.511719 -61.328125 21.179688 -59.714844 C 22.6875 -58.257812 24.171875 -56.722656 25.632812 -55.105469 L 25.011719 -54.542969 L 24.390625 -55.101562 C 24.871094 -55.632812 25.320312 -56.1875 25.746094 -56.765625 C 26.125 -57.285156 26.390625 -57.8125 26.539062 -58.351562 C 28.59375 -65.300781 30.707031 -72.144531 32.875 -78.878906 C 35.042969 -85.601562 37.511719 -93.496094 40.289062 -102.5625 L 40.292969 -102.578125 L 40.296875 -102.589844 C 41.328125 -105.617188 43.238281 -107.207031 46.023438 -107.351562 C 48.453125 -107.480469 50.164062 -107.09375 51.164062 -106.195312 C 52.160156 -105.296875 52.691406 -104.210938 52.761719 -102.933594 C 52.789062 -102.363281 52.765625 -101.738281 52.691406 -101.058594 C 52.617188 -100.414062 52.542969 -99.824219 52.464844 -99.289062 C 51.746094 -94.941406 51.175781 -91.265625 50.757812 -88.257812 L 49.5 -79.214844 C 49.082031 -76.1875 48.457031 -72.492188 47.632812 -68.132812 L 46.8125 -68.289062 L 47.636719 -68.148438 C 46.597656 -61.878906 45.316406 -55.652344 43.796875 -49.460938 C 42.289062 -43.304688 40.910156 -37.101562 39.667969 -30.855469 C 39.003906 -27.582031 38.390625 -23.8125 37.832031 -19.550781 C 37.265625 -15.246094 36.558594 -11.117188 35.707031 -7.167969 C 34.847656 -3.164062 33.710938 0.191406 32.292969 2.90625 C 30.761719 5.832031 28.683594 7.363281 26.0625 7.5 C 22.679688 7.679688 20.835938 4.871094 20.535156 -0.921875 C 20.445312 -2.628906 20.460938 -4.34375 20.585938 -6.066406 C 20.707031 -7.734375 20.773438 -9.402344 20.789062 -11.066406 L 21.625 -11.058594 L 20.792969 -11.011719 C 20.742188 -11.921875 20.648438 -12.773438 20.507812 -13.570312 C 20.363281 -14.378906 20.164062 -15.234375 19.914062 -16.140625 L 20.71875 -16.363281 L 21.167969 -15.660156 C 20.398438 -15.167969 19.519531 -14.753906 18.523438 -14.417969 C 17.710938 -14.148438 17 -13.71875 16.390625 -13.140625 L 15.816406 -13.742188 L 16.4375 -13.183594 C 15.613281 -12.273438 14.710938 -11.410156 13.71875 -10.597656 C 12.621094 -9.695312 11.40625 -9.210938 10.070312 -9.140625 C 8.339844 -9.050781 6.800781 -9.753906 5.453125 -11.257812 C 4.21875 -12.628906 3.222656 -14.207031 2.46875 -15.984375 C 1.710938 -17.769531 1.304688 -19.234375 1.242188 -20.382812 C 1.195312 -21.269531 1.214844 -22.027344 1.292969 -22.660156 C 1.363281 -23.191406 1.386719 -23.640625 1.367188 -24.011719 Z M 3.035156 -24.097656 C 3.0625 -23.628906 3.03125 -23.078125 2.953125 -22.449219 C 2.882812 -21.914062 2.871094 -21.257812 2.914062 -20.46875 C 2.960938 -19.519531 3.328125 -18.242188 4.007812 -16.640625 C 4.691406 -15.03125 5.585938 -13.609375 6.695312 -12.375 C 7.6875 -11.269531 8.785156 -10.746094 9.984375 -10.808594 C 10.953125 -10.859375 11.84375 -11.222656 12.660156 -11.890625 C 13.582031 -12.648438 14.429688 -13.453125 15.195312 -14.304688 L 15.214844 -14.328125 L 15.238281 -14.347656 C 16.027344 -15.101562 16.945312 -15.652344 17.992188 -16.003906 C 18.855469 -16.292969 19.613281 -16.648438 20.265625 -17.066406 L 21.21875 -17.679688 L 21.523438 -16.585938 C 21.789062 -15.628906 21.996094 -14.722656 22.152344 -13.867188 C 22.304688 -13 22.410156 -12.078125 22.460938 -11.101562 L 22.460938 -11.046875 C 22.445312 -9.351562 22.375 -7.648438 22.25 -5.945312 C 22.132812 -4.292969 22.117188 -2.648438 22.203125 -1.007812 C 22.449219 3.671875 23.707031 5.949219 25.976562 5.832031 C 27.964844 5.726562 29.574219 4.492188 30.8125 2.128906 C 32.160156 -0.449219 33.246094 -3.664062 34.074219 -7.519531 C 34.914062 -11.425781 35.613281 -15.507812 36.171875 -19.769531 C 36.738281 -24.070312 37.355469 -27.875 38.027344 -31.179688 C 39.277344 -37.453125 40.660156 -43.679688 42.175781 -49.859375 C 43.683594 -56.007812 44.953125 -62.195312 45.988281 -68.425781 L 45.988281 -68.433594 L 45.992188 -68.441406 C 46.8125 -72.777344 47.429688 -76.445312 47.847656 -79.445312 L 49.105469 -88.488281 C 49.523438 -91.507812 50.09375 -95.191406 50.808594 -99.527344 C 50.886719 -100.050781 50.957031 -100.621094 51.03125 -101.246094 C 51.097656 -101.835938 51.117188 -102.367188 51.089844 -102.84375 C 51.046875 -103.660156 50.699219 -104.363281 50.042969 -104.953125 C 49.390625 -105.542969 48.078125 -105.785156 46.109375 -105.683594 C 44.078125 -105.578125 42.667969 -104.367188 41.878906 -102.050781 L 41.089844 -102.320312 L 41.886719 -102.074219 C 39.109375 -93 36.632812 -85.097656 34.464844 -78.367188 C 32.300781 -71.644531 30.195312 -64.824219 28.148438 -57.910156 C 27.945312 -57.171875 27.59375 -56.460938 27.09375 -55.777344 C 26.632812 -55.152344 26.148438 -54.554688 25.632812 -53.984375 L 25.015625 -53.296875 L 24.394531 -53.984375 C 22.957031 -55.574219 21.5 -57.085938 20.019531 -58.515625 C 18.699219 -59.789062 17.324219 -60.390625 15.890625 -60.316406 C 13.628906 -60.195312 11.664062 -59.085938 10 -56.984375 C 8.242188 -54.761719 6.8125 -51.9375 5.71875 -48.511719 C 4.605469 -45.035156 3.816406 -41.34375 3.347656 -37.4375 C 2.878906 -33.523438 2.738281 -29.808594 2.921875 -26.296875 Z M 8.285156 -24.433594 C 8.886719 -23.371094 9.382812 -22.300781 9.765625 -21.226562 C 10.054688 -20.421875 10.304688 -19.976562 10.511719 -19.882812 L 10.179688 -19.117188 L 10.132812 -19.953125 C 10.632812 -19.976562 11.230469 -20.191406 11.933594 -20.589844 C 12.71875 -21.035156 13.398438 -21.472656 13.976562 -21.902344 L 14.019531 -21.933594 L 14.066406 -21.960938 C 14.3125 -22.101562 14.871094 -23.136719 15.734375 -25.066406 C 16.667969 -27.144531 17.632812 -29.566406 18.636719 -32.328125 C 19.640625 -35.097656 20.5 -37.648438 21.210938 -39.984375 C 21.898438 -42.238281 22.222656 -43.734375 22.183594 -44.472656 C 22.140625 -45.320312 21.65625 -46.246094 20.734375 -47.25 C 19.726562 -48.347656 18.632812 -49.261719 17.449219 -49.996094 C 16.351562 -50.679688 15.523438 -51.003906 14.964844 -50.976562 C 14.871094 -50.96875 14.71875 -50.816406 14.507812 -50.511719 C 14.1875 -50.039062 13.855469 -49.320312 13.511719 -48.347656 C 12.796875 -46.296875 12.128906 -43.753906 11.507812 -40.710938 C 10.882812 -37.644531 10.3125 -34.578125 9.792969 -31.515625 C 9.269531 -28.429688 8.796875 -25.875 8.375 -23.851562 L 7.558594 -24.019531 Z M 6.832031 -23.609375 L 6.675781 -23.882812 L 6.742188 -24.191406 C 7.15625 -26.195312 7.625 -28.730469 8.144531 -31.792969 C 8.667969 -34.875 9.242188 -37.957031 9.871094 -41.042969 C 10.503906 -44.160156 11.191406 -46.777344 11.9375 -48.898438 C 12.789062 -51.335938 13.769531 -52.585938 14.875 -52.644531 C 15.785156 -52.691406 16.933594 -52.28125 18.332031 -51.414062 C 19.644531 -50.601562 20.855469 -49.589844 21.964844 -48.382812 C 23.160156 -47.082031 23.789062 -45.808594 23.855469 -44.5625 C 23.902344 -43.625 23.554688 -41.9375 22.808594 -39.496094 C 22.089844 -37.132812 21.222656 -34.554688 20.207031 -31.761719 C 19.191406 -28.957031 18.210938 -26.5 17.261719 -24.382812 C 16.246094 -22.121094 15.457031 -20.828125 14.890625 -20.507812 L 14.476562 -21.234375 L 14.976562 -20.5625 C 14.34375 -20.089844 13.601562 -19.613281 12.757812 -19.136719 C 11.828125 -18.605469 10.980469 -18.324219 10.222656 -18.285156 L 10.023438 -18.273438 L 9.84375 -18.351562 C 9.195312 -18.636719 8.644531 -19.40625 8.195312 -20.664062 C 7.839844 -21.648438 7.386719 -22.628906 6.832031 -23.609375 Z M 6.832031 -23.609375 "/></g></g></g><g fill="#ee6c4d" fill-opacity="1"><g transform="translate(358.504499, 147.871223)"><g><path d="M 1.449219 -16.476562 C 1.335938 -20.613281 1.648438 -25.292969 2.378906 -30.523438 C 3.113281 -35.757812 4.304688 -40.828125 5.957031 -45.742188 C 7.625 -50.703125 9.851562 -54.84375 12.636719 -58.164062 C 15.507812 -61.589844 19.003906 -63.410156 23.117188 -63.628906 C 25.9375 -63.777344 28.410156 -63.054688 30.539062 -61.460938 C 32.714844 -59.832031 33.886719 -57.476562 34.046875 -54.386719 C 34.148438 -52.488281 33.734375 -50.355469 32.8125 -47.992188 C 31.921875 -45.710938 30.867188 -43.445312 29.65625 -41.203125 C 28.457031 -38.984375 27.378906 -37.007812 26.417969 -35.277344 C 25.21875 -33.136719 23.707031 -31.253906 21.882812 -29.628906 C 20.160156 -28.097656 18.625 -26.5 17.269531 -24.835938 C 16.027344 -23.300781 15.46875 -21.28125 15.601562 -18.773438 C 15.675781 -17.347656 15.882812 -15.800781 16.226562 -14.128906 C 16.484375 -12.882812 17.683594 -12.316406 19.820312 -12.429688 C 21.285156 -12.503906 22.6875 -12.847656 24.027344 -13.457031 C 25.558594 -14.152344 27.164062 -14.546875 28.839844 -14.632812 C 29.941406 -14.691406 30.804688 -14.472656 31.4375 -13.972656 C 32.097656 -13.445312 32.457031 -12.664062 32.511719 -11.628906 C 32.632812 -9.304688 31.773438 -7.117188 29.933594 -5.074219 C 28.171875 -3.117188 26.035156 -1.550781 23.523438 -0.378906 C 21.015625 0.789062 18.714844 1.429688 16.617188 1.539062 C 12.394531 1.761719 9.226562 0.839844 7.117188 -1.222656 C 5.066406 -3.230469 3.6875 -5.683594 2.980469 -8.585938 C 2.304688 -11.359375 1.796875 -13.957031 1.457031 -16.382812 L 1.449219 -16.429688 Z M 3.117188 -16.519531 L 2.285156 -16.5 L 3.109375 -16.613281 C 3.441406 -14.246094 3.941406 -11.699219 4.601562 -8.980469 C 5.234375 -6.386719 6.460938 -4.199219 8.285156 -2.417969 C 10.046875 -0.695312 12.792969 0.0664062 16.53125 -0.128906 C 18.410156 -0.226562 20.507812 -0.816406 22.816406 -1.894531 C 25.121094 -2.96875 27.082031 -4.402344 28.691406 -6.191406 C 30.222656 -7.894531 30.941406 -9.675781 30.84375 -11.539062 C 30.816406 -12.074219 30.667969 -12.449219 30.398438 -12.660156 C 30.097656 -12.898438 29.605469 -13 28.925781 -12.964844 C 27.460938 -12.890625 26.058594 -12.546875 24.71875 -11.9375 C 23.1875 -11.238281 21.585938 -10.847656 19.910156 -10.761719 C 16.8125 -10.597656 15.039062 -11.609375 14.589844 -13.789062 C 14.230469 -15.546875 14.011719 -17.175781 13.929688 -18.683594 C 13.777344 -21.621094 14.457031 -24.023438 15.972656 -25.886719 C 17.382812 -27.625 18.980469 -29.285156 20.769531 -30.878906 C 22.457031 -32.378906 23.851562 -34.113281 24.957031 -36.085938 C 25.914062 -37.8125 26.992188 -39.785156 28.1875 -41.996094 C 29.367188 -44.179688 30.390625 -46.382812 31.253906 -48.601562 C 32.089844 -50.742188 32.464844 -52.640625 32.378906 -54.300781 C 32.242188 -56.867188 31.296875 -58.808594 29.539062 -60.125 C 27.734375 -61.472656 25.621094 -62.085938 23.207031 -61.960938 C 19.574219 -61.769531 16.476562 -60.144531 13.914062 -57.09375 C 11.265625 -53.933594 9.140625 -49.972656 7.539062 -45.207031 C 5.921875 -40.394531 4.753906 -35.421875 4.035156 -30.289062 C 3.316406 -25.152344 3.011719 -20.5625 3.117188 -16.519531 Z M 26.773438 -50.054688 C 26.191406 -50.785156 25.636719 -51.566406 25.105469 -52.40625 C 24.765625 -52.945312 24.496094 -53.207031 24.296875 -53.195312 C 23.46875 -53.152344 22.722656 -52.46875 22.0625 -51.140625 C 21.28125 -49.578125 20.632812 -47.8125 20.125 -45.847656 C 19.601562 -43.820312 19.160156 -42.164062 18.808594 -40.882812 L 18 -41.105469 L 18.835938 -41.148438 C 18.84375 -40.964844 18.816406 -40.800781 18.753906 -40.652344 C 18.605469 -40.308594 18.34375 -40.128906 17.976562 -40.109375 C 18.292969 -40.125 18.515625 -40.277344 18.640625 -40.566406 C 18.679688 -40.660156 18.699219 -40.746094 18.695312 -40.824219 C 18.703125 -40.707031 18.863281 -40.46875 19.179688 -40.113281 C 19.449219 -39.8125 19.65625 -39.664062 19.808594 -39.671875 C 20.355469 -39.703125 20.988281 -40.296875 21.703125 -41.460938 C 22.558594 -42.84375 23.429688 -44.464844 24.316406 -46.324219 C 25.222656 -48.226562 26.015625 -49.78125 26.699219 -50.988281 L 27.425781 -50.574219 Z M 28.078125 -51.097656 L 28.429688 -50.65625 L 28.152344 -50.164062 C 27.492188 -48.992188 26.714844 -47.472656 25.824219 -45.605469 C 24.914062 -43.691406 24.011719 -42.019531 23.125 -40.582031 C 22.101562 -38.921875 21.027344 -38.0625 19.894531 -38.003906 C 19.210938 -37.96875 18.554688 -38.300781 17.929688 -39.003906 C 17.355469 -39.652344 17.054688 -40.230469 17.027344 -40.738281 C 17.015625 -40.921875 17.042969 -41.085938 17.109375 -41.234375 C 17.257812 -41.578125 17.515625 -41.757812 17.886719 -41.777344 C 17.570312 -41.761719 17.347656 -41.609375 17.222656 -41.320312 C 17.179688 -41.226562 17.164062 -41.140625 17.167969 -41.0625 L 17.160156 -41.195312 L 17.195312 -41.328125 C 17.546875 -42.601562 17.984375 -44.246094 18.507812 -46.265625 C 19.046875 -48.34375 19.730469 -50.21875 20.566406 -51.886719 C 21.519531 -53.796875 22.734375 -54.789062 24.207031 -54.867188 C 25.058594 -54.910156 25.828125 -54.390625 26.515625 -53.300781 C 27.015625 -52.511719 27.535156 -51.777344 28.078125 -51.097656 Z M 28.078125 -51.097656 "/></g></g></g></g></g><g transform="matrix(1, 0, 0, 1, 11, 56)"><g clip-path="url(#fe8dca65a6)"><g fill="#ee6c4d" fill-opacity="1"><g transform="translate(7.995508, 152.123299)"><g><path d="M 13.8125 -42.8125 C 17.882812 -42.457031 21.128906 -42.34375 23.546875 -42.46875 C 25.960938 -42.601562 29.546875 -42.960938 34.296875 -43.546875 C 39.054688 -44.140625 42.5625 -44.492188 44.8125 -44.609375 C 49.75 -44.867188 53.359375 -44.210938 55.640625 -42.640625 C 57.929688 -41.066406 58.390625 -38.328125 57.015625 -34.421875 C 56.210938 -32.460938 54.785156 -30.53125 52.734375 -28.625 C 50.691406 -26.71875 48.660156 -25.203125 46.640625 -24.078125 C 44.628906 -22.953125 42 -21.578125 38.75 -19.953125 C 35.507812 -18.328125 33.179688 -17.078125 31.765625 -16.203125 C 29.472656 -14.835938 27.425781 -14.078125 25.625 -13.921875 C 23.832031 -13.773438 21.722656 -14.203125 19.296875 -15.203125 C 19.484375 -16.003906 20.023438 -16.988281 20.921875 -18.15625 C 21.828125 -19.332031 22.953125 -20.519531 24.296875 -21.71875 C 25.648438 -22.914062 27.109375 -24.148438 28.671875 -25.421875 C 30.234375 -26.691406 31.773438 -27.867188 33.296875 -28.953125 C 34.816406 -30.035156 36.171875 -31.003906 37.359375 -31.859375 C 38.554688 -32.722656 39.476562 -33.453125 40.125 -34.046875 C 40.769531 -34.648438 41.035156 -34.945312 40.921875 -34.9375 C 38.984375 -35.289062 34.25 -34.757812 26.71875 -33.34375 C 19.1875 -31.925781 14.863281 -31.191406 13.75 -31.140625 C 9.132812 -30.890625 5.734375 -31.691406 3.546875 -33.546875 C 1.367188 -35.410156 0.800781 -38.289062 1.84375 -42.1875 C 2.664062 -45.726562 4.796875 -49.160156 8.234375 -52.484375 C 8.546875 -52.953125 11.960938 -55.441406 18.484375 -59.953125 C 25.003906 -64.460938 30.234375 -67.953125 34.171875 -70.421875 C 36.441406 -71.890625 38.320312 -72.941406 39.8125 -73.578125 C 41.3125 -74.222656 42.90625 -74.535156 44.59375 -74.515625 C 46.28125 -74.492188 47.941406 -73.90625 49.578125 -72.75 C 52.273438 -70.96875 53.382812 -69.21875 52.90625 -67.5 C 52.4375 -65.78125 50.425781 -64.382812 46.875 -63.3125 C 34.582031 -59.164062 23.5625 -52.332031 13.8125 -42.8125 Z M 13.8125 -42.8125 "/></g></g></g><g fill="#ee6c4d" fill-opacity="1"><g transform="translate(7.995508, 152.123299)"><g><path d="M 13.886719 -43.703125 C 17.917969 -43.355469 21.125 -43.246094 23.5 -43.371094 C 25.894531 -43.496094 29.460938 -43.851562 34.195312 -44.4375 C 38.976562 -45.027344 42.5 -45.382812 44.765625 -45.5 C 49.914062 -45.769531 53.710938 -45.0625 56.15625 -43.378906 C 58.8125 -41.546875 59.378906 -38.464844 57.855469 -34.132812 L 57.847656 -34.109375 L 57.839844 -34.089844 C 56.992188 -32.011719 55.5 -29.972656 53.363281 -27.972656 C 51.269531 -26.011719 49.175781 -24.453125 47.085938 -23.296875 C 45.050781 -22.171875 42.40625 -20.789062 39.160156 -19.148438 C 35.941406 -17.523438 33.632812 -16.289062 32.234375 -15.4375 C 29.816406 -14.003906 27.640625 -13.207031 25.710938 -13.042969 C 23.769531 -12.878906 21.523438 -13.328125 18.972656 -14.382812 L 18.269531 -14.671875 L 18.441406 -15.410156 C 18.652344 -16.335938 19.246094 -17.4375 20.222656 -18.714844 C 21.152344 -19.933594 22.3125 -21.160156 23.699219 -22.394531 C 25.054688 -23.601562 26.523438 -24.84375 28.101562 -26.117188 C 29.683594 -27.394531 31.238281 -28.582031 32.773438 -29.6875 L 36.847656 -32.605469 C 38.011719 -33.4375 38.902344 -34.136719 39.519531 -34.707031 C 39.820312 -34.988281 40.03125 -35.191406 40.144531 -35.320312 L 40.148438 -35.304688 C 40.050781 -35.117188 40.027344 -34.917969 40.082031 -34.703125 C 40.203125 -34.238281 40.5 -34.015625 40.972656 -34.042969 L 40.871094 -34.035156 L 40.765625 -34.054688 C 38.941406 -34.382812 34.316406 -33.855469 26.894531 -32.464844 C 19.324219 -31.046875 14.957031 -30.308594 13.792969 -30.25 C 8.949219 -29.992188 5.34375 -30.871094 2.980469 -32.882812 C 0.511719 -34.984375 -0.15625 -38.160156 0.976562 -42.410156 L 1.84375 -42.179688 L 0.96875 -42.386719 C 1.835938 -46.09375 4.050781 -49.675781 7.605469 -53.132812 L 8.230469 -52.488281 L 7.488281 -52.988281 C 7.863281 -53.550781 11.359375 -56.117188 17.976562 -60.695312 C 24.511719 -65.210938 29.75 -68.707031 33.6875 -71.171875 C 36.011719 -72.667969 37.941406 -73.746094 39.472656 -74.40625 C 41.078125 -75.097656 42.789062 -75.429688 44.609375 -75.40625 C 46.484375 -75.378906 48.316406 -74.734375 50.105469 -73.476562 L 49.589844 -72.742188 L 50.085938 -73.492188 C 53.132812 -71.476562 54.359375 -69.402344 53.773438 -67.269531 C 53.210938 -65.238281 51 -63.632812 47.136719 -62.449219 L 46.875 -63.304688 L 47.160156 -62.453125 C 35 -58.359375 24.09375 -51.597656 14.4375 -42.167969 L 13.808594 -42.808594 Z M 13.734375 -41.914062 L 11.78125 -42.082031 L 13.183594 -43.449219 C 23.035156 -53.070312 34.167969 -59.972656 46.589844 -64.15625 L 46.613281 -64.164062 C 49.847656 -65.152344 51.65625 -66.347656 52.042969 -67.746094 C 52.402344 -69.042969 51.417969 -70.460938 49.097656 -71.996094 L 49.074219 -72.011719 C 47.585938 -73.058594 46.089844 -73.589844 44.582031 -73.613281 C 43.019531 -73.632812 41.554688 -73.351562 40.183594 -72.757812 C 38.742188 -72.136719 36.894531 -71.101562 34.640625 -69.652344 C 30.722656 -67.199219 25.507812 -63.722656 18.996094 -59.21875 C 12.566406 -54.769531 9.226562 -52.363281 8.976562 -51.988281 L 8.921875 -51.910156 L 8.855469 -51.84375 C 5.550781 -48.632812 3.503906 -45.34375 2.714844 -41.976562 L 2.710938 -41.964844 L 2.707031 -41.949219 C 1.769531 -38.429688 2.25 -35.863281 4.144531 -34.25 C 6.144531 -32.546875 9.328125 -31.808594 13.699219 -32.039062 C 14.78125 -32.097656 19.070312 -32.824219 26.5625 -34.226562 C 34.203125 -35.65625 39.042969 -36.1875 41.085938 -35.820312 L 40.925781 -34.9375 L 40.878906 -35.832031 C 41.382812 -35.859375 41.695312 -35.628906 41.820312 -35.144531 C 41.878906 -34.914062 41.851562 -34.6875 41.730469 -34.464844 C 41.679688 -34.363281 41.59375 -34.246094 41.476562 -34.121094 C 41.328125 -33.953125 41.078125 -33.707031 40.738281 -33.390625 C 40.066406 -32.769531 39.117188 -32.019531 37.890625 -31.148438 L 33.820312 -28.230469 C 32.3125 -27.148438 30.785156 -25.976562 29.230469 -24.722656 C 27.671875 -23.464844 26.226562 -22.242188 24.890625 -21.054688 C 23.589844 -19.898438 22.507812 -18.753906 21.644531 -17.625 C 20.828125 -16.554688 20.34375 -15.683594 20.1875 -15.011719 L 19.3125 -15.210938 L 19.65625 -16.039062 C 21.941406 -15.09375 23.910156 -14.691406 25.558594 -14.832031 C 27.21875 -14.96875 29.132812 -15.683594 31.304688 -16.96875 C 32.742188 -17.84375 35.09375 -19.105469 38.351562 -20.75 C 41.578125 -22.378906 44.203125 -23.75 46.21875 -24.867188 C 48.179688 -25.953125 50.152344 -27.421875 52.136719 -29.28125 C 54.082031 -31.101562 55.429688 -32.929688 56.179688 -34.765625 L 57.007812 -34.429688 L 56.164062 -34.726562 C 57.382812 -38.199219 57.042969 -40.589844 55.140625 -41.898438 C 53.027344 -43.355469 49.601562 -43.957031 44.859375 -43.710938 C 42.632812 -43.59375 39.152344 -43.242188 34.414062 -42.65625 C 29.636719 -42.066406 26.027344 -41.707031 23.59375 -41.578125 C 21.136719 -41.449219 17.847656 -41.5625 13.734375 -41.914062 Z M 13.734375 -41.914062 "/></g></g></g></g></g><g transform="matrix(1, 0, 0, 1, 276, 42)"><g clip-path="url(#eae2acb882)"><g fill="#ee6c4d" fill-opacity="1"><g transform="translate(8.124742, 152.208543)"><g><path d="M 13.8125 -42.8125 C 17.882812 -42.457031 21.128906 -42.34375 23.546875 -42.46875 C 25.960938 -42.601562 29.546875 -42.960938 34.296875 -43.546875 C 39.054688 -44.140625 42.5625 -44.492188 44.8125 -44.609375 C 49.75 -44.867188 53.359375 -44.210938 55.640625 -42.640625 C 57.929688 -41.066406 58.390625 -38.328125 57.015625 -34.421875 C 56.210938 -32.460938 54.785156 -30.53125 52.734375 -28.625 C 50.691406 -26.71875 48.660156 -25.203125 46.640625 -24.078125 C 44.628906 -22.953125 42 -21.578125 38.75 -19.953125 C 35.507812 -18.328125 33.179688 -17.078125 31.765625 -16.203125 C 29.472656 -14.835938 27.425781 -14.078125 25.625 -13.921875 C 23.832031 -13.773438 21.722656 -14.203125 19.296875 -15.203125 C 19.484375 -16.003906 20.023438 -16.988281 20.921875 -18.15625 C 21.828125 -19.332031 22.953125 -20.519531 24.296875 -21.71875 C 25.648438 -22.914062 27.109375 -24.148438 28.671875 -25.421875 C 30.234375 -26.691406 31.773438 -27.867188 33.296875 -28.953125 C 34.816406 -30.035156 36.171875 -31.003906 37.359375 -31.859375 C 38.554688 -32.722656 39.476562 -33.453125 40.125 -34.046875 C 40.769531 -34.648438 41.035156 -34.945312 40.921875 -34.9375 C 38.984375 -35.289062 34.25 -34.757812 26.71875 -33.34375 C 19.1875 -31.925781 14.863281 -31.191406 13.75 -31.140625 C 9.132812 -30.890625 5.734375 -31.691406 3.546875 -33.546875 C 1.367188 -35.410156 0.800781 -38.289062 1.84375 -42.1875 C 2.664062 -45.726562 4.796875 -49.160156 8.234375 -52.484375 C 8.546875 -52.953125 11.960938 -55.441406 18.484375 -59.953125 C 25.003906 -64.460938 30.234375 -67.953125 34.171875 -70.421875 C 36.441406 -71.890625 38.320312 -72.941406 39.8125 -73.578125 C 41.3125 -74.222656 42.90625 -74.535156 44.59375 -74.515625 C 46.28125 -74.492188 47.941406 -73.90625 49.578125 -72.75 C 52.273438 -70.96875 53.382812 -69.21875 52.90625 -67.5 C 52.4375 -65.78125 50.425781 -64.382812 46.875 -63.3125 C 34.582031 -59.164062 23.5625 -52.332031 13.8125 -42.8125 Z M 13.8125 -42.8125 "/></g></g></g><g fill="#ee6c4d" fill-opacity="1"><g transform="translate(8.124742, 152.208543)"><g><path d="M 13.886719 -43.703125 C 17.917969 -43.355469 21.125 -43.246094 23.5 -43.371094 C 25.894531 -43.496094 29.460938 -43.851562 34.195312 -44.4375 C 38.976562 -45.027344 42.5 -45.382812 44.765625 -45.5 C 49.914062 -45.769531 53.710938 -45.0625 56.15625 -43.378906 C 58.8125 -41.546875 59.378906 -38.464844 57.855469 -34.132812 L 57.847656 -34.109375 L 57.839844 -34.089844 C 56.992188 -32.011719 55.5 -29.972656 53.363281 -27.972656 C 51.269531 -26.011719 49.175781 -24.453125 47.085938 -23.296875 C 45.050781 -22.171875 42.40625 -20.789062 39.160156 -19.148438 C 35.941406 -17.523438 33.632812 -16.289062 32.234375 -15.4375 C 29.816406 -14.003906 27.640625 -13.207031 25.710938 -13.042969 C 23.769531 -12.878906 21.523438 -13.328125 18.972656 -14.382812 L 18.269531 -14.671875 L 18.441406 -15.410156 C 18.652344 -16.335938 19.246094 -17.4375 20.222656 -18.714844 C 21.152344 -19.933594 22.3125 -21.160156 23.699219 -22.394531 C 25.054688 -23.601562 26.523438 -24.84375 28.101562 -26.117188 C 29.683594 -27.394531 31.238281 -28.582031 32.773438 -29.6875 L 36.847656 -32.605469 C 38.011719 -33.4375 38.902344 -34.136719 39.519531 -34.707031 C 39.820312 -34.988281 40.03125 -35.191406 40.144531 -35.320312 L 40.148438 -35.304688 C 40.050781 -35.117188 40.027344 -34.917969 40.082031 -34.703125 C 40.203125 -34.238281 40.5 -34.015625 40.972656 -34.042969 L 40.871094 -34.035156 L 40.765625 -34.054688 C 38.941406 -34.382812 34.316406 -33.855469 26.894531 -32.464844 C 19.324219 -31.046875 14.957031 -30.308594 13.792969 -30.25 C 8.949219 -29.992188 5.34375 -30.871094 2.980469 -32.882812 C 0.511719 -34.984375 -0.15625 -38.160156 0.976562 -42.410156 L 1.84375 -42.179688 L 0.96875 -42.386719 C 1.835938 -46.09375 4.050781 -49.675781 7.605469 -53.132812 L 8.230469 -52.488281 L 7.488281 -52.988281 C 7.863281 -53.550781 11.359375 -56.117188 17.976562 -60.695312 C 24.511719 -65.210938 29.75 -68.707031 33.6875 -71.171875 C 36.011719 -72.667969 37.941406 -73.746094 39.472656 -74.40625 C 41.078125 -75.097656 42.789062 -75.429688 44.609375 -75.40625 C 46.484375 -75.378906 48.316406 -74.734375 50.105469 -73.476562 L 49.589844 -72.742188 L 50.085938 -73.492188 C 53.132812 -71.476562 54.359375 -69.402344 53.773438 -67.269531 C 53.210938 -65.238281 51 -63.632812 47.136719 -62.449219 L 46.875 -63.304688 L 47.160156 -62.453125 C 35 -58.359375 24.09375 -51.597656 14.4375 -42.167969 L 13.808594 -42.808594 Z M 13.734375 -41.914062 L 11.78125 -42.082031 L 13.183594 -43.449219 C 23.035156 -53.070312 34.167969 -59.972656 46.589844 -64.15625 L 46.613281 -64.164062 C 49.847656 -65.152344 51.65625 -66.347656 52.042969 -67.746094 C 52.402344 -69.042969 51.417969 -70.460938 49.097656 -71.996094 L 49.074219 -72.011719 C 47.585938 -73.058594 46.089844 -73.589844 44.582031 -73.613281 C 43.019531 -73.632812 41.554688 -73.351562 40.183594 -72.757812 C 38.742188 -72.136719 36.894531 -71.101562 34.640625 -69.652344 C 30.722656 -67.199219 25.507812 -63.722656 18.996094 -59.21875 C 12.566406 -54.769531 9.226562 -52.363281 8.976562 -51.988281 L 8.921875 -51.910156 L 8.855469 -51.84375 C 5.550781 -48.632812 3.503906 -45.34375 2.714844 -41.976562 L 2.710938 -41.964844 L 2.707031 -41.949219 C 1.769531 -38.429688 2.25 -35.863281 4.144531 -34.25 C 6.144531 -32.546875 9.328125 -31.808594 13.699219 -32.039062 C 14.78125 -32.097656 19.070312 -32.824219 26.5625 -34.226562 C 34.203125 -35.65625 39.042969 -36.1875 41.085938 -35.820312 L 40.925781 -34.9375 L 40.878906 -35.832031 C 41.382812 -35.859375 41.695312 -35.628906 41.820312 -35.144531 C 41.878906 -34.914062 41.851562 -34.6875 41.730469 -34.464844 C 41.679688 -34.363281 41.59375 -34.246094 41.476562 -34.121094 C 41.328125 -33.953125 41.078125 -33.707031 40.738281 -33.390625 C 40.066406 -32.769531 39.117188 -32.019531 37.890625 -31.148438 L 33.820312 -28.230469 C 32.3125 -27.148438 30.785156 -25.976562 29.230469 -24.722656 C 27.671875 -23.464844 26.226562 -22.242188 24.890625 -21.054688 C 23.589844 -19.898438 22.507812 -18.753906 21.644531 -17.625 C 20.828125 -16.554688 20.34375 -15.683594 20.1875 -15.011719 L 19.3125 -15.210938 L 19.65625 -16.039062 C 21.941406 -15.09375 23.910156 -14.691406 25.558594 -14.832031 C 27.21875 -14.96875 29.132812 -15.683594 31.304688 -16.96875 C 32.742188 -17.84375 35.09375 -19.105469 38.351562 -20.75 C 41.578125 -22.378906 44.203125 -23.75 46.21875 -24.867188 C 48.179688 -25.953125 50.152344 -27.421875 52.136719 -29.28125 C 54.082031 -31.101562 55.429688 -32.929688 56.179688 -34.765625 L 57.007812 -34.429688 L 56.164062 -34.726562 C 57.382812 -38.199219 57.042969 -40.589844 55.140625 -41.898438 C 53.027344 -43.355469 49.601562 -43.957031 44.859375 -43.710938 C 42.632812 -43.59375 39.152344 -43.242188 34.414062 -42.65625 C 29.636719 -42.066406 26.027344 -41.707031 23.59375 -41.578125 C 21.136719 -41.449219 17.847656 -41.5625 13.734375 -41.914062 Z M 13.734375 -41.914062 "/></g></g></g></g></g><g transform="matrix(1, 0, 0, 1, 237, 73)"><g clip-path="url(#2964cb3ebe)"><g fill="#ee6c4d" fill-opacity="1"><g transform="translate(5.45432, 100.392309)"><g><path d="M 47.203125 -43.859375 C 47.085938 -43.335938 46.757812 -42.914062 46.21875 -42.59375 C 45.6875 -42.269531 45.203125 -41.984375 44.765625 -41.734375 C 44.847656 -41.597656 44.945312 -41.457031 45.0625 -41.3125 C 45.175781 -41.175781 45.238281 -41.03125 45.25 -40.875 C 45.289062 -40.132812 44.863281 -39.5 43.96875 -38.96875 C 43.070312 -38.4375 42.109375 -37.957031 41.078125 -37.53125 C 40.054688 -37.113281 39.300781 -36.738281 38.8125 -36.40625 C 37.789062 -34.800781 36.179688 -33.625 33.984375 -32.875 C 31.796875 -32.125 29.71875 -31.363281 27.75 -30.59375 C 27.03125 -30.269531 26.3125 -29.921875 25.59375 -29.546875 C 24.875 -29.179688 24.15625 -28.789062 23.4375 -28.375 C 22.738281 -26.257812 21.800781 -24.019531 20.625 -21.65625 C 19.445312 -19.289062 18.546875 -16.988281 17.921875 -14.75 C 17.609375 -13.539062 17.054688 -11.96875 16.265625 -10.03125 C 15.484375 -8.09375 14.769531 -6.21875 14.125 -4.40625 C 13.476562 -2.59375 13.179688 -1.164062 13.234375 -0.125 C 13.265625 0.457031 13.296875 1.101562 13.328125 1.8125 C 13.367188 2.519531 13.222656 3.140625 12.890625 3.671875 C 12.878906 3.597656 12.910156 3.519531 12.984375 3.4375 C 12.691406 3.757812 12.40625 4.425781 12.125 5.4375 C 11.84375 6.445312 11.546875 7.535156 11.234375 8.703125 C 10.929688 9.867188 10.578125 10.867188 10.171875 11.703125 C 9.773438 12.535156 9.28125 12.96875 8.6875 13 C 7.351562 13.070312 6.460938 12.675781 6.015625 11.8125 C 5.566406 10.945312 5.3125 9.9375 5.25 8.78125 C 5.195312 7.632812 5.144531 6.617188 5.09375 5.734375 C 5.070312 5.222656 5.097656 4.707031 5.171875 4.1875 C 5.253906 3.664062 5.28125 3.109375 5.25 2.515625 C 5.226562 2.140625 5.117188 1.828125 4.921875 1.578125 C 4.734375 1.328125 4.625 0.945312 4.59375 0.4375 C 4.570312 -0.0820312 4.617188 -0.585938 4.734375 -1.078125 C 4.859375 -1.578125 4.910156 -2.046875 4.890625 -2.484375 C 4.867188 -2.785156 4.8125 -3.0625 4.71875 -3.3125 C 4.632812 -3.5625 4.59375 -3.765625 4.59375 -3.921875 C 4.4375 -6.867188 4.6875 -9.769531 5.34375 -12.625 C 6 -15.488281 6.796875 -18.257812 7.734375 -20.9375 C 8.671875 -23.613281 9.453125 -26.160156 10.078125 -28.578125 C 9.910156 -28.847656 9.707031 -29.09375 9.46875 -29.3125 C 9.3125 -29.519531 8.863281 -29.972656 8.125 -30.671875 C 7.382812 -31.378906 6.5625 -32.15625 5.65625 -33 C 4.757812 -33.84375 3.976562 -34.65625 3.3125 -35.4375 C 2.644531 -36.21875 2.300781 -36.757812 2.28125 -37.0625 C 2.207031 -38.539062 2.617188 -39.539062 3.515625 -40.0625 C 4.410156 -40.59375 5.335938 -40.882812 6.296875 -40.9375 C 7.265625 -40.988281 7.75 -40.972656 7.75 -40.890625 C 8.632812 -41.023438 9.503906 -41.035156 10.359375 -40.921875 C 11.222656 -40.816406 12.132812 -40.789062 13.09375 -40.84375 C 13.757812 -40.875 14.390625 -41.535156 14.984375 -42.828125 C 15.585938 -44.128906 16.132812 -45.71875 16.625 -47.59375 C 17.125 -49.476562 17.625 -51.34375 18.125 -53.1875 C 18.625 -55.03125 19.140625 -56.5625 19.671875 -57.78125 C 20.285156 -58.84375 20.675781 -60.191406 20.84375 -61.828125 C 21.007812 -63.472656 21.285156 -64.9375 21.671875 -66.21875 C 22.054688 -67.5 22.84375 -68.171875 24.03125 -68.234375 C 24.53125 -68.265625 25.03125 -68.125 25.53125 -67.8125 C 26.03125 -67.507812 26.460938 -67.367188 26.828125 -67.390625 C 27.128906 -67.398438 27.40625 -67.445312 27.65625 -67.53125 C 27.914062 -67.625 28.15625 -67.675781 28.375 -67.6875 C 29.1875 -67.726562 30.140625 -67.609375 31.234375 -67.328125 C 32.328125 -67.054688 33.296875 -66.609375 34.140625 -65.984375 C 34.992188 -65.359375 35.445312 -64.609375 35.5 -63.734375 C 35.5 -63.660156 35.335938 -63.164062 35.015625 -62.25 C 34.691406 -61.34375 34.316406 -60.320312 33.890625 -59.1875 C 33.460938 -58.050781 33.054688 -57.023438 32.671875 -56.109375 C 31.816406 -53.910156 31.078125 -51.703125 30.453125 -49.484375 C 29.828125 -47.273438 29.125 -45.066406 28.34375 -42.859375 C 28.789062 -42.816406 29.238281 -42.804688 29.6875 -42.828125 C 30.132812 -42.847656 30.578125 -42.867188 31.015625 -42.890625 C 33.679688 -43.035156 36.269531 -43.566406 38.78125 -44.484375 C 41.289062 -45.398438 43.4375 -45.90625 45.21875 -46 C 45.582031 -46.007812 45.945312 -45.742188 46.3125 -45.203125 C 46.675781 -44.671875 46.972656 -44.222656 47.203125 -43.859375 Z M 47.203125 -43.859375 "/></g></g></g><g fill="#ee6c4d" fill-opacity="1"><g transform="translate(5.45432, 100.392309)"><g><path d="M 48.050781 -43.671875 C 47.875 -42.90625 47.414062 -42.296875 46.664062 -41.84375 C 46.117188 -41.515625 45.625 -41.226562 45.1875 -40.976562 L 44.757812 -41.734375 L 45.515625 -42.160156 C 45.570312 -42.0625 45.640625 -41.960938 45.726562 -41.859375 C 45.96875 -41.570312 46.097656 -41.253906 46.117188 -40.914062 C 46.171875 -39.824219 45.601562 -38.925781 44.398438 -38.21875 C 43.464844 -37.667969 42.472656 -37.171875 41.421875 -36.734375 C 40.449219 -36.328125 39.738281 -35.980469 39.277344 -35.683594 L 38.808594 -36.414062 L 39.539062 -35.949219 C 38.402344 -34.164062 36.644531 -32.867188 34.265625 -32.058594 C 32.09375 -31.316406 30.03125 -30.5625 28.082031 -29.796875 L 27.765625 -30.605469 L 28.128906 -29.816406 C 27.417969 -29.488281 26.703125 -29.140625 25.992188 -28.773438 C 25.28125 -28.410156 24.570312 -28.023438 23.859375 -27.621094 L 23.433594 -28.375 L 24.253906 -28.101562 C 23.539062 -25.949219 22.582031 -23.675781 21.390625 -21.277344 C 20.242188 -18.964844 19.363281 -16.710938 18.753906 -14.503906 C 18.4375 -13.273438 17.878906 -11.675781 17.078125 -9.703125 C 16.292969 -7.785156 15.578125 -5.921875 14.9375 -4.121094 C 14.332031 -2.417969 14.050781 -1.105469 14.097656 -0.183594 L 14.199219 1.757812 C 14.246094 2.644531 14.050781 3.4375 13.605469 4.128906 L 12.152344 6.414062 L 12.007812 3.707031 C 11.992188 3.394531 12.097656 3.109375 12.328125 2.855469 L 13.621094 4.015625 C 13.429688 4.226562 13.214844 4.773438 12.96875 5.65625 C 12.691406 6.671875 12.394531 7.757812 12.085938 8.921875 C 11.761719 10.140625 11.390625 11.191406 10.964844 12.078125 C 10.414062 13.226562 9.671875 13.824219 8.738281 13.871094 C 7.035156 13.960938 5.871094 13.410156 5.246094 12.214844 C 4.734375 11.234375 4.445312 10.109375 4.378906 8.835938 L 4.21875 5.785156 C 4.1875 5.207031 4.21875 4.625 4.3125 4.042969 C 4.386719 3.578125 4.410156 3.082031 4.382812 2.550781 C 4.371094 2.367188 4.328125 2.222656 4.242188 2.117188 C 3.929688 1.722656 3.753906 1.175781 3.71875 0.472656 C 3.683594 -0.132812 3.742188 -0.722656 3.886719 -1.292969 C 3.988281 -1.699219 4.027344 -2.078125 4.007812 -2.433594 C 4 -2.652344 3.960938 -2.847656 3.902344 -3.027344 C 3.785156 -3.355469 3.722656 -3.636719 3.710938 -3.867188 C 3.550781 -6.90625 3.816406 -9.894531 4.5 -12.828125 C 5.171875 -15.710938 5.980469 -18.507812 6.925781 -21.21875 C 7.851562 -23.878906 8.621094 -26.398438 9.230469 -28.78125 L 10.070312 -28.566406 L 9.316406 -28.136719 C 9.199219 -28.34375 9.058594 -28.519531 8.894531 -28.667969 L 8.832031 -28.726562 L 8.78125 -28.792969 C 8.648438 -28.96875 8.234375 -29.390625 7.527344 -30.058594 L 5.070312 -32.375 C 4.152344 -33.238281 3.347656 -34.070312 2.65625 -34.875 C 1.855469 -35.804688 1.441406 -36.519531 1.417969 -37.011719 C 1.320312 -38.839844 1.871094 -40.109375 3.074219 -40.816406 C 4.097656 -41.417969 5.160156 -41.746094 6.261719 -41.804688 C 6.765625 -41.832031 7.148438 -41.84375 7.410156 -41.835938 C 8.1875 -41.816406 8.589844 -41.519531 8.621094 -40.949219 L 7.753906 -40.902344 L 7.636719 -41.765625 C 8.59375 -41.894531 9.539062 -41.902344 10.472656 -41.792969 C 11.28125 -41.695312 12.140625 -41.667969 13.050781 -41.71875 C 13.371094 -41.734375 13.753906 -42.230469 14.207031 -43.207031 C 14.785156 -44.453125 15.316406 -45.992188 15.796875 -47.820312 L 17.285156 -53.410156 C 17.792969 -55.296875 18.320312 -56.863281 18.867188 -58.117188 L 18.886719 -58.160156 L 18.910156 -58.203125 C 19.460938 -59.167969 19.816406 -60.410156 19.976562 -61.929688 C 20.15625 -63.625 20.441406 -65.136719 20.835938 -66.46875 C 21.328125 -68.140625 22.371094 -69.019531 23.964844 -69.101562 C 24.664062 -69.140625 25.339844 -68.957031 25.988281 -68.554688 C 26.335938 -68.339844 26.601562 -68.238281 26.789062 -68.25 C 27.003906 -68.261719 27.203125 -68.296875 27.378906 -68.359375 C 27.710938 -68.472656 28.03125 -68.535156 28.332031 -68.554688 C 29.234375 -68.601562 30.273438 -68.476562 31.445312 -68.175781 C 32.644531 -67.871094 33.714844 -67.375 34.65625 -66.6875 C 35.722656 -65.898438 36.289062 -64.925781 36.351562 -63.765625 C 36.359375 -63.574219 36.183594 -62.972656 35.824219 -61.957031 C 35.496094 -61.046875 35.125 -60.023438 34.699219 -58.882812 C 34.269531 -57.734375 33.855469 -56.695312 33.453125 -55.769531 L 32.65625 -56.117188 L 33.464844 -55.804688 C 32.625 -53.632812 31.898438 -51.453125 31.28125 -49.257812 C 30.652344 -47.019531 29.945312 -44.792969 29.164062 -42.585938 L 28.34375 -42.875 L 28.441406 -43.738281 C 28.84375 -43.691406 29.242188 -43.679688 29.636719 -43.699219 L 30.96875 -43.769531 C 33.542969 -43.90625 36.046875 -44.414062 38.476562 -45.292969 C 41.070312 -46.234375 43.296875 -46.753906 45.160156 -46.851562 C 45.855469 -46.886719 46.476562 -46.5 47.019531 -45.691406 L 48.136719 -44.035156 Z M 46.359375 -44.058594 L 47.207031 -43.863281 L 46.488281 -43.378906 L 45.582031 -44.722656 C 45.460938 -44.902344 45.351562 -45.027344 45.253906 -45.097656 L 45.25 -45.117188 C 43.558594 -45.027344 41.5 -44.542969 39.070312 -43.664062 C 36.476562 -42.722656 33.808594 -42.179688 31.058594 -42.035156 L 29.726562 -41.964844 C 29.234375 -41.941406 28.742188 -41.957031 28.246094 -42.011719 L 27.164062 -42.132812 L 27.527344 -43.164062 C 28.296875 -45.335938 28.988281 -47.527344 29.609375 -49.726562 C 30.242188 -51.976562 30.988281 -54.210938 31.847656 -56.429688 L 31.851562 -56.449219 L 31.859375 -56.464844 C 32.25 -57.359375 32.65625 -58.367188 33.074219 -59.488281 C 33.492188 -60.621094 33.863281 -61.636719 34.1875 -62.539062 C 34.347656 -62.984375 34.464844 -63.328125 34.542969 -63.566406 C 34.578125 -63.675781 34.601562 -63.757812 34.621094 -63.816406 C 34.625 -63.835938 34.625 -63.84375 34.628906 -63.847656 C 34.617188 -63.796875 34.613281 -63.738281 34.617188 -63.675781 C 34.585938 -64.289062 34.253906 -64.824219 33.628906 -65.285156 C 32.871094 -65.84375 32 -66.246094 31.019531 -66.492188 C 30.015625 -66.75 29.148438 -66.855469 28.421875 -66.820312 C 28.28125 -66.8125 28.121094 -66.777344 27.945312 -66.714844 C 27.613281 -66.601562 27.257812 -66.535156 26.882812 -66.515625 C 26.332031 -66.488281 25.730469 -66.671875 25.078125 -67.078125 C 24.734375 -67.289062 24.394531 -67.386719 24.054688 -67.367188 C 23.28125 -67.328125 22.761719 -66.863281 22.5 -65.976562 C 22.136719 -64.746094 21.871094 -63.335938 21.703125 -61.746094 C 21.519531 -59.984375 21.089844 -58.515625 20.417969 -57.339844 L 19.664062 -57.773438 L 20.460938 -57.425781 C 19.945312 -56.25 19.449219 -54.761719 18.964844 -52.960938 L 17.476562 -47.378906 C 16.96875 -45.449219 16.40625 -43.816406 15.785156 -42.476562 C 15.035156 -40.867188 14.15625 -40.035156 13.144531 -39.984375 C 12.132812 -39.929688 11.171875 -39.957031 10.265625 -40.066406 C 9.480469 -40.164062 8.683594 -40.152344 7.871094 -40.042969 L 6.9375 -39.917969 L 6.886719 -40.859375 C 6.90625 -40.523438 7.0625 -40.285156 7.359375 -40.144531 C 7.414062 -40.117188 7.464844 -40.101562 7.511719 -40.09375 C 7.492188 -40.097656 7.445312 -40.097656 7.367188 -40.101562 C 7.148438 -40.105469 6.8125 -40.097656 6.351562 -40.070312 C 5.53125 -40.027344 4.734375 -39.777344 3.957031 -39.320312 C 3.359375 -38.96875 3.089844 -38.230469 3.148438 -37.101562 C 3.148438 -37.128906 3.144531 -37.148438 3.140625 -37.164062 C 3.144531 -37.15625 3.148438 -37.148438 3.152344 -37.132812 C 3.179688 -37.070312 3.222656 -36.992188 3.285156 -36.898438 C 3.433594 -36.664062 3.664062 -36.367188 3.972656 -36.007812 C 4.621094 -35.25 5.386719 -34.460938 6.261719 -33.636719 L 8.722656 -31.316406 C 9.5 -30.582031 9.984375 -30.085938 10.171875 -29.832031 L 9.476562 -29.3125 L 10.054688 -29.957031 C 10.359375 -29.683594 10.617188 -29.363281 10.828125 -28.992188 L 11 -28.6875 L 10.914062 -28.351562 C 10.289062 -25.921875 9.507812 -23.351562 8.566406 -20.648438 C 7.640625 -17.996094 6.847656 -15.257812 6.191406 -12.433594 C 5.542969 -9.660156 5.292969 -6.832031 5.445312 -3.957031 C 5.449219 -3.890625 5.480469 -3.765625 5.542969 -3.589844 C 5.65625 -3.257812 5.722656 -2.902344 5.742188 -2.527344 C 5.769531 -1.996094 5.714844 -1.445312 5.570312 -0.871094 C 5.46875 -0.46875 5.429688 -0.0507812 5.449219 0.382812 C 5.46875 0.714844 5.519531 0.933594 5.601562 1.035156 C 5.914062 1.429688 6.085938 1.90625 6.117188 2.460938 C 6.148438 3.113281 6.121094 3.730469 6.027344 4.316406 C 5.953125 4.777344 5.929688 5.238281 5.953125 5.695312 L 6.113281 8.746094 C 6.164062 9.765625 6.390625 10.652344 6.785156 11.410156 C 7.066406 11.945312 7.6875 12.1875 8.648438 12.140625 C 8.894531 12.125 9.148438 11.855469 9.398438 11.328125 C 9.777344 10.539062 10.113281 9.589844 10.410156 8.476562 C 10.71875 7.308594 11.015625 6.214844 11.296875 5.195312 C 11.613281 4.046875 11.957031 3.269531 12.328125 2.855469 L 12.976562 3.433594 L 13.621094 4.015625 C 13.710938 3.914062 13.75 3.78125 13.742188 3.617188 L 12.875 3.664062 L 12.144531 3.195312 C 12.386719 2.816406 12.496094 2.367188 12.46875 1.847656 L 12.367188 -0.09375 C 12.304688 -1.242188 12.617188 -2.78125 13.300781 -4.703125 C 13.953125 -6.53125 14.675781 -8.414062 15.46875 -10.359375 C 16.242188 -12.257812 16.78125 -13.792969 17.082031 -14.96875 C 17.71875 -17.277344 18.636719 -19.640625 19.835938 -22.050781 C 20.992188 -24.375 21.917969 -26.574219 22.609375 -28.652344 L 22.714844 -28.964844 L 23.003906 -29.132812 C 23.734375 -29.546875 24.464844 -29.941406 25.199219 -30.316406 C 25.929688 -30.695312 26.664062 -31.054688 27.402344 -31.394531 L 27.425781 -31.40625 L 27.449219 -31.414062 C 29.421875 -32.1875 31.507812 -32.953125 33.707031 -33.699219 C 35.699219 -34.378906 37.15625 -35.441406 38.078125 -36.882812 L 38.179688 -37.042969 L 38.339844 -37.144531 C 38.882812 -37.496094 39.6875 -37.890625 40.75 -38.335938 C 41.730469 -38.746094 42.652344 -39.203125 43.519531 -39.714844 C 44.113281 -40.066406 44.402344 -40.433594 44.382812 -40.824219 C 44.382812 -40.792969 44.390625 -40.765625 44.402344 -40.742188 L 44.394531 -40.746094 C 44.242188 -40.929688 44.113281 -41.117188 44.003906 -41.304688 L 43.574219 -42.058594 L 44.332031 -42.488281 C 44.757812 -42.730469 45.234375 -43.011719 45.769531 -43.332031 C 46.097656 -43.53125 46.292969 -43.773438 46.359375 -44.058594 Z M 46.359375 -44.058594 "/></g></g></g></g></g><g clip-path="url(#8265f51e87)"><g clip-path="url(#11347657c0)"><g clip-path="url(#edc286e663)"><path fill="#ee6c4d" d="M 375.78125 90.246094 C 377.050781 88.917969 377.125 87.65625 375.953125 87.101562 C 375.367188 86.824219 374.699219 87.136719 372.421875 88.578125 C 365.730469 92.929688 362.554688 92 357.929688 89.207031 C 357.253906 88.808594 356.835938 88.859375 356.015625 89.472656 C 355.023438 90.214844 355.023438 90.363281 355.65625 92.570312 C 357.660156 99.644531 350.039062 105.414062 351.773438 107.726562 C 353.261719 109.714844 355.796875 105.773438 362.019531 105.148438 C 366.769531 104.660156 368.65625 107.566406 370.46875 106.210938 C 371.046875 105.777344 371.285156 105.335938 371.132812 104.882812 C 369.414062 99.992188 369.664062 96.65625 375.78125 90.246094 Z M 375.78125 90.246094 " fill-opacity="1" fill-rule="nonzero"/></g></g></g></g></g></svg>