<svg version="1.0" preserveAspectRatio="xMidYMid meet" viewBox="109.39896373056995 172.655998692 353.56476683937825 91.87199930400001" zoomAndPan="magnify" xmlns:xlink="http://www.w3.org/1999/xlink" xmlns="http://www.w3.org/2000/svg" style="max-height: 500px" width="353.56476683937825" height="91.87199930400001"><defs><g/><clipPath id="f6ef6a6438"><rect height="130" y="0" width="49" x="0"/></clipPath><clipPath id="9e7c94af69"><rect height="130" y="0" width="49" x="0"/></clipPath></defs><g fill-opacity="1" fill="#ee6c4d"><g transform="translate(160.01092, 255.826267)"><g><path d="M 51.546875 -54.203125 C 51.546875 -52.515625 51.609375 -50.828125 51.734375 -49.140625 C 51.859375 -47.453125 51.921875 -45.804688 51.921875 -44.203125 C 51.921875 -40.828125 51.4375 -37.171875 50.46875 -33.234375 C 49.507812 -29.304688 48.34375 -25.394531 46.96875 -21.5 C 45.601562 -17.601562 44.320312 -13.890625 43.125 -10.359375 C 42.71875 -8.835938 41.929688 -7.289062 40.765625 -5.71875 C 39.609375 -4.15625 38.328125 -2.832031 36.921875 -1.75 C 35.515625 -0.664062 34.25 -0.125 33.125 -0.125 C 31.757812 -0.125 30.550781 -0.722656 29.5 -1.921875 C 28.457031 -3.128906 27.59375 -4.675781 26.90625 -6.5625 C 26.226562 -8.445312 25.707031 -10.394531 25.34375 -12.40625 C 24.988281 -14.414062 24.8125 -16.179688 24.8125 -17.703125 C 24.8125 -18.828125 24.867188 -19.988281 24.984375 -21.1875 C 25.109375 -22.394531 25.210938 -23.644531 25.296875 -24.9375 C 25.296875 -25.5 25.210938 -26.0625 25.046875 -26.625 C 24.890625 -27.1875 24.734375 -27.75 24.578125 -28.3125 C 24.015625 -27.988281 23.390625 -27.722656 22.703125 -27.515625 C 22.023438 -27.316406 21.523438 -26.9375 21.203125 -26.375 C 20.078125 -24.769531 18.890625 -22.90625 17.640625 -20.78125 C 16.398438 -18.65625 15.113281 -16.585938 13.78125 -14.578125 C 12.457031 -12.566406 11.15625 -10.898438 9.875 -9.578125 C 8.59375 -8.253906 7.304688 -7.59375 6.015625 -7.59375 C 5.941406 -7.59375 5.882812 -7.609375 5.84375 -7.640625 C 5.800781 -7.679688 5.78125 -7.703125 5.78125 -7.703125 C 4.332031 -8.585938 3.425781 -9.648438 3.0625 -10.890625 C 2.707031 -12.140625 2.53125 -13.40625 2.53125 -14.6875 C 2.445312 -17.988281 2.546875 -21.285156 2.828125 -24.578125 C 3.109375 -27.867188 3.25 -31.160156 3.25 -34.453125 C 3.25 -37.742188 3.648438 -40.050781 4.453125 -41.375 C 5.253906 -42.695312 6.738281 -43.441406 8.90625 -43.609375 C 10.519531 -43.609375 11.609375 -43.125 12.171875 -42.15625 C 12.734375 -41.195312 13.015625 -40.035156 13.015625 -38.671875 C 13.015625 -37.460938 12.910156 -36.234375 12.703125 -34.984375 C 12.503906 -33.742188 12.40625 -32.519531 12.40625 -31.3125 C 12.40625 -30.832031 12.523438 -30.367188 12.765625 -29.921875 C 13.003906 -29.484375 13.164062 -29.066406 13.25 -28.671875 C 13.65625 -28.828125 14.078125 -28.945312 14.515625 -29.03125 C 14.953125 -29.113281 15.289062 -29.273438 15.53125 -29.515625 C 16.976562 -31.035156 18.523438 -32.859375 20.171875 -34.984375 C 21.816406 -37.117188 23.460938 -39.007812 25.109375 -40.65625 C 26.753906 -42.300781 28.222656 -43.125 29.515625 -43.125 C 30.953125 -43.125 31.953125 -42.679688 32.515625 -41.796875 C 33.078125 -40.910156 33.359375 -40.066406 33.359375 -39.265625 C 33.359375 -38.460938 33.257812 -37.640625 33.0625 -36.796875 C 32.863281 -35.953125 32.679688 -35.171875 32.515625 -34.453125 C 31.953125 -31.960938 31.46875 -29.429688 31.0625 -26.859375 C 30.664062 -24.285156 30.46875 -21.71875 30.46875 -19.15625 C 30.46875 -17.144531 30.609375 -15.273438 30.890625 -13.546875 C 31.171875 -11.828125 31.992188 -9.800781 33.359375 -7.46875 C 34.003906 -8.03125 34.75 -8.570312 35.59375 -9.09375 C 36.4375 -9.613281 36.976562 -10.195312 37.21875 -10.84375 C 39.550781 -17.988281 41.78125 -25.210938 43.90625 -32.515625 C 46.03125 -39.828125 48.21875 -47.097656 50.46875 -54.328125 C 50.625 -54.328125 50.800781 -54.304688 51 -54.265625 C 51.207031 -54.222656 51.390625 -54.203125 51.546875 -54.203125 Z M 51.546875 -54.203125"/></g></g></g><g fill-opacity="1" fill="#ee6c4d"><g transform="translate(216.023487, 255.826267)"><g><path d="M 2.40625 -12.53125 C 2.488281 -15.65625 2.910156 -19.1875 3.671875 -23.125 C 4.429688 -27.0625 5.535156 -30.851562 6.984375 -34.5 C 8.429688 -38.15625 10.257812 -41.164062 12.46875 -43.53125 C 14.675781 -45.90625 17.265625 -47.09375 20.234375 -47.09375 C 22.242188 -47.09375 23.96875 -46.488281 25.40625 -45.28125 C 26.851562 -44.082031 27.578125 -42.398438 27.578125 -40.234375 C 27.578125 -38.867188 27.195312 -37.34375 26.4375 -35.65625 C 25.675781 -33.96875 24.789062 -32.300781 23.78125 -30.65625 C 22.78125 -29.007812 21.878906 -27.546875 21.078125 -26.265625 C 20.117188 -24.734375 18.9375 -23.40625 17.53125 -22.28125 C 16.125 -21.15625 14.859375 -19.96875 13.734375 -18.71875 C 12.609375 -17.476562 12.046875 -15.816406 12.046875 -13.734375 C 12.046875 -12.609375 12.144531 -11.382812 12.34375 -10.0625 C 12.539062 -8.738281 13.644531 -8.078125 15.65625 -8.078125 C 16.863281 -8.078125 18.03125 -8.296875 19.15625 -8.734375 C 20.28125 -9.171875 21.441406 -9.390625 22.640625 -9.390625 C 24.003906 -9.390625 24.6875 -8.789062 24.6875 -7.59375 C 24.6875 -5.976562 24.003906 -4.488281 22.640625 -3.125 C 21.273438 -1.757812 19.648438 -0.695312 17.765625 0.0625 C 15.878906 0.820312 14.171875 1.203125 12.640625 1.203125 C 9.597656 1.203125 7.375 0.441406 5.96875 -1.078125 C 4.5625 -2.609375 3.65625 -4.4375 3.25 -6.5625 C 2.851562 -8.6875 2.570312 -10.675781 2.40625 -12.53125 Z M 23 -37.578125 C 22.601562 -38.140625 22.222656 -38.742188 21.859375 -39.390625 C 21.492188 -40.035156 21.113281 -40.359375 20.71875 -40.359375 C 19.832031 -40.359375 19.046875 -39.753906 18.359375 -38.546875 C 17.679688 -37.335938 17.101562 -35.96875 16.625 -34.4375 C 16.144531 -32.914062 15.742188 -31.675781 15.421875 -30.71875 C 15.421875 -30.632812 15.398438 -30.59375 15.359375 -30.59375 C 15.316406 -30.59375 15.296875 -30.550781 15.296875 -30.46875 C 15.296875 -30.226562 15.457031 -29.90625 15.78125 -29.5 C 16.101562 -29.101562 16.425781 -28.90625 16.75 -28.90625 C 17.382812 -28.90625 18.0625 -29.425781 18.78125 -30.46875 C 19.507812 -31.519531 20.253906 -32.742188 21.015625 -34.140625 C 21.773438 -35.546875 22.4375 -36.691406 23 -37.578125 Z M 23 -37.578125"/></g></g></g><g fill-opacity="1" fill="#ee6c4d"><g transform="translate(247.703718, 255.826267)"><g><path d="M 2.40625 -12.53125 C 2.488281 -15.65625 2.910156 -19.1875 3.671875 -23.125 C 4.429688 -27.0625 5.535156 -30.851562 6.984375 -34.5 C 8.429688 -38.15625 10.257812 -41.164062 12.46875 -43.53125 C 14.675781 -45.90625 17.265625 -47.09375 20.234375 -47.09375 C 22.242188 -47.09375 23.96875 -46.488281 25.40625 -45.28125 C 26.851562 -44.082031 27.578125 -42.398438 27.578125 -40.234375 C 27.578125 -38.867188 27.195312 -37.34375 26.4375 -35.65625 C 25.675781 -33.96875 24.789062 -32.300781 23.78125 -30.65625 C 22.78125 -29.007812 21.878906 -27.546875 21.078125 -26.265625 C 20.117188 -24.734375 18.9375 -23.40625 17.53125 -22.28125 C 16.125 -21.15625 14.859375 -19.96875 13.734375 -18.71875 C 12.609375 -17.476562 12.046875 -15.816406 12.046875 -13.734375 C 12.046875 -12.609375 12.144531 -11.382812 12.34375 -10.0625 C 12.539062 -8.738281 13.644531 -8.078125 15.65625 -8.078125 C 16.863281 -8.078125 18.03125 -8.296875 19.15625 -8.734375 C 20.28125 -9.171875 21.441406 -9.390625 22.640625 -9.390625 C 24.003906 -9.390625 24.6875 -8.789062 24.6875 -7.59375 C 24.6875 -5.976562 24.003906 -4.488281 22.640625 -3.125 C 21.273438 -1.757812 19.648438 -0.695312 17.765625 0.0625 C 15.878906 0.820312 14.171875 1.203125 12.640625 1.203125 C 9.597656 1.203125 7.375 0.441406 5.96875 -1.078125 C 4.5625 -2.609375 3.65625 -4.4375 3.25 -6.5625 C 2.851562 -8.6875 2.570312 -10.675781 2.40625 -12.53125 Z M 23 -37.578125 C 22.601562 -38.140625 22.222656 -38.742188 21.859375 -39.390625 C 21.492188 -40.035156 21.113281 -40.359375 20.71875 -40.359375 C 19.832031 -40.359375 19.046875 -39.753906 18.359375 -38.546875 C 17.679688 -37.335938 17.101562 -35.96875 16.625 -34.4375 C 16.144531 -32.914062 15.742188 -31.675781 15.421875 -30.71875 C 15.421875 -30.632812 15.398438 -30.59375 15.359375 -30.59375 C 15.316406 -30.59375 15.296875 -30.550781 15.296875 -30.46875 C 15.296875 -30.226562 15.457031 -29.90625 15.78125 -29.5 C 16.101562 -29.101562 16.425781 -28.90625 16.75 -28.90625 C 17.382812 -28.90625 18.0625 -29.425781 18.78125 -30.46875 C 19.507812 -31.519531 20.253906 -32.742188 21.015625 -34.140625 C 21.773438 -35.546875 22.4375 -36.691406 23 -37.578125 Z M 23 -37.578125"/></g></g></g><g fill-opacity="1" fill="#ee6c4d"><g transform="translate(279.38982, 255.826267)"><g/></g></g><g fill-opacity="1" fill="#ee6c4d"><g transform="translate(300.349375, 255.826267)"><g/></g></g><g fill-opacity="1" fill="#ee6c4d"><g transform="translate(321.308931, 255.826267)"><g/></g></g><g fill-opacity="1" fill="#ee6c4d"><g transform="translate(342.268486, 255.826267)"><g/></g></g><g fill-opacity="1" fill="#ee6c4d"><g transform="translate(363.237476, 255.826267)"><g><path d="M 0 -6.75 C 0.644531 -9.5625 1.207031 -12.347656 1.6875 -15.109375 C 2.164062 -17.878906 2.6875 -20.710938 3.25 -23.609375 C 3.488281 -25.128906 3.664062 -26.914062 3.78125 -28.96875 C 3.90625 -31.019531 4.148438 -33.046875 4.515625 -35.046875 C 4.878906 -37.054688 5.5625 -38.722656 6.5625 -40.046875 C 7.570312 -41.367188 9.078125 -42.03125 11.078125 -42.03125 C 12.441406 -42.03125 13.585938 -41.546875 14.515625 -40.578125 C 15.441406 -39.617188 15.90625 -38.457031 15.90625 -37.09375 L 15.90625 -36.5 C 14.695312 -31.195312 13.445312 -25.875 12.15625 -20.53125 C 10.875 -15.195312 9.550781 -9.921875 8.1875 -4.703125 C 7.863281 -3.578125 7.179688 -2.648438 6.140625 -1.921875 C 5.097656 -1.203125 4.132812 -0.640625 3.25 -0.234375 C 2.6875 -1.046875 2.0625 -1.929688 1.375 -2.890625 C 0.695312 -3.859375 0.359375 -4.78125 0.359375 -5.65625 L 0.359375 -6.5 C 0.359375 -6.5 0.335938 -6.539062 0.296875 -6.625 C 0.253906 -6.707031 0.15625 -6.75 0 -6.75 Z M 11.203125 -58.65625 C 11.285156 -60.820312 11.765625 -62.367188 12.640625 -63.296875 C 13.523438 -64.222656 14.734375 -64.6875 16.265625 -64.6875 C 17.390625 -64.6875 18.332031 -64.441406 19.09375 -63.953125 C 19.851562 -63.472656 20.234375 -62.789062 20.234375 -61.90625 C 20.234375 -62.070312 19.992188 -61.613281 19.515625 -60.53125 C 19.035156 -59.445312 18.410156 -58.34375 17.640625 -57.21875 C 16.878906 -56.09375 15.976562 -55.53125 14.9375 -55.53125 C 14.613281 -55.53125 14.007812 -55.96875 13.125 -56.84375 C 12.238281 -57.726562 11.597656 -58.332031 11.203125 -58.65625 Z M 11.203125 -58.65625"/></g></g></g><g fill-opacity="1" fill="#ee6c4d"><g transform="translate(385.160682, 255.826267)"><g><path d="M 2.65625 -18.3125 L 2.65625 -20 C 2.65625 -22.726562 2.914062 -25.597656 3.4375 -28.609375 C 3.957031 -31.617188 4.71875 -34.445312 5.71875 -37.09375 C 6.726562 -39.75 7.972656 -41.921875 9.453125 -43.609375 C 10.941406 -45.296875 12.648438 -46.140625 14.578125 -46.140625 C 15.859375 -46.140625 17.039062 -45.554688 18.125 -44.390625 C 19.207031 -43.222656 20.269531 -42 21.3125 -40.71875 C 21.71875 -41.113281 22.097656 -41.53125 22.453125 -41.96875 C 22.816406 -42.414062 23.082031 -42.878906 23.25 -43.359375 C 25.09375 -48.578125 26.976562 -53.71875 28.90625 -58.78125 C 30.832031 -63.84375 33.039062 -69.785156 35.53125 -76.609375 C 36.332031 -78.617188 37.660156 -79.625 39.515625 -79.625 C 41.191406 -79.625 42.332031 -79.320312 42.9375 -78.71875 C 43.539062 -78.113281 43.84375 -77.410156 43.84375 -76.609375 C 43.84375 -76.203125 43.800781 -75.757812 43.71875 -75.28125 C 43.644531 -74.800781 43.566406 -74.359375 43.484375 -73.953125 C 42.765625 -70.660156 42.179688 -67.867188 41.734375 -65.578125 C 41.296875 -63.296875 40.851562 -61.007812 40.40625 -58.71875 C 39.96875 -56.425781 39.347656 -53.632812 38.546875 -50.34375 C 37.503906 -45.613281 36.28125 -40.914062 34.875 -36.25 C 33.46875 -31.59375 32.160156 -26.894531 30.953125 -22.15625 C 30.316406 -19.664062 29.695312 -16.796875 29.09375 -13.546875 C 28.488281 -10.296875 27.785156 -7.1875 26.984375 -4.21875 C 26.179688 -1.25 25.195312 1.21875 24.03125 3.1875 C 22.863281 5.15625 21.398438 6.140625 19.640625 6.140625 C 17.460938 6.140625 16.375 4.132812 16.375 0.125 C 16.375 -1.164062 16.453125 -2.453125 16.609375 -3.734375 C 16.773438 -5.015625 16.898438 -6.300781 16.984375 -7.59375 C 16.984375 -8.3125 16.941406 -8.988281 16.859375 -9.625 C 16.785156 -10.269531 16.664062 -10.957031 16.5 -11.6875 C 15.9375 -11.363281 15.289062 -11.097656 14.5625 -10.890625 C 13.84375 -10.691406 13.203125 -10.351562 12.640625 -9.875 C 12.003906 -9.226562 11.300781 -8.625 10.53125 -8.0625 C 9.769531 -7.507812 8.953125 -7.234375 8.078125 -7.234375 C 6.953125 -7.234375 5.96875 -7.753906 5.125 -8.796875 C 4.28125 -9.835938 3.613281 -11.019531 3.125 -12.34375 C 2.644531 -13.664062 2.40625 -14.726562 2.40625 -15.53125 C 2.40625 -16.175781 2.445312 -16.71875 2.53125 -17.15625 C 2.613281 -17.601562 2.65625 -17.988281 2.65625 -18.3125 Z M 6.75 -18.0625 C 7.144531 -17.257812 7.460938 -16.457031 7.703125 -15.65625 C 7.953125 -14.851562 8.234375 -14.375 8.546875 -14.21875 C 9.035156 -14.21875 9.597656 -14.375 10.234375 -14.6875 C 10.878906 -15.007812 11.441406 -15.332031 11.921875 -15.65625 C 12.242188 -15.820312 12.804688 -16.6875 13.609375 -18.25 C 14.410156 -19.8125 15.253906 -21.632812 16.140625 -23.71875 C 17.023438 -25.8125 17.785156 -27.738281 18.421875 -29.5 C 19.066406 -31.269531 19.390625 -32.476562 19.390625 -33.125 C 19.390625 -33.925781 19.007812 -34.785156 18.25 -35.703125 C 17.488281 -36.628906 16.644531 -37.414062 15.71875 -38.0625 C 14.789062 -38.707031 14.046875 -39.03125 13.484375 -39.03125 C 12.921875 -39.03125 12.316406 -38.242188 11.671875 -36.671875 C 11.035156 -35.109375 10.414062 -33.160156 9.8125 -30.828125 C 9.207031 -28.503906 8.644531 -26.175781 8.125 -23.84375 C 7.601562 -21.519531 7.144531 -19.59375 6.75 -18.0625 Z M 6.75 -18.0625"/></g></g></g><g fill-opacity="1" fill="#ee6c4d"><g transform="translate(428.284341, 255.826267)"><g><path d="M 2.40625 -12.53125 C 2.488281 -15.65625 2.910156 -19.1875 3.671875 -23.125 C 4.429688 -27.0625 5.535156 -30.851562 6.984375 -34.5 C 8.429688 -38.15625 10.257812 -41.164062 12.46875 -43.53125 C 14.675781 -45.90625 17.265625 -47.09375 20.234375 -47.09375 C 22.242188 -47.09375 23.96875 -46.488281 25.40625 -45.28125 C 26.851562 -44.082031 27.578125 -42.398438 27.578125 -40.234375 C 27.578125 -38.867188 27.195312 -37.34375 26.4375 -35.65625 C 25.675781 -33.96875 24.789062 -32.300781 23.78125 -30.65625 C 22.78125 -29.007812 21.878906 -27.546875 21.078125 -26.265625 C 20.117188 -24.734375 18.9375 -23.40625 17.53125 -22.28125 C 16.125 -21.15625 14.859375 -19.96875 13.734375 -18.71875 C 12.609375 -17.476562 12.046875 -15.816406 12.046875 -13.734375 C 12.046875 -12.609375 12.144531 -11.382812 12.34375 -10.0625 C 12.539062 -8.738281 13.644531 -8.078125 15.65625 -8.078125 C 16.863281 -8.078125 18.03125 -8.296875 19.15625 -8.734375 C 20.28125 -9.171875 21.441406 -9.390625 22.640625 -9.390625 C 24.003906 -9.390625 24.6875 -8.789062 24.6875 -7.59375 C 24.6875 -5.976562 24.003906 -4.488281 22.640625 -3.125 C 21.273438 -1.757812 19.648438 -0.695312 17.765625 0.0625 C 15.878906 0.820312 14.171875 1.203125 12.640625 1.203125 C 9.597656 1.203125 7.375 0.441406 5.96875 -1.078125 C 4.5625 -2.609375 3.65625 -4.4375 3.25 -6.5625 C 2.851562 -8.6875 2.570312 -10.675781 2.40625 -12.53125 Z M 23 -37.578125 C 22.601562 -38.140625 22.222656 -38.742188 21.859375 -39.390625 C 21.492188 -40.035156 21.113281 -40.359375 20.71875 -40.359375 C 19.832031 -40.359375 19.046875 -39.753906 18.359375 -38.546875 C 17.679688 -37.335938 17.101562 -35.96875 16.625 -34.4375 C 16.144531 -32.914062 15.742188 -31.675781 15.421875 -30.71875 C 15.421875 -30.632812 15.398438 -30.59375 15.359375 -30.59375 C 15.316406 -30.59375 15.296875 -30.550781 15.296875 -30.46875 C 15.296875 -30.226562 15.457031 -29.90625 15.78125 -29.5 C 16.101562 -29.101562 16.425781 -28.90625 16.75 -28.90625 C 17.382812 -28.90625 18.0625 -29.425781 18.78125 -30.46875 C 19.507812 -31.519531 20.253906 -32.742188 21.015625 -34.140625 C 21.773438 -35.546875 22.4375 -36.691406 23 -37.578125 Z M 23 -37.578125"/></g></g></g><g transform="matrix(1, 0, 0, 1, 110, 153)"><g clip-path="url(#f6ef6a6438)"><g fill-opacity="1" fill="#ee6c4d"><g transform="translate(0.921196, 113.95491)"><g><path d="M 12.28125 -32.1875 C 15.382812 -31.757812 17.863281 -31.546875 19.71875 -31.546875 C 21.570312 -31.546875 24.328125 -31.671875 27.984375 -31.921875 C 31.648438 -32.179688 34.34375 -32.3125 36.0625 -32.3125 C 39.851562 -32.3125 42.585938 -31.664062 44.265625 -30.375 C 45.953125 -29.082031 46.191406 -26.972656 44.984375 -24.046875 C 44.296875 -22.578125 43.128906 -21.148438 41.484375 -19.765625 C 39.847656 -18.390625 38.234375 -17.3125 36.640625 -16.53125 C 35.046875 -15.757812 32.976562 -14.8125 30.4375 -13.6875 C 27.894531 -12.570312 26.066406 -11.710938 24.953125 -11.109375 C 23.140625 -10.160156 21.539062 -9.664062 20.15625 -9.625 C 18.78125 -9.582031 17.1875 -9.992188 15.375 -10.859375 C 15.550781 -11.460938 16.003906 -12.191406 16.734375 -13.046875 C 17.472656 -13.910156 18.378906 -14.773438 19.453125 -15.640625 C 20.523438 -16.503906 21.6875 -17.382812 22.9375 -18.28125 C 24.1875 -19.1875 25.414062 -20.023438 26.625 -20.796875 C 27.832031 -21.578125 28.910156 -22.269531 29.859375 -22.875 C 30.804688 -23.476562 31.535156 -23.992188 32.046875 -24.421875 C 32.566406 -24.859375 32.785156 -25.078125 32.703125 -25.078125 C 31.234375 -25.421875 27.59375 -25.203125 21.78125 -24.421875 C 15.96875 -23.648438 12.628906 -23.265625 11.765625 -23.265625 C 8.234375 -23.265625 5.671875 -24.019531 4.078125 -25.53125 C 2.484375 -27.039062 2.160156 -29.257812 3.109375 -32.1875 C 3.878906 -34.851562 5.644531 -37.394531 8.40625 -39.8125 C 8.664062 -40.15625 11.378906 -41.921875 16.546875 -45.109375 C 21.710938 -48.296875 25.847656 -50.753906 28.953125 -52.484375 C 30.765625 -53.515625 32.25 -54.242188 33.40625 -54.671875 C 34.570312 -55.109375 35.800781 -55.28125 37.09375 -55.1875 C 38.382812 -55.101562 39.632812 -54.585938 40.84375 -53.640625 C 42.832031 -52.179688 43.609375 -50.800781 43.171875 -49.5 C 42.742188 -48.207031 41.148438 -47.21875 38.390625 -46.53125 C 28.828125 -43.863281 20.125 -39.082031 12.28125 -32.1875 Z M 12.28125 -32.1875"/></g></g></g></g></g><g transform="matrix(1, 0, 0, 1, 313, 153)"><g clip-path="url(#9e7c94af69)"><g fill-opacity="1" fill="#ee6c4d"><g transform="translate(0.840241, 113.95491)"><g><path d="M 12.28125 -32.1875 C 15.382812 -31.757812 17.863281 -31.546875 19.71875 -31.546875 C 21.570312 -31.546875 24.328125 -31.671875 27.984375 -31.921875 C 31.648438 -32.179688 34.34375 -32.3125 36.0625 -32.3125 C 39.851562 -32.3125 42.585938 -31.664062 44.265625 -30.375 C 45.953125 -29.082031 46.191406 -26.972656 44.984375 -24.046875 C 44.296875 -22.578125 43.128906 -21.148438 41.484375 -19.765625 C 39.847656 -18.390625 38.234375 -17.3125 36.640625 -16.53125 C 35.046875 -15.757812 32.976562 -14.8125 30.4375 -13.6875 C 27.894531 -12.570312 26.066406 -11.710938 24.953125 -11.109375 C 23.140625 -10.160156 21.539062 -9.664062 20.15625 -9.625 C 18.78125 -9.582031 17.1875 -9.992188 15.375 -10.859375 C 15.550781 -11.460938 16.003906 -12.191406 16.734375 -13.046875 C 17.472656 -13.910156 18.378906 -14.773438 19.453125 -15.640625 C 20.523438 -16.503906 21.6875 -17.382812 22.9375 -18.28125 C 24.1875 -19.1875 25.414062 -20.023438 26.625 -20.796875 C 27.832031 -21.578125 28.910156 -22.269531 29.859375 -22.875 C 30.804688 -23.476562 31.535156 -23.992188 32.046875 -24.421875 C 32.566406 -24.859375 32.785156 -25.078125 32.703125 -25.078125 C 31.234375 -25.421875 27.59375 -25.203125 21.78125 -24.421875 C 15.96875 -23.648438 12.628906 -23.265625 11.765625 -23.265625 C 8.234375 -23.265625 5.671875 -24.019531 4.078125 -25.53125 C 2.484375 -27.039062 2.160156 -29.257812 3.109375 -32.1875 C 3.878906 -34.851562 5.644531 -37.394531 8.40625 -39.8125 C 8.664062 -40.15625 11.378906 -41.921875 16.546875 -45.109375 C 21.710938 -48.296875 25.847656 -50.753906 28.953125 -52.484375 C 30.765625 -53.515625 32.25 -54.242188 33.40625 -54.671875 C 34.570312 -55.109375 35.800781 -55.28125 37.09375 -55.1875 C 38.382812 -55.101562 39.632812 -54.585938 40.84375 -53.640625 C 42.832031 -52.179688 43.609375 -50.800781 43.171875 -49.5 C 42.742188 -48.207031 41.148438 -47.21875 38.390625 -46.53125 C 28.828125 -43.863281 20.125 -39.082031 12.28125 -32.1875 Z M 12.28125 -32.1875"/></g></g></g></g></g><g fill-opacity="1" fill="#ee6c4d"><g transform="translate(282.885749, 249.360593)"><g><path d="M 37.859375 -31.65625 C 37.753906 -31.257812 37.488281 -30.945312 37.0625 -30.71875 C 36.632812 -30.488281 36.25 -30.289062 35.90625 -30.125 C 35.96875 -30.007812 36.039062 -29.894531 36.125 -29.78125 C 36.207031 -29.664062 36.25 -29.550781 36.25 -29.4375 C 36.25 -28.875 35.894531 -28.40625 35.1875 -28.03125 C 34.476562 -27.664062 33.722656 -27.34375 32.921875 -27.0625 C 32.128906 -26.78125 31.535156 -26.523438 31.140625 -26.296875 C 30.296875 -25.097656 29.019531 -24.257812 27.3125 -23.78125 C 25.613281 -23.300781 24 -22.804688 22.46875 -22.296875 C 21.894531 -22.066406 21.320312 -21.820312 20.75 -21.5625 C 20.1875 -21.3125 19.625 -21.046875 19.0625 -20.765625 C 18.4375 -19.171875 17.625 -17.492188 16.625 -15.734375 C 15.632812 -13.984375 14.859375 -12.253906 14.296875 -10.546875 C 14.015625 -9.640625 13.53125 -8.460938 12.84375 -7.015625 C 12.164062 -5.566406 11.539062 -4.160156 10.96875 -2.796875 C 10.40625 -1.441406 10.125 -0.367188 10.125 0.421875 C 10.125 0.878906 10.125 1.375 10.125 1.90625 C 10.125 2.445312 9.984375 2.914062 9.703125 3.3125 C 9.703125 3.257812 9.726562 3.207031 9.78125 3.15625 C 9.5625 3.375 9.320312 3.863281 9.0625 4.625 C 8.800781 5.394531 8.53125 6.21875 8.25 7.09375 C 7.96875 7.976562 7.65625 8.734375 7.3125 9.359375 C 6.976562 9.984375 6.582031 10.296875 6.125 10.296875 C 5.101562 10.296875 4.4375 9.953125 4.125 9.265625 C 3.8125 8.585938 3.65625 7.804688 3.65625 6.921875 C 3.65625 6.046875 3.65625 5.269531 3.65625 4.59375 C 3.65625 4.195312 3.695312 3.800781 3.78125 3.40625 C 3.875 3.007812 3.921875 2.582031 3.921875 2.125 C 3.921875 1.84375 3.847656 1.601562 3.703125 1.40625 C 3.554688 1.207031 3.484375 0.910156 3.484375 0.515625 C 3.484375 0.117188 3.539062 -0.257812 3.65625 -0.625 C 3.769531 -1 3.828125 -1.359375 3.828125 -1.703125 C 3.828125 -1.929688 3.796875 -2.144531 3.734375 -2.34375 C 3.679688 -2.539062 3.65625 -2.695312 3.65625 -2.8125 C 3.65625 -5.082031 3.96875 -7.289062 4.59375 -9.4375 C 5.21875 -11.59375 5.941406 -13.675781 6.765625 -15.6875 C 7.585938 -17.707031 8.28125 -19.625 8.84375 -21.4375 C 8.726562 -21.664062 8.585938 -21.867188 8.421875 -22.046875 C 8.304688 -22.210938 7.976562 -22.578125 7.4375 -23.140625 C 6.90625 -23.710938 6.3125 -24.335938 5.65625 -25.015625 C 5.007812 -25.691406 4.441406 -26.34375 3.953125 -26.96875 C 3.472656 -27.59375 3.234375 -28.019531 3.234375 -28.25 C 3.234375 -29.382812 3.585938 -30.132812 4.296875 -30.5 C 5.003906 -30.875 5.726562 -31.0625 6.46875 -31.0625 C 7.207031 -31.0625 7.578125 -31.03125 7.578125 -30.96875 C 8.253906 -31.03125 8.914062 -31.003906 9.5625 -30.890625 C 10.21875 -30.773438 10.914062 -30.71875 11.65625 -30.71875 C 12.164062 -30.71875 12.675781 -31.195312 13.1875 -32.15625 C 13.695312 -33.125 14.175781 -34.316406 14.625 -35.734375 C 15.082031 -37.148438 15.535156 -38.550781 15.984375 -39.9375 C 16.441406 -41.332031 16.898438 -42.484375 17.359375 -43.390625 C 17.867188 -44.191406 18.222656 -45.210938 18.421875 -46.453125 C 18.617188 -47.703125 18.882812 -48.804688 19.21875 -49.765625 C 19.5625 -50.734375 20.191406 -51.21875 21.109375 -51.21875 C 21.503906 -51.21875 21.882812 -51.085938 22.25 -50.828125 C 22.625 -50.578125 22.953125 -50.453125 23.234375 -50.453125 C 23.460938 -50.453125 23.675781 -50.476562 23.875 -50.53125 C 24.070312 -50.59375 24.253906 -50.625 24.421875 -50.625 C 25.046875 -50.625 25.769531 -50.492188 26.59375 -50.234375 C 27.414062 -49.984375 28.140625 -49.601562 28.765625 -49.09375 C 29.390625 -48.582031 29.703125 -47.988281 29.703125 -47.3125 C 29.703125 -47.257812 29.554688 -46.890625 29.265625 -46.203125 C 28.984375 -45.523438 28.65625 -44.757812 28.28125 -43.90625 C 27.914062 -43.050781 27.566406 -42.285156 27.234375 -41.609375 C 26.492188 -39.960938 25.835938 -38.300781 25.265625 -36.625 C 24.703125 -34.957031 24.082031 -33.300781 23.40625 -31.65625 C 23.738281 -31.59375 24.078125 -31.5625 24.421875 -31.5625 C 24.765625 -31.5625 25.101562 -31.5625 25.4375 -31.5625 C 27.476562 -31.5625 29.476562 -31.859375 31.4375 -32.453125 C 33.394531 -33.054688 35.054688 -33.359375 36.421875 -33.359375 C 36.703125 -33.359375 36.96875 -33.144531 37.21875 -32.71875 C 37.476562 -32.289062 37.691406 -31.9375 37.859375 -31.65625 Z M 37.859375 -31.65625"/></g></g></g></svg>