<svg xmlns="http://www.w3.org/2000/svg" xmlns:xlink="http://www.w3.org/1999/xlink" zoomAndPan="magnify" preserveAspectRatio="xMidYMid meet" version="1.0" viewBox="61.19 261.49 444.48 148.16"><defs><g/><clipPath id="53566e2a4d"><rect x="0" width="415" y="0" height="258"/></clipPath><clipPath id="fd74746865"><path d="M 388 280 L 418 280 L 418 307 L 388 307 Z M 388 280 " clip-rule="nonzero"/></clipPath><clipPath id="1740a3956d"><path d="M 409.246094 270.734375 L 426.097656 290.859375 L 396.769531 315.417969 L 379.917969 295.292969 Z M 409.246094 270.734375 " clip-rule="nonzero"/></clipPath><clipPath id="262547c0ea"><path d="M 409.246094 270.734375 L 426.097656 290.859375 L 396.769531 315.417969 L 379.917969 295.292969 Z M 409.246094 270.734375 " clip-rule="nonzero"/></clipPath><clipPath id="4f7e8efa0c"><rect x="0" width="84" y="0" height="176"/></clipPath><clipPath id="5a762dff12"><rect x="0" width="84" y="0" height="176"/></clipPath><clipPath id="865a845969"><rect x="0" width="79" y="0" height="158"/></clipPath></defs><g transform="matrix(1, 0, 0, 1, 109, 216)"><g clip-path="url(#53566e2a4d)"><g fill="#f4f1de" fill-opacity="1"><g transform="translate(16.533447, 186.645779)"><g><path d="M 59.375 -77.546875 C 59.601562 -75.359375 59.910156 -73.175781 60.296875 -71 C 60.691406 -68.832031 61.003906 -66.707031 61.234375 -64.625 C 61.703125 -60.238281 61.582031 -55.425781 60.875 -50.1875 C 60.175781 -44.945312 59.210938 -39.703125 57.984375 -34.453125 C 56.753906 -29.210938 55.601562 -24.210938 54.53125 -19.453125 C 54.226562 -17.410156 53.425781 -15.289062 52.125 -13.09375 C 50.832031 -10.90625 49.347656 -9.007812 47.671875 -7.40625 C 46.003906 -5.800781 44.441406 -4.921875 42.984375 -4.765625 C 41.210938 -4.578125 39.566406 -5.191406 38.046875 -6.609375 C 36.523438 -8.023438 35.1875 -9.910156 34.03125 -12.265625 C 32.882812 -14.628906 31.9375 -17.085938 31.1875 -19.640625 C 30.4375 -22.191406 29.953125 -24.460938 29.734375 -26.453125 C 29.578125 -27.898438 29.492188 -29.414062 29.484375 -31 C 29.484375 -32.582031 29.445312 -34.210938 29.375 -35.890625 C 29.289062 -36.628906 29.101562 -37.347656 28.8125 -38.046875 C 28.519531 -38.753906 28.234375 -39.457031 27.953125 -40.15625 C 27.273438 -39.675781 26.503906 -39.253906 25.640625 -38.890625 C 24.785156 -38.535156 24.1875 -37.96875 23.84375 -37.1875 C 22.613281 -34.957031 21.335938 -32.375 20.015625 -29.4375 C 18.691406 -26.5 17.304688 -23.628906 15.859375 -20.828125 C 14.421875 -18.035156 12.957031 -15.691406 11.46875 -13.796875 C 9.988281 -11.898438 8.414062 -10.863281 6.75 -10.6875 C 6.644531 -10.675781 6.5625 -10.691406 6.5 -10.734375 C 6.445312 -10.785156 6.421875 -10.8125 6.421875 -10.8125 C 4.421875 -11.757812 3.097656 -13.015625 2.453125 -14.578125 C 1.816406 -16.148438 1.410156 -17.769531 1.234375 -19.4375 C 0.671875 -23.695312 0.34375 -27.984375 0.25 -32.296875 C 0.15625 -36.609375 -0.117188 -40.90625 -0.578125 -45.1875 C -1.035156 -49.445312 -0.835938 -52.488281 0.015625 -54.3125 C 0.867188 -56.144531 2.695312 -57.320312 5.5 -57.84375 C 7.582031 -58.070312 9.054688 -57.597656 9.921875 -56.421875 C 10.785156 -55.253906 11.3125 -53.785156 11.5 -52.015625 C 11.664062 -50.441406 11.707031 -48.832031 11.625 -47.1875 C 11.539062 -45.550781 11.582031 -43.953125 11.75 -42.390625 C 11.8125 -41.765625 12.03125 -41.179688 12.40625 -40.640625 C 12.78125 -40.097656 13.046875 -39.566406 13.203125 -39.046875 C 13.691406 -39.316406 14.21875 -39.535156 14.78125 -39.703125 C 15.351562 -39.867188 15.78125 -40.128906 16.0625 -40.484375 C 17.726562 -42.660156 19.476562 -45.242188 21.3125 -48.234375 C 23.15625 -51.234375 25.03125 -53.910156 26.9375 -56.265625 C 28.851562 -58.628906 30.644531 -59.898438 32.3125 -60.078125 C 34.1875 -60.273438 35.546875 -59.84375 36.390625 -58.78125 C 37.242188 -57.71875 37.726562 -56.660156 37.84375 -55.609375 C 37.957031 -54.578125 37.941406 -53.5 37.796875 -52.375 C 37.648438 -51.25 37.523438 -50.210938 37.421875 -49.265625 C 37.035156 -45.941406 36.757812 -42.582031 36.59375 -39.1875 C 36.425781 -35.800781 36.519531 -32.441406 36.875 -29.109375 C 37.15625 -26.503906 37.597656 -24.097656 38.203125 -21.890625 C 38.816406 -19.691406 40.171875 -17.171875 42.265625 -14.328125 C 43.035156 -15.148438 43.925781 -15.957031 44.9375 -16.75 C 45.957031 -17.550781 46.578125 -18.390625 46.796875 -19.265625 C 48.835938 -28.867188 50.722656 -38.554688 52.453125 -48.328125 C 54.191406 -58.109375 56.023438 -67.847656 57.953125 -77.546875 C 58.160156 -77.566406 58.394531 -77.566406 58.65625 -77.546875 C 58.925781 -77.523438 59.164062 -77.523438 59.375 -77.546875 Z M 59.375 -77.546875 "/></g></g></g><g fill="#f4f1de" fill-opacity="1"><g transform="translate(89.247187, 178.841489)"><g><path d="M 1.375 -16.59375 C 1.039062 -20.675781 1.097656 -25.320312 1.546875 -30.53125 C 1.992188 -35.75 2.898438 -40.832031 4.265625 -45.78125 C 5.628906 -50.726562 7.578125 -54.890625 10.109375 -58.265625 C 12.648438 -61.640625 15.847656 -63.53125 19.703125 -63.9375 C 22.316406 -64.21875 24.644531 -63.675781 26.6875 -62.3125 C 28.726562 -60.957031 29.898438 -58.878906 30.203125 -56.078125 C 30.398438 -54.304688 30.117188 -52.269531 29.359375 -49.96875 C 28.609375 -47.675781 27.691406 -45.390625 26.609375 -43.109375 C 25.535156 -40.835938 24.566406 -38.804688 23.703125 -37.015625 C 22.671875 -34.910156 21.316406 -33.023438 19.640625 -31.359375 C 17.972656 -29.703125 16.5 -27.988281 15.21875 -26.21875 C 13.9375 -24.445312 13.441406 -22.203125 13.734375 -19.484375 C 13.890625 -18.035156 14.1875 -16.460938 14.625 -14.765625 C 15.070312 -13.078125 16.597656 -12.375 19.203125 -12.65625 C 20.765625 -12.820312 22.242188 -13.269531 23.640625 -14 C 25.035156 -14.738281 26.515625 -15.191406 28.078125 -15.359375 C 29.847656 -15.546875 30.816406 -14.851562 30.984375 -13.28125 C 31.210938 -11.207031 30.535156 -9.1875 28.953125 -7.21875 C 27.367188 -5.257812 25.40625 -3.648438 23.0625 -2.390625 C 20.726562 -1.140625 18.570312 -0.410156 16.59375 -0.203125 C 12.625 0.222656 9.617188 -0.453125 7.578125 -2.234375 C 5.546875 -4.015625 4.117188 -6.257812 3.296875 -8.96875 C 2.484375 -11.675781 1.84375 -14.21875 1.375 -16.59375 Z M 24.625 -51.984375 C 24.019531 -52.671875 23.441406 -53.40625 22.890625 -54.1875 C 22.335938 -54.96875 21.796875 -55.332031 21.265625 -55.28125 C 20.117188 -55.15625 19.1875 -54.257812 18.46875 -52.59375 C 17.75 -50.9375 17.179688 -49.082031 16.765625 -47.03125 C 16.359375 -44.988281 16.015625 -43.316406 15.734375 -42.015625 C 15.742188 -41.910156 15.722656 -41.851562 15.671875 -41.84375 C 15.617188 -41.84375 15.597656 -41.785156 15.609375 -41.671875 C 15.648438 -41.367188 15.90625 -40.976562 16.375 -40.5 C 16.84375 -40.03125 17.285156 -39.816406 17.703125 -39.859375 C 18.546875 -39.953125 19.359375 -40.722656 20.140625 -42.171875 C 20.929688 -43.628906 21.722656 -45.328125 22.515625 -47.265625 C 23.316406 -49.203125 24.019531 -50.773438 24.625 -51.984375 Z M 24.625 -51.984375 "/></g></g></g><g fill="#f4f1de" fill-opacity="1"><g transform="translate(130.37346, 174.427449)"><g><path d="M 1.375 -16.59375 C 1.039062 -20.675781 1.097656 -25.320312 1.546875 -30.53125 C 1.992188 -35.75 2.898438 -40.832031 4.265625 -45.78125 C 5.628906 -50.726562 7.578125 -54.890625 10.109375 -58.265625 C 12.648438 -61.640625 15.847656 -63.53125 19.703125 -63.9375 C 22.316406 -64.21875 24.644531 -63.675781 26.6875 -62.3125 C 28.726562 -60.957031 29.898438 -58.878906 30.203125 -56.078125 C 30.398438 -54.304688 30.117188 -52.269531 29.359375 -49.96875 C 28.609375 -47.675781 27.691406 -45.390625 26.609375 -43.109375 C 25.535156 -40.835938 24.566406 -38.804688 23.703125 -37.015625 C 22.671875 -34.910156 21.316406 -33.023438 19.640625 -31.359375 C 17.972656 -29.703125 16.5 -27.988281 15.21875 -26.21875 C 13.9375 -24.445312 13.441406 -22.203125 13.734375 -19.484375 C 13.890625 -18.035156 14.1875 -16.460938 14.625 -14.765625 C 15.070312 -13.078125 16.597656 -12.375 19.203125 -12.65625 C 20.765625 -12.820312 22.242188 -13.269531 23.640625 -14 C 25.035156 -14.738281 26.515625 -15.191406 28.078125 -15.359375 C 29.847656 -15.546875 30.816406 -14.851562 30.984375 -13.28125 C 31.210938 -11.207031 30.535156 -9.1875 28.953125 -7.21875 C 27.367188 -5.257812 25.40625 -3.648438 23.0625 -2.390625 C 20.726562 -1.140625 18.570312 -0.410156 16.59375 -0.203125 C 12.625 0.222656 9.617188 -0.453125 7.578125 -2.234375 C 5.546875 -4.015625 4.117188 -6.257812 3.296875 -8.96875 C 2.484375 -11.675781 1.84375 -14.21875 1.375 -16.59375 Z M 24.625 -51.984375 C 24.019531 -52.671875 23.441406 -53.40625 22.890625 -54.1875 C 22.335938 -54.96875 21.796875 -55.332031 21.265625 -55.28125 C 20.117188 -55.15625 19.1875 -54.257812 18.46875 -52.59375 C 17.75 -50.9375 17.179688 -49.082031 16.765625 -47.03125 C 16.359375 -44.988281 16.015625 -43.316406 15.734375 -42.015625 C 15.742188 -41.910156 15.722656 -41.851562 15.671875 -41.84375 C 15.617188 -41.84375 15.597656 -41.785156 15.609375 -41.671875 C 15.648438 -41.367188 15.90625 -40.976562 16.375 -40.5 C 16.84375 -40.03125 17.285156 -39.816406 17.703125 -39.859375 C 18.546875 -39.953125 19.359375 -40.722656 20.140625 -42.171875 C 20.929688 -43.628906 21.722656 -45.328125 22.515625 -47.265625 C 23.316406 -49.203125 24.019531 -50.773438 24.625 -51.984375 Z M 24.625 -51.984375 "/></g></g></g><g fill="#f4f1de" fill-opacity="1"><g transform="translate(171.507354, 170.012591)"><g/></g></g><g fill="#f4f1de" fill-opacity="1"><g transform="translate(198.716384, 167.092274)"><g/></g></g><g fill="#f4f1de" fill-opacity="1"><g transform="translate(225.925415, 164.171957)"><g/></g></g><g fill="#f4f1de" fill-opacity="1"><g transform="translate(253.134446, 161.25164)"><g/></g></g><g fill="#f4f1de" fill-opacity="1"><g transform="translate(280.355724, 158.330008)"><g><path d="M -0.9375 -8.765625 C -0.488281 -12.503906 -0.148438 -16.203125 0.078125 -19.859375 C 0.316406 -23.515625 0.597656 -27.265625 0.921875 -31.109375 C 1.023438 -33.117188 1.007812 -35.457031 0.875 -38.125 C 0.75 -40.800781 0.785156 -43.46875 0.984375 -46.125 C 1.179688 -48.789062 1.832031 -51.050781 2.9375 -52.90625 C 4.050781 -54.769531 5.914062 -55.84375 8.53125 -56.125 C 10.300781 -56.3125 11.851562 -55.84375 13.1875 -54.71875 C 14.519531 -53.59375 15.28125 -52.144531 15.46875 -50.375 L 15.5625 -49.609375 C 14.738281 -42.546875 13.863281 -35.457031 12.9375 -28.34375 C 12.007812 -21.238281 11.019531 -14.207031 9.96875 -7.25 C 9.707031 -5.75 8.953125 -4.453125 7.703125 -3.359375 C 6.453125 -2.273438 5.28125 -1.410156 4.1875 -0.765625 C 3.34375 -1.722656 2.410156 -2.78125 1.390625 -3.9375 C 0.367188 -5.09375 -0.195312 -6.242188 -0.3125 -7.390625 L -0.4375 -8.5 C -0.4375 -8.5 -0.46875 -8.546875 -0.53125 -8.640625 C -0.59375 -8.742188 -0.726562 -8.785156 -0.9375 -8.765625 Z M 6.375 -77.71875 C 6.175781 -80.53125 6.582031 -82.597656 7.59375 -83.921875 C 8.613281 -85.253906 10.113281 -86.023438 12.09375 -86.234375 C 13.550781 -86.390625 14.804688 -86.207031 15.859375 -85.6875 C 16.921875 -85.164062 17.515625 -84.328125 17.640625 -83.171875 C 17.617188 -83.390625 17.367188 -82.765625 16.890625 -81.296875 C 16.421875 -79.828125 15.769531 -78.304688 14.9375 -76.734375 C 14.101562 -75.160156 13.007812 -74.300781 11.65625 -74.15625 C 11.238281 -74.113281 10.390625 -74.601562 9.109375 -75.625 C 7.835938 -76.644531 6.925781 -77.34375 6.375 -77.71875 Z M 6.375 -77.71875 "/></g></g></g><g fill="#f4f1de" fill-opacity="1"><g transform="translate(308.815735, 155.275425)"><g><path d="M 0.890625 -24.140625 L 0.65625 -26.328125 C 0.269531 -29.867188 0.207031 -33.628906 0.46875 -37.609375 C 0.726562 -41.597656 1.328125 -45.378906 2.265625 -48.953125 C 3.203125 -52.523438 4.515625 -55.507812 6.203125 -57.90625 C 7.890625 -60.3125 9.988281 -61.648438 12.5 -61.921875 C 14.164062 -62.097656 15.785156 -61.503906 17.359375 -60.140625 C 18.929688 -58.785156 20.484375 -57.347656 22.015625 -55.828125 C 22.484375 -56.390625 22.914062 -56.984375 23.3125 -57.609375 C 23.71875 -58.242188 23.992188 -58.878906 24.140625 -59.515625 C 25.816406 -66.566406 27.550781 -73.507812 29.34375 -80.34375 C 31.132812 -87.175781 33.171875 -95.191406 35.453125 -104.390625 C 36.210938 -107.117188 37.789062 -108.609375 40.1875 -108.859375 C 42.382812 -109.097656 43.914062 -108.867188 44.78125 -108.171875 C 45.644531 -107.472656 46.132812 -106.597656 46.25 -105.546875 C 46.300781 -105.035156 46.304688 -104.457031 46.265625 -103.8125 C 46.234375 -103.175781 46.191406 -102.597656 46.140625 -102.078125 C 45.671875 -97.691406 45.304688 -93.984375 45.046875 -90.953125 C 44.785156 -87.921875 44.523438 -84.890625 44.265625 -81.859375 C 44.015625 -78.828125 43.601562 -75.117188 43.03125 -70.734375 C 42.320312 -64.429688 41.378906 -58.160156 40.203125 -51.921875 C 39.035156 -45.679688 38 -39.398438 37.09375 -33.078125 C 36.613281 -29.753906 36.207031 -25.941406 35.875 -21.640625 C 35.550781 -17.335938 35.070312 -13.203125 34.4375 -9.234375 C 33.8125 -5.265625 32.878906 -1.925781 31.640625 0.78125 C 30.398438 3.5 28.640625 4.984375 26.359375 5.234375 C 23.535156 5.535156 21.84375 3.082031 21.28125 -2.125 C 21.101562 -3.789062 21.03125 -5.46875 21.0625 -7.15625 C 21.09375 -8.84375 21.066406 -10.523438 20.984375 -12.203125 C 20.890625 -13.148438 20.742188 -14.035156 20.546875 -14.859375 C 20.347656 -15.679688 20.097656 -16.546875 19.796875 -17.453125 C 19.109375 -16.972656 18.304688 -16.550781 17.390625 -16.1875 C 16.484375 -15.820312 15.703125 -15.285156 15.046875 -14.578125 C 14.296875 -13.660156 13.46875 -12.785156 12.5625 -11.953125 C 11.65625 -11.117188 10.625 -10.640625 9.46875 -10.515625 C 8.007812 -10.359375 6.660156 -10.894531 5.421875 -12.125 C 4.179688 -13.363281 3.15625 -14.804688 2.34375 -16.453125 C 1.53125 -18.109375 1.066406 -19.457031 0.953125 -20.5 C 0.867188 -21.332031 0.847656 -22.039062 0.890625 -22.625 C 0.929688 -23.21875 0.929688 -23.722656 0.890625 -24.140625 Z M 6.25 -24.390625 C 6.875 -23.410156 7.394531 -22.414062 7.8125 -21.40625 C 8.238281 -20.394531 8.675781 -19.804688 9.125 -19.640625 C 9.75 -19.710938 10.457031 -20 11.25 -20.5 C 12.039062 -21.007812 12.71875 -21.503906 13.28125 -21.984375 C 13.6875 -22.242188 14.300781 -23.441406 15.125 -25.578125 C 15.945312 -27.722656 16.785156 -30.210938 17.640625 -33.046875 C 18.503906 -35.878906 19.226562 -38.488281 19.8125 -40.875 C 20.394531 -43.257812 20.644531 -44.867188 20.5625 -45.703125 C 20.445312 -46.753906 19.828125 -47.820312 18.703125 -48.90625 C 17.585938 -49.988281 16.382812 -50.882812 15.09375 -51.59375 C 13.8125 -52.300781 12.804688 -52.613281 12.078125 -52.53125 C 11.347656 -52.457031 10.675781 -51.363281 10.0625 -49.25 C 9.445312 -47.132812 8.910156 -44.519531 8.453125 -41.40625 C 7.992188 -38.289062 7.582031 -35.1875 7.21875 -32.09375 C 6.863281 -29 6.539062 -26.429688 6.25 -24.390625 Z M 6.25 -24.390625 "/></g></g></g><g fill="#f4f1de" fill-opacity="1"><g transform="translate(364.797503, 149.26696)"><g><path d="M 1.375 -16.59375 C 1.039062 -20.675781 1.097656 -25.320312 1.546875 -30.53125 C 1.992188 -35.75 2.898438 -40.832031 4.265625 -45.78125 C 5.628906 -50.726562 7.578125 -54.890625 10.109375 -58.265625 C 12.648438 -61.640625 15.847656 -63.53125 19.703125 -63.9375 C 22.316406 -64.21875 24.644531 -63.675781 26.6875 -62.3125 C 28.726562 -60.957031 29.898438 -58.878906 30.203125 -56.078125 C 30.398438 -54.304688 30.117188 -52.269531 29.359375 -49.96875 C 28.609375 -47.675781 27.691406 -45.390625 26.609375 -43.109375 C 25.535156 -40.835938 24.566406 -38.804688 23.703125 -37.015625 C 22.671875 -34.910156 21.316406 -33.023438 19.640625 -31.359375 C 17.972656 -29.703125 16.5 -27.988281 15.21875 -26.21875 C 13.9375 -24.445312 13.441406 -22.203125 13.734375 -19.484375 C 13.890625 -18.035156 14.1875 -16.460938 14.625 -14.765625 C 15.070312 -13.078125 16.597656 -12.375 19.203125 -12.65625 C 20.765625 -12.820312 22.242188 -13.269531 23.640625 -14 C 25.035156 -14.738281 26.515625 -15.191406 28.078125 -15.359375 C 29.847656 -15.546875 30.816406 -14.851562 30.984375 -13.28125 C 31.210938 -11.207031 30.535156 -9.1875 28.953125 -7.21875 C 27.367188 -5.257812 25.40625 -3.648438 23.0625 -2.390625 C 20.726562 -1.140625 18.570312 -0.410156 16.59375 -0.203125 C 12.625 0.222656 9.617188 -0.453125 7.578125 -2.234375 C 5.546875 -4.015625 4.117188 -6.257812 3.296875 -8.96875 C 2.484375 -11.675781 1.84375 -14.21875 1.375 -16.59375 Z M 24.625 -51.984375 C 24.019531 -52.671875 23.441406 -53.40625 22.890625 -54.1875 C 22.335938 -54.96875 21.796875 -55.332031 21.265625 -55.28125 C 20.117188 -55.15625 19.1875 -54.257812 18.46875 -52.59375 C 17.75 -50.9375 17.179688 -49.082031 16.765625 -47.03125 C 16.359375 -44.988281 16.015625 -43.316406 15.734375 -42.015625 C 15.742188 -41.910156 15.722656 -41.851562 15.671875 -41.84375 C 15.617188 -41.84375 15.597656 -41.785156 15.609375 -41.671875 C 15.648438 -41.367188 15.90625 -40.976562 16.375 -40.5 C 16.84375 -40.03125 17.285156 -39.816406 17.703125 -39.859375 C 18.546875 -39.953125 19.359375 -40.722656 20.140625 -42.171875 C 20.929688 -43.628906 21.722656 -45.328125 22.515625 -47.265625 C 23.316406 -49.203125 24.019531 -50.773438 24.625 -51.984375 Z M 24.625 -51.984375 "/></g></g></g><g fill="#f4f1de" fill-opacity="1"><g transform="translate(16.533447, 186.645779)"><g><path d="M 60.207031 -77.640625 C 60.4375 -75.472656 60.75 -73.308594 61.136719 -71.15625 C 61.53125 -68.964844 61.84375 -66.816406 62.070312 -64.710938 C 62.546875 -60.265625 62.429688 -55.390625 61.714844 -50.082031 C 61.011719 -44.8125 60.039062 -39.539062 58.804688 -34.269531 C 57.574219 -29.023438 56.425781 -24.027344 55.355469 -19.273438 L 54.539062 -19.457031 L 55.363281 -19.332031 C 55.039062 -17.1875 54.203125 -14.972656 52.855469 -12.683594 C 51.523438 -10.421875 49.992188 -8.464844 48.261719 -6.808594 C 46.453125 -5.074219 44.722656 -4.117188 43.074219 -3.941406 C 41.050781 -3.722656 39.183594 -4.410156 37.472656 -6.003906 C 35.875 -7.492188 34.476562 -9.460938 33.285156 -11.90625 C 32.113281 -14.304688 31.148438 -16.804688 30.386719 -19.40625 C 29.625 -22.007812 29.132812 -24.324219 28.914062 -26.355469 C 28.753906 -27.84375 28.667969 -29.390625 28.660156 -31 C 28.648438 -32.570312 28.605469 -34.1875 28.53125 -35.855469 L 29.363281 -35.894531 L 28.535156 -35.804688 C 28.464844 -36.457031 28.300781 -37.101562 28.042969 -37.734375 L 27.183594 -39.859375 L 27.957031 -40.171875 L 28.445312 -39.496094 C 27.707031 -38.960938 26.878906 -38.503906 25.960938 -38.125 C 25.308594 -37.851562 24.859375 -37.433594 24.613281 -36.863281 L 24.597656 -36.828125 L 24.578125 -36.796875 C 23.351562 -34.574219 22.085938 -32.007812 20.777344 -29.089844 C 19.449219 -26.140625 18.0625 -23.265625 16.617188 -20.460938 C 15.152344 -17.621094 13.664062 -15.234375 12.148438 -13.292969 C 10.519531 -11.207031 8.753906 -10.0625 6.851562 -9.859375 C 6.515625 -9.824219 6.230469 -9.902344 5.992188 -10.09375 L 5.90625 -10.164062 L 6.433594 -10.8125 L 6.074219 -10.058594 C 3.878906 -11.097656 2.421875 -12.496094 1.695312 -14.261719 C 1.023438 -15.902344 0.59375 -17.59375 0.40625 -19.339844 L 1.234375 -19.429688 L 0.40625 -19.320312 C -0.160156 -23.613281 -0.488281 -27.933594 -0.585938 -32.277344 C -0.675781 -36.566406 -0.953125 -40.835938 -1.410156 -45.085938 C -1.882812 -49.515625 -1.660156 -52.71875 -0.734375 -54.691406 C 0.242188 -56.78125 2.269531 -58.109375 5.347656 -58.671875 L 5.375 -58.675781 L 5.40625 -58.679688 C 7.808594 -58.9375 9.539062 -58.351562 10.59375 -56.921875 C 11.546875 -55.628906 12.125 -54.019531 12.332031 -52.097656 C 12.503906 -50.488281 12.546875 -48.839844 12.457031 -47.152344 C 12.371094 -45.554688 12.410156 -43.996094 12.574219 -42.476562 C 12.625 -41.992188 12.796875 -41.539062 13.089844 -41.113281 C 13.515625 -40.503906 13.816406 -39.90625 14.003906 -39.3125 L 13.207031 -39.0625 L 12.816406 -39.800781 C 13.363281 -40.09375 13.945312 -40.328125 14.5625 -40.511719 C 14.957031 -40.625 15.238281 -40.789062 15.410156 -41 L 16.058594 -40.476562 L 15.394531 -40.984375 C 17.042969 -43.144531 18.78125 -45.707031 20.605469 -48.675781 C 22.464844 -51.699219 24.359375 -54.40625 26.289062 -56.800781 C 28.339844 -59.347656 30.316406 -60.722656 32.214844 -60.925781 C 34.394531 -61.160156 36.007812 -60.621094 37.050781 -59.316406 C 38.003906 -58.121094 38.546875 -56.917969 38.675781 -55.714844 C 38.792969 -54.609375 38.777344 -53.460938 38.625 -52.273438 C 38.484375 -51.15625 38.359375 -50.117188 38.25 -49.160156 C 37.871094 -45.867188 37.597656 -42.535156 37.4375 -39.160156 C 37.273438 -35.8125 37.371094 -32.492188 37.726562 -29.199219 C 38 -26.636719 38.433594 -24.277344 39.027344 -22.117188 C 39.605469 -20.015625 40.910156 -17.589844 42.945312 -14.839844 L 42.273438 -14.34375 L 41.660156 -14.910156 C 42.449219 -15.765625 43.371094 -16.601562 44.429688 -17.425781 C 45.300781 -18.105469 45.824219 -18.785156 46 -19.46875 L 46.808594 -19.257812 L 45.992188 -19.433594 C 48.015625 -29.027344 49.902344 -38.710938 51.644531 -48.484375 C 53.390625 -58.273438 55.21875 -68.019531 57.132812 -77.71875 L 57.25 -78.320312 L 57.863281 -78.386719 C 58.125 -78.414062 58.417969 -78.414062 58.738281 -78.386719 C 58.949219 -78.367188 59.132812 -78.367188 59.285156 -78.382812 L 60.117188 -78.472656 Z M 58.542969 -77.460938 L 59.375 -77.550781 L 59.464844 -76.722656 C 59.203125 -76.691406 58.910156 -76.691406 58.589844 -76.722656 C 58.375 -76.742188 58.195312 -76.742188 58.039062 -76.726562 L 57.953125 -77.558594 L 58.769531 -77.394531 C 56.859375 -67.703125 55.03125 -57.96875 53.289062 -48.191406 C 51.542969 -38.398438 49.65625 -28.699219 47.625 -19.085938 L 47.621094 -19.070312 L 47.617188 -19.050781 C 47.347656 -18 46.625 -17.019531 45.453125 -16.105469 C 44.46875 -15.339844 43.613281 -14.5625 42.890625 -13.777344 L 42.203125 -13.035156 L 41.601562 -13.847656 C 39.445312 -16.765625 38.050781 -19.375 37.417969 -21.675781 C 36.796875 -23.921875 36.347656 -26.371094 36.0625 -29.019531 C 35.699219 -32.398438 35.601562 -35.804688 35.765625 -39.242188 C 35.929688 -42.652344 36.207031 -46.019531 36.589844 -49.347656 C 36.699219 -50.3125 36.824219 -51.359375 36.96875 -52.484375 C 37.101562 -53.542969 37.117188 -54.558594 37.011719 -55.539062 C 36.917969 -56.417969 36.496094 -57.332031 35.746094 -58.273438 C 35.082031 -59.101562 33.964844 -59.433594 32.390625 -59.261719 C 30.953125 -59.109375 29.351562 -57.9375 27.589844 -55.75 C 25.703125 -53.414062 23.851562 -50.761719 22.027344 -47.800781 C 20.171875 -44.785156 18.40625 -42.175781 16.726562 -39.96875 L 16.710938 -39.953125 C 16.324219 -39.46875 15.761719 -39.121094 15.035156 -38.90625 C 14.527344 -38.757812 14.046875 -38.5625 13.597656 -38.324219 L 12.710938 -37.855469 L 12.410156 -38.8125 C 12.273438 -39.242188 12.042969 -39.691406 11.71875 -40.160156 C 11.261719 -40.820312 10.996094 -41.53125 10.910156 -42.296875 C 10.738281 -43.90625 10.699219 -45.554688 10.789062 -47.242188 C 10.871094 -48.839844 10.832031 -50.398438 10.671875 -51.917969 C 10.496094 -53.542969 10.023438 -54.878906 9.246094 -55.929688 C 8.574219 -56.84375 7.351562 -57.207031 5.585938 -57.019531 L 5.496094 -57.847656 L 5.644531 -57.027344 C 3.136719 -56.570312 1.511719 -55.554688 0.777344 -53.980469 C -0.015625 -52.289062 -0.1875 -49.386719 0.253906 -45.265625 C 0.714844 -40.96875 0.992188 -36.648438 1.085938 -32.3125 C 1.179688 -28.03125 1.503906 -23.773438 2.066406 -19.539062 L 2.066406 -19.519531 C 2.238281 -17.929688 2.628906 -16.390625 3.242188 -14.898438 C 3.800781 -13.53125 4.984375 -12.421875 6.789062 -11.570312 L 6.878906 -11.527344 L 7.042969 -11.394531 C 6.921875 -11.492188 6.796875 -11.535156 6.671875 -11.523438 C 8.105469 -11.675781 9.492188 -12.609375 10.828125 -14.324219 C 12.28125 -16.179688 13.714844 -18.480469 15.132812 -21.226562 C 16.566406 -24.003906 17.9375 -26.851562 19.25 -29.777344 C 20.582031 -32.734375 21.867188 -35.339844 23.113281 -37.601562 L 23.847656 -37.199219 L 23.082031 -37.535156 C 23.507812 -38.515625 24.257812 -39.226562 25.320312 -39.667969 C 26.121094 -39.996094 26.835938 -40.390625 27.464844 -40.847656 L 28.332031 -41.472656 L 29.589844 -38.363281 C 29.90625 -37.582031 30.109375 -36.789062 30.195312 -35.984375 L 30.199219 -35.957031 L 30.199219 -35.929688 C 30.273438 -34.242188 30.316406 -32.601562 30.328125 -31.011719 C 30.339844 -29.457031 30.421875 -27.964844 30.578125 -26.535156 C 30.785156 -24.601562 31.253906 -22.382812 31.988281 -19.875 C 32.726562 -17.363281 33.65625 -14.953125 34.785156 -12.640625 C 35.890625 -10.378906 37.164062 -8.574219 38.613281 -7.226562 C 39.949219 -5.980469 41.378906 -5.441406 42.898438 -5.601562 C 44.167969 -5.738281 45.570312 -6.542969 47.105469 -8.015625 C 48.726562 -9.566406 50.160156 -11.402344 51.414062 -13.53125 C 52.65625 -15.636719 53.421875 -17.652344 53.710938 -19.582031 L 53.71875 -19.609375 L 53.722656 -19.640625 C 54.796875 -24.398438 55.945312 -29.398438 57.175781 -34.648438 C 58.398438 -39.867188 59.359375 -45.085938 60.058594 -50.300781 C 60.753906 -55.476562 60.871094 -60.222656 60.40625 -64.535156 C 60.183594 -66.597656 59.878906 -68.707031 59.492188 -70.859375 C 59.097656 -73.054688 58.78125 -75.253906 58.542969 -77.460938 Z M 58.542969 -77.460938 "/></g></g></g><g fill="#f4f1de" fill-opacity="1"><g transform="translate(89.247187, 178.841489)"><g><path d="M 0.550781 -16.53125 C 0.214844 -20.652344 0.269531 -25.34375 0.714844 -30.605469 C 1.160156 -35.871094 2.074219 -41.003906 3.457031 -45.996094 C 4.851562 -51.042969 6.847656 -55.300781 9.449219 -58.765625 C 12.132812 -62.34375 15.519531 -64.351562 19.621094 -64.792969 C 22.425781 -65.09375 24.933594 -64.507812 27.148438 -63.035156 C 29.410156 -61.527344 30.703125 -59.234375 31.035156 -56.160156 C 31.238281 -54.269531 30.941406 -52.121094 30.148438 -49.710938 C 29.382812 -47.382812 28.457031 -45.0625 27.367188 -42.753906 C 26.292969 -40.476562 25.324219 -38.445312 24.457031 -36.660156 C 23.378906 -34.460938 21.96875 -32.5 20.234375 -30.777344 C 18.601562 -29.15625 17.152344 -27.476562 15.894531 -25.738281 C 14.734375 -24.140625 14.285156 -22.089844 14.554688 -19.59375 C 14.707031 -18.175781 15 -16.640625 15.433594 -14.988281 C 15.757812 -13.761719 16.984375 -13.261719 19.113281 -13.488281 C 20.574219 -13.644531 21.957031 -14.066406 23.261719 -14.746094 C 24.75 -15.523438 26.332031 -16.003906 28 -16.183594 C 29.09375 -16.300781 29.972656 -16.128906 30.628906 -15.660156 C 31.320312 -15.171875 31.71875 -14.414062 31.828125 -13.382812 C 32.078125 -11.066406 31.339844 -8.839844 29.613281 -6.695312 C 27.960938 -4.644531 25.910156 -2.96875 23.46875 -1.660156 C 21.027344 -0.355469 18.765625 0.40625 16.675781 0.632812 C 12.472656 1.082031 9.257812 0.335938 7.039062 -1.609375 C 4.882812 -3.5 3.371094 -5.875 2.507812 -8.734375 C 1.683594 -11.46875 1.035156 -14.035156 0.5625 -16.4375 L 0.554688 -16.484375 Z M 2.214844 -16.667969 L 1.382812 -16.597656 L 2.203125 -16.757812 C 2.664062 -14.410156 3.296875 -11.898438 4.105469 -9.21875 C 4.878906 -6.664062 6.222656 -4.546875 8.140625 -2.867188 C 9.992188 -1.242188 12.78125 -0.628906 16.496094 -1.027344 C 18.371094 -1.230469 20.429688 -1.933594 22.679688 -3.132812 C 24.921875 -4.335938 26.800781 -5.871094 28.3125 -7.746094 C 29.75 -9.527344 30.367188 -11.347656 30.167969 -13.203125 C 30.113281 -13.734375 29.941406 -14.101562 29.664062 -14.296875 C 29.351562 -14.519531 28.855469 -14.59375 28.179688 -14.523438 C 26.71875 -14.363281 25.335938 -13.945312 24.035156 -13.265625 C 22.542969 -12.484375 20.960938 -12.007812 19.292969 -11.828125 C 16.210938 -11.496094 14.386719 -12.410156 13.820312 -14.566406 C 13.363281 -16.296875 13.054688 -17.914062 12.894531 -19.414062 C 12.578125 -22.339844 13.128906 -24.773438 14.539062 -26.71875 C 15.851562 -28.527344 17.359375 -30.277344 19.058594 -31.964844 C 20.660156 -33.554688 21.957031 -35.363281 22.953125 -37.390625 C 23.816406 -39.167969 24.785156 -41.195312 25.855469 -43.46875 C 26.914062 -45.714844 27.816406 -47.96875 28.5625 -50.230469 C 29.28125 -52.414062 29.550781 -54.332031 29.375 -55.984375 C 29.097656 -58.539062 28.046875 -60.425781 26.222656 -61.644531 C 24.34375 -62.894531 22.203125 -63.390625 19.796875 -63.132812 C 16.179688 -62.742188 13.175781 -60.953125 10.785156 -57.765625 C 8.3125 -54.464844 6.40625 -50.394531 5.066406 -45.550781 C 3.714844 -40.65625 2.816406 -35.628906 2.378906 -30.464844 C 1.941406 -25.296875 1.886719 -20.695312 2.214844 -16.667969 Z M 24.007812 -51.4375 C 23.386719 -52.136719 22.789062 -52.886719 22.214844 -53.695312 C 21.84375 -54.214844 21.558594 -54.460938 21.363281 -54.441406 C 20.539062 -54.351562 19.832031 -53.628906 19.242188 -52.265625 C 18.546875 -50.664062 18 -48.863281 17.597656 -46.875 C 17.183594 -44.820312 16.835938 -43.144531 16.550781 -41.84375 L 15.734375 -42.023438 L 16.566406 -42.113281 C 16.585938 -41.929688 16.566406 -41.761719 16.511719 -41.613281 C 16.382812 -41.261719 16.132812 -41.066406 15.765625 -41.027344 C 16.082031 -41.0625 16.292969 -41.226562 16.402344 -41.523438 C 16.4375 -41.617188 16.453125 -41.703125 16.445312 -41.785156 C 16.457031 -41.664062 16.628906 -41.4375 16.964844 -41.097656 C 17.25 -40.8125 17.46875 -40.675781 17.617188 -40.695312 C 18.164062 -40.75 18.761719 -41.378906 19.414062 -42.582031 C 20.191406 -44.011719 20.972656 -45.675781 21.757812 -47.578125 C 22.558594 -49.527344 23.265625 -51.121094 23.882812 -52.363281 L 24.632812 -51.996094 Z M 25.253906 -52.550781 L 25.628906 -52.128906 L 25.378906 -51.625 C 24.78125 -50.414062 24.089844 -48.855469 23.300781 -46.941406 C 22.496094 -44.984375 21.6875 -43.265625 20.882812 -41.78125 C 19.949219 -40.070312 18.921875 -39.152344 17.796875 -39.03125 C 17.113281 -38.957031 16.441406 -39.253906 15.78125 -39.921875 C 15.167969 -40.535156 14.835938 -41.097656 14.78125 -41.605469 C 14.761719 -41.789062 14.78125 -41.953125 14.835938 -42.105469 C 14.96875 -42.457031 15.21875 -42.648438 15.585938 -42.691406 C 15.269531 -42.65625 15.054688 -42.492188 14.945312 -42.195312 C 14.910156 -42.101562 14.898438 -42.011719 14.90625 -41.933594 L 14.890625 -42.070312 L 14.917969 -42.203125 C 15.203125 -43.492188 15.546875 -45.160156 15.960938 -47.203125 C 16.386719 -49.308594 16.96875 -51.21875 17.710938 -52.929688 C 18.558594 -54.886719 19.714844 -55.945312 21.183594 -56.101562 C 22.03125 -56.195312 22.828125 -55.714844 23.574219 -54.664062 C 24.113281 -53.90625 24.675781 -53.199219 25.253906 -52.550781 Z M 25.253906 -52.550781 "/></g></g></g><g fill="#f4f1de" fill-opacity="1"><g transform="translate(130.37346, 174.427449)"><g><path d="M 0.550781 -16.53125 C 0.214844 -20.652344 0.269531 -25.34375 0.714844 -30.605469 C 1.160156 -35.871094 2.074219 -41.003906 3.457031 -45.996094 C 4.851562 -51.042969 6.847656 -55.300781 9.449219 -58.765625 C 12.132812 -62.34375 15.519531 -64.351562 19.621094 -64.792969 C 22.425781 -65.09375 24.933594 -64.507812 27.148438 -63.035156 C 29.410156 -61.527344 30.703125 -59.234375 31.035156 -56.160156 C 31.238281 -54.269531 30.941406 -52.121094 30.148438 -49.710938 C 29.382812 -47.382812 28.457031 -45.0625 27.367188 -42.753906 C 26.292969 -40.476562 25.324219 -38.445312 24.457031 -36.660156 C 23.378906 -34.460938 21.96875 -32.5 20.234375 -30.777344 C 18.601562 -29.15625 17.152344 -27.476562 15.894531 -25.738281 C 14.734375 -24.140625 14.285156 -22.089844 14.554688 -19.59375 C 14.707031 -18.175781 15 -16.640625 15.433594 -14.988281 C 15.757812 -13.761719 16.984375 -13.261719 19.113281 -13.488281 C 20.574219 -13.644531 21.957031 -14.066406 23.261719 -14.746094 C 24.75 -15.523438 26.332031 -16.003906 28 -16.183594 C 29.09375 -16.300781 29.972656 -16.128906 30.628906 -15.660156 C 31.320312 -15.171875 31.71875 -14.414062 31.828125 -13.382812 C 32.078125 -11.066406 31.339844 -8.839844 29.613281 -6.695312 C 27.960938 -4.644531 25.910156 -2.96875 23.46875 -1.660156 C 21.027344 -0.355469 18.765625 0.40625 16.675781 0.632812 C 12.472656 1.082031 9.257812 0.335938 7.039062 -1.609375 C 4.882812 -3.5 3.371094 -5.875 2.507812 -8.734375 C 1.683594 -11.46875 1.035156 -14.035156 0.5625 -16.4375 L 0.554688 -16.484375 Z M 2.214844 -16.667969 L 1.382812 -16.597656 L 2.203125 -16.757812 C 2.664062 -14.410156 3.296875 -11.898438 4.105469 -9.21875 C 4.878906 -6.664062 6.222656 -4.546875 8.140625 -2.867188 C 9.992188 -1.242188 12.78125 -0.628906 16.496094 -1.027344 C 18.371094 -1.230469 20.429688 -1.933594 22.679688 -3.132812 C 24.921875 -4.335938 26.800781 -5.871094 28.3125 -7.746094 C 29.75 -9.527344 30.367188 -11.347656 30.167969 -13.203125 C 30.113281 -13.734375 29.941406 -14.101562 29.664062 -14.296875 C 29.351562 -14.519531 28.855469 -14.59375 28.179688 -14.523438 C 26.71875 -14.363281 25.335938 -13.945312 24.035156 -13.265625 C 22.542969 -12.484375 20.960938 -12.007812 19.292969 -11.828125 C 16.210938 -11.496094 14.386719 -12.410156 13.820312 -14.566406 C 13.363281 -16.296875 13.054688 -17.914062 12.894531 -19.414062 C 12.578125 -22.339844 13.128906 -24.773438 14.539062 -26.71875 C 15.851562 -28.527344 17.359375 -30.277344 19.058594 -31.964844 C 20.660156 -33.554688 21.957031 -35.363281 22.953125 -37.390625 C 23.816406 -39.167969 24.785156 -41.195312 25.855469 -43.46875 C 26.914062 -45.714844 27.816406 -47.96875 28.5625 -50.230469 C 29.28125 -52.414062 29.550781 -54.332031 29.375 -55.984375 C 29.097656 -58.539062 28.046875 -60.425781 26.222656 -61.644531 C 24.34375 -62.894531 22.203125 -63.390625 19.796875 -63.132812 C 16.179688 -62.742188 13.175781 -60.953125 10.785156 -57.765625 C 8.3125 -54.464844 6.40625 -50.394531 5.066406 -45.550781 C 3.714844 -40.65625 2.816406 -35.628906 2.378906 -30.464844 C 1.941406 -25.296875 1.886719 -20.695312 2.214844 -16.667969 Z M 24.007812 -51.4375 C 23.386719 -52.136719 22.789062 -52.886719 22.214844 -53.695312 C 21.84375 -54.214844 21.558594 -54.460938 21.363281 -54.441406 C 20.539062 -54.351562 19.832031 -53.628906 19.242188 -52.265625 C 18.546875 -50.664062 18 -48.863281 17.597656 -46.875 C 17.183594 -44.820312 16.835938 -43.144531 16.550781 -41.84375 L 15.734375 -42.023438 L 16.566406 -42.113281 C 16.585938 -41.929688 16.566406 -41.761719 16.511719 -41.613281 C 16.382812 -41.261719 16.132812 -41.066406 15.765625 -41.027344 C 16.082031 -41.0625 16.292969 -41.226562 16.402344 -41.523438 C 16.4375 -41.617188 16.453125 -41.703125 16.445312 -41.785156 C 16.457031 -41.664062 16.628906 -41.4375 16.964844 -41.097656 C 17.25 -40.8125 17.46875 -40.675781 17.617188 -40.695312 C 18.164062 -40.75 18.761719 -41.378906 19.414062 -42.582031 C 20.191406 -44.011719 20.972656 -45.675781 21.757812 -47.578125 C 22.558594 -49.527344 23.265625 -51.121094 23.882812 -52.363281 L 24.632812 -51.996094 Z M 25.253906 -52.550781 L 25.628906 -52.128906 L 25.378906 -51.625 C 24.78125 -50.414062 24.089844 -48.855469 23.300781 -46.941406 C 22.496094 -44.984375 21.6875 -43.265625 20.882812 -41.78125 C 19.949219 -40.070312 18.921875 -39.152344 17.796875 -39.03125 C 17.113281 -38.957031 16.441406 -39.253906 15.78125 -39.921875 C 15.167969 -40.535156 14.835938 -41.097656 14.78125 -41.605469 C 14.761719 -41.789062 14.78125 -41.953125 14.835938 -42.105469 C 14.96875 -42.457031 15.21875 -42.648438 15.585938 -42.691406 C 15.269531 -42.65625 15.054688 -42.492188 14.945312 -42.195312 C 14.910156 -42.101562 14.898438 -42.011719 14.90625 -41.933594 L 14.890625 -42.070312 L 14.917969 -42.203125 C 15.203125 -43.492188 15.546875 -45.160156 15.960938 -47.203125 C 16.386719 -49.308594 16.96875 -51.21875 17.710938 -52.929688 C 18.558594 -54.886719 19.714844 -55.945312 21.183594 -56.101562 C 22.03125 -56.195312 22.828125 -55.714844 23.574219 -54.664062 C 24.113281 -53.90625 24.675781 -53.199219 25.253906 -52.550781 Z M 25.253906 -52.550781 "/></g></g></g><g fill="#f4f1de" fill-opacity="1"><g transform="translate(171.507354, 170.012591)"><g/></g></g><g fill="#f4f1de" fill-opacity="1"><g transform="translate(198.716384, 167.092274)"><g/></g></g><g fill="#f4f1de" fill-opacity="1"><g transform="translate(225.925415, 164.171957)"><g/></g></g><g fill="#f4f1de" fill-opacity="1"><g transform="translate(253.134446, 161.25164)"><g/></g></g><g fill="#f4f1de" fill-opacity="1"><g transform="translate(280.355724, 158.330008)"><g><path d="M -1.769531 -8.855469 C -1.328125 -12.578125 -0.988281 -16.265625 -0.75 -19.914062 C -0.511719 -23.582031 -0.226562 -27.335938 0.101562 -31.171875 L 0.933594 -31.101562 L 0.0976562 -31.144531 C 0.195312 -33.132812 0.183594 -35.449219 0.0546875 -38.097656 C -0.0742188 -40.804688 -0.046875 -43.503906 0.148438 -46.195312 C 0.34375 -48.984375 1.039062 -51.367188 2.226562 -53.339844 C 3.488281 -55.4375 5.558594 -56.640625 8.441406 -56.949219 C 10.449219 -57.164062 12.210938 -56.636719 13.726562 -55.359375 C 15.230469 -54.09375 16.089844 -52.460938 16.304688 -50.46875 L 16.398438 -49.59375 L 16.386719 -49.5 C 15.558594 -42.449219 14.683594 -35.363281 13.761719 -28.25 C 12.835938 -21.132812 11.851562 -14.085938 10.804688 -7.117188 L 10.804688 -7.105469 L 10.800781 -7.097656 C 10.507812 -5.398438 9.65625 -3.941406 8.253906 -2.726562 C 6.960938 -1.609375 5.746094 -0.714844 4.613281 -0.046875 L 4.015625 0.304688 L 0.769531 -3.394531 C -0.367188 -4.683594 -1.007812 -5.988281 -1.152344 -7.3125 L -1.269531 -8.40625 L -0.4375 -8.496094 L -1.140625 -8.042969 L -1.234375 -8.191406 C -1.152344 -8.0625 -1.042969 -7.980469 -0.90625 -7.941406 C -0.871094 -7.929688 -0.851562 -7.925781 -0.851562 -7.925781 L -1.894531 -7.8125 Z M -0.109375 -8.660156 L -0.941406 -8.757812 L -1.027344 -9.585938 C -0.476562 -9.648438 -0.078125 -9.480469 0.171875 -9.09375 L 0.371094 -8.78125 L 0.511719 -7.488281 C 0.613281 -6.519531 1.121094 -5.519531 2.023438 -4.496094 L 4.816406 -1.316406 L 4.1875 -0.765625 L 3.761719 -1.484375 C 4.8125 -2.105469 5.945312 -2.9375 7.160156 -3.988281 C 8.265625 -4.945312 8.929688 -6.074219 9.15625 -7.382812 L 9.980469 -7.238281 L 9.152344 -7.363281 C 10.195312 -14.324219 11.179688 -21.359375 12.105469 -28.464844 C 13.027344 -35.574219 13.902344 -42.648438 14.726562 -49.695312 L 15.554688 -49.597656 L 14.726562 -49.507812 L 14.640625 -50.289062 C 14.476562 -51.839844 13.8125 -53.101562 12.648438 -54.082031 C 11.496094 -55.050781 10.152344 -55.453125 8.617188 -55.289062 C 6.289062 -55.039062 4.632812 -54.101562 3.65625 -52.476562 C 2.609375 -50.734375 1.992188 -48.597656 1.8125 -46.074219 C 1.625 -43.453125 1.597656 -40.820312 1.722656 -38.175781 C 1.855469 -35.472656 1.867188 -33.101562 1.765625 -31.0625 L 1.765625 -31.03125 C 1.4375 -27.207031 1.15625 -23.464844 0.917969 -19.804688 C 0.675781 -16.128906 0.332031 -12.410156 -0.109375 -8.660156 Z M 5.535156 -77.65625 C 5.324219 -80.695312 5.789062 -82.957031 6.9375 -84.445312 C 8.101562 -85.957031 9.792969 -86.832031 12.007812 -87.070312 C 13.628906 -87.242188 15.039062 -87.035156 16.242188 -86.445312 C 17.574219 -85.789062 18.320312 -84.738281 18.476562 -83.285156 L 16.8125 -83.105469 C 16.824219 -83.023438 16.847656 -82.9375 16.886719 -82.859375 C 17.039062 -82.542969 17.292969 -82.390625 17.644531 -82.398438 C 17.933594 -82.40625 18.148438 -82.519531 18.289062 -82.746094 C 18.285156 -82.738281 18.261719 -82.679688 18.21875 -82.574219 C 18.101562 -82.273438 17.925781 -81.761719 17.695312 -81.039062 C 17.203125 -79.519531 16.53125 -77.953125 15.675781 -76.34375 C 14.703125 -74.515625 13.390625 -73.515625 11.742188 -73.339844 C 11.097656 -73.269531 10.046875 -73.820312 8.597656 -74.988281 C 7.351562 -75.992188 6.460938 -76.667969 5.917969 -77.011719 L 5.566406 -77.238281 Z M 7.203125 -77.773438 L 6.371094 -77.714844 L 6.820312 -78.417969 C 7.410156 -78.042969 8.355469 -77.332031 9.648438 -76.289062 C 10.738281 -75.410156 11.375 -74.980469 11.5625 -75 C 12.625 -75.113281 13.503906 -75.824219 14.199219 -77.128906 C 15.007812 -78.652344 15.644531 -80.125 16.105469 -81.554688 C 16.347656 -82.308594 16.53125 -82.851562 16.664062 -83.183594 C 16.746094 -83.390625 16.816406 -83.546875 16.878906 -83.644531 C 17.058594 -83.921875 17.296875 -84.0625 17.605469 -84.070312 C 18.128906 -84.082031 18.417969 -83.820312 18.476562 -83.285156 L 16.8125 -83.105469 C 16.722656 -83.949219 16.285156 -84.5625 15.503906 -84.945312 C 14.59375 -85.394531 13.484375 -85.546875 12.1875 -85.40625 C 10.441406 -85.222656 9.132812 -84.558594 8.261719 -83.425781 C 7.371094 -82.273438 7.019531 -80.386719 7.203125 -77.773438 Z M 7.203125 -77.773438 "/></g></g></g><g fill="#f4f1de" fill-opacity="1"><g transform="translate(308.815735, 155.275425)"><g><path d="M 0.0585938 -24.050781 L -0.175781 -26.238281 C -0.5625 -29.832031 -0.625 -33.640625 -0.363281 -37.671875 C -0.101562 -41.707031 0.503906 -45.539062 1.449219 -49.171875 C 2.410156 -52.847656 3.765625 -55.929688 5.515625 -58.40625 C 7.355469 -61.007812 9.652344 -62.457031 12.402344 -62.753906 C 14.3125 -62.957031 16.144531 -62.300781 17.898438 -60.78125 C 19.480469 -59.410156 21.046875 -57.953125 22.59375 -56.417969 L 22.003906 -55.824219 L 21.355469 -56.347656 C 21.804688 -56.90625 22.222656 -57.484375 22.617188 -58.082031 C 22.96875 -58.621094 23.203125 -59.164062 23.320312 -59.710938 C 24.996094 -66.761719 26.734375 -73.707031 28.53125 -80.550781 C 30.328125 -87.382812 32.367188 -95.402344 34.644531 -104.605469 L 34.652344 -104.628906 C 35.515625 -107.710938 37.335938 -109.402344 40.109375 -109.699219 C 42.527344 -109.957031 44.257812 -109.667969 45.304688 -108.824219 C 46.347656 -107.980469 46.941406 -106.925781 47.078125 -105.652344 C 47.136719 -105.085938 47.148438 -104.460938 47.109375 -103.777344 C 47.070312 -103.132812 47.027344 -102.539062 46.976562 -101.996094 C 46.5 -97.617188 46.132812 -93.917969 45.878906 -90.890625 L 45.113281 -81.792969 C 44.859375 -78.746094 44.4375 -75.023438 43.851562 -70.625 L 43.023438 -70.734375 L 43.855469 -70.644531 C 43.15625 -64.324219 42.21875 -58.035156 41.039062 -51.773438 C 39.867188 -45.542969 38.828125 -39.273438 37.925781 -32.96875 C 37.441406 -29.664062 37.035156 -25.867188 36.710938 -21.582031 C 36.378906 -17.253906 35.898438 -13.09375 35.265625 -9.101562 C 34.625 -5.058594 33.671875 -1.644531 32.402344 1.140625 C 31.03125 4.148438 29.042969 5.789062 26.433594 6.070312 C 23.066406 6.433594 21.070312 3.730469 20.453125 -2.035156 C 20.269531 -3.738281 20.195312 -5.453125 20.222656 -7.179688 C 20.253906 -8.851562 20.230469 -10.519531 20.15625 -12.179688 L 20.992188 -12.21875 L 20.160156 -12.128906 C 20.0625 -13.03125 19.921875 -13.878906 19.738281 -14.667969 C 19.546875 -15.464844 19.304688 -16.308594 19.003906 -17.199219 L 19.796875 -17.46875 L 20.285156 -16.789062 C 19.542969 -16.253906 18.683594 -15.792969 17.710938 -15.40625 C 16.914062 -15.089844 16.230469 -14.625 15.652344 -14.011719 L 15.042969 -14.585938 L 15.695312 -14.0625 C 14.921875 -13.105469 14.066406 -12.195312 13.121094 -11.328125 C 12.074219 -10.371094 10.886719 -9.820312 9.558594 -9.675781 C 7.835938 -9.492188 6.257812 -10.113281 4.832031 -11.539062 C 3.523438 -12.839844 2.445312 -14.359375 1.59375 -16.097656 C 0.742188 -17.839844 0.253906 -19.277344 0.132812 -20.417969 C 0.0351562 -21.300781 0.0117188 -22.0625 0.0585938 -22.695312 C 0.0976562 -23.230469 0.0976562 -23.683594 0.0585938 -24.050781 Z M 1.71875 -24.226562 C 1.769531 -23.761719 1.773438 -23.210938 1.726562 -22.574219 C 1.6875 -22.039062 1.710938 -21.382812 1.792969 -20.597656 C 1.894531 -19.652344 2.328125 -18.398438 3.09375 -16.832031 C 3.863281 -15.261719 4.835938 -13.890625 6.011719 -12.71875 C 7.0625 -11.671875 8.1875 -11.210938 9.382812 -11.335938 C 10.34375 -11.441406 11.214844 -11.847656 11.992188 -12.5625 C 12.875 -13.371094 13.675781 -14.21875 14.390625 -15.109375 L 14.414062 -15.132812 L 14.433594 -15.15625 C 15.183594 -15.953125 16.070312 -16.550781 17.09375 -16.960938 C 17.941406 -17.292969 18.675781 -17.691406 19.304688 -18.144531 L 20.222656 -18.808594 L 20.585938 -17.734375 C 20.90625 -16.792969 21.164062 -15.898438 21.363281 -15.050781 C 21.566406 -14.195312 21.71875 -13.28125 21.820312 -12.308594 L 21.824219 -12.28125 L 21.824219 -12.253906 C 21.902344 -10.558594 21.925781 -8.855469 21.894531 -7.148438 C 21.867188 -5.492188 21.9375 -3.847656 22.113281 -2.214844 C 22.613281 2.441406 23.996094 4.652344 26.253906 4.410156 C 28.234375 4.195312 29.773438 2.875 30.882812 0.449219 C 32.085938 -2.199219 33 -5.46875 33.613281 -9.363281 C 34.238281 -13.308594 34.714844 -17.425781 35.042969 -21.707031 C 35.375 -26.035156 35.785156 -29.867188 36.273438 -33.203125 C 37.179688 -39.535156 38.21875 -45.828125 39.398438 -52.082031 C 40.570312 -58.304688 41.5 -64.550781 42.195312 -70.828125 L 42.195312 -70.84375 C 42.777344 -75.21875 43.195312 -78.914062 43.449219 -81.933594 L 44.210938 -91.03125 C 44.46875 -94.070312 44.835938 -97.777344 45.3125 -102.148438 C 45.363281 -102.671875 45.402344 -103.246094 45.441406 -103.875 C 45.472656 -104.464844 45.464844 -105 45.414062 -105.472656 C 45.328125 -106.285156 44.941406 -106.96875 44.253906 -107.523438 C 43.570312 -108.078125 42.246094 -108.246094 40.285156 -108.039062 C 38.261719 -107.820312 36.921875 -106.535156 36.261719 -104.179688 L 35.457031 -104.40625 L 36.265625 -104.203125 C 33.984375 -94.992188 31.945312 -86.964844 30.148438 -80.125 C 28.351562 -73.296875 26.621094 -66.371094 24.953125 -59.355469 C 24.792969 -58.609375 24.476562 -57.878906 24.015625 -57.167969 C 23.589844 -56.523438 23.136719 -55.898438 22.65625 -55.300781 L 22.074219 -54.578125 L 21.417969 -55.230469 C 19.894531 -56.742188 18.359375 -58.171875 16.800781 -59.519531 C 15.414062 -60.71875 14.007812 -61.246094 12.582031 -61.089844 C 10.332031 -60.851562 8.429688 -59.632812 6.882812 -57.441406 C 5.246094 -55.128906 3.976562 -52.230469 3.066406 -48.75 C 2.144531 -45.222656 1.558594 -41.492188 1.304688 -37.5625 C 1.050781 -33.628906 1.109375 -29.914062 1.484375 -26.417969 Z M 6.941406 -24.847656 C 7.601562 -23.820312 8.152344 -22.78125 8.597656 -21.726562 C 8.925781 -20.941406 9.199219 -20.507812 9.414062 -20.425781 L 9.121094 -19.644531 L 9.03125 -20.472656 C 9.527344 -20.527344 10.113281 -20.773438 10.792969 -21.207031 C 11.554688 -21.695312 12.210938 -22.171875 12.765625 -22.632812 L 12.804688 -22.664062 L 12.847656 -22.695312 C 13.089844 -22.847656 13.589844 -23.914062 14.347656 -25.886719 C 15.164062 -28.011719 16 -30.480469 16.847656 -33.296875 C 17.699219 -36.117188 18.417969 -38.710938 19.003906 -41.078125 C 19.566406 -43.367188 19.808594 -44.878906 19.730469 -45.617188 C 19.640625 -46.460938 19.105469 -47.355469 18.128906 -48.308594 C 17.066406 -49.347656 15.921875 -50.203125 14.703125 -50.871094 C 13.566406 -51.492188 12.722656 -51.773438 12.164062 -51.714844 C 12.074219 -51.703125 11.929688 -51.542969 11.738281 -51.226562 C 11.441406 -50.738281 11.148438 -50 10.859375 -49.011719 C 10.253906 -46.925781 9.726562 -44.347656 9.273438 -41.277344 C 8.820312 -38.179688 8.414062 -35.085938 8.0625 -32 C 7.707031 -28.894531 7.375 -26.316406 7.066406 -24.269531 L 6.238281 -24.394531 Z M 5.535156 -23.945312 L 5.367188 -24.210938 L 5.414062 -24.519531 C 5.71875 -26.546875 6.050781 -29.105469 6.402344 -32.191406 C 6.757812 -35.292969 7.164062 -38.40625 7.621094 -41.519531 C 8.085938 -44.667969 8.628906 -47.316406 9.253906 -49.476562 C 9.976562 -51.957031 10.886719 -53.257812 11.988281 -53.375 C 12.890625 -53.472656 14.0625 -53.125 15.503906 -52.335938 C 16.859375 -51.59375 18.125 -50.652344 19.296875 -49.503906 C 20.558594 -48.273438 21.257812 -47.035156 21.390625 -45.792969 C 21.492188 -44.863281 21.234375 -43.15625 20.625 -40.679688 C 20.035156 -38.28125 19.308594 -35.660156 18.449219 -32.8125 C 17.585938 -29.960938 16.738281 -27.453125 15.90625 -25.289062 C 15.019531 -22.972656 14.296875 -21.640625 13.75 -21.285156 L 13.300781 -21.988281 L 13.835938 -21.347656 C 13.226562 -20.84375 12.515625 -20.328125 11.695312 -19.800781 C 10.796875 -19.222656 9.96875 -18.894531 9.210938 -18.8125 L 9.015625 -18.792969 L 8.832031 -18.859375 C 8.164062 -19.109375 7.574219 -19.847656 7.054688 -21.078125 C 6.648438 -22.042969 6.144531 -23 5.535156 -23.945312 Z M 5.535156 -23.945312 "/></g></g></g><g fill="#f4f1de" fill-opacity="1"><g transform="translate(364.797503, 149.26696)"><g><path d="M 0.550781 -16.53125 C 0.214844 -20.652344 0.269531 -25.34375 0.714844 -30.605469 C 1.160156 -35.871094 2.074219 -41.003906 3.457031 -45.996094 C 4.851562 -51.042969 6.847656 -55.300781 9.449219 -58.765625 C 12.132812 -62.34375 15.519531 -64.351562 19.621094 -64.792969 C 22.425781 -65.09375 24.933594 -64.507812 27.148438 -63.035156 C 29.410156 -61.527344 30.703125 -59.234375 31.035156 -56.160156 C 31.238281 -54.269531 30.941406 -52.121094 30.148438 -49.710938 C 29.382812 -47.382812 28.457031 -45.0625 27.367188 -42.753906 C 26.292969 -40.476562 25.324219 -38.445312 24.457031 -36.660156 C 23.378906 -34.460938 21.96875 -32.5 20.234375 -30.777344 C 18.601562 -29.15625 17.152344 -27.476562 15.894531 -25.738281 C 14.734375 -24.140625 14.285156 -22.089844 14.554688 -19.59375 C 14.707031 -18.175781 15 -16.640625 15.433594 -14.988281 C 15.757812 -13.761719 16.984375 -13.261719 19.113281 -13.488281 C 20.574219 -13.644531 21.957031 -14.066406 23.261719 -14.746094 C 24.75 -15.523438 26.332031 -16.003906 28 -16.183594 C 29.09375 -16.300781 29.972656 -16.128906 30.628906 -15.660156 C 31.320312 -15.171875 31.71875 -14.414062 31.828125 -13.382812 C 32.078125 -11.066406 31.339844 -8.839844 29.613281 -6.695312 C 27.960938 -4.644531 25.910156 -2.96875 23.46875 -1.660156 C 21.027344 -0.355469 18.765625 0.40625 16.675781 0.632812 C 12.472656 1.082031 9.257812 0.335938 7.039062 -1.609375 C 4.882812 -3.5 3.371094 -5.875 2.507812 -8.734375 C 1.683594 -11.46875 1.035156 -14.035156 0.5625 -16.4375 L 0.554688 -16.484375 Z M 2.214844 -16.667969 L 1.382812 -16.597656 L 2.203125 -16.757812 C 2.664062 -14.410156 3.296875 -11.898438 4.105469 -9.21875 C 4.878906 -6.664062 6.222656 -4.546875 8.140625 -2.867188 C 9.992188 -1.242188 12.78125 -0.628906 16.496094 -1.027344 C 18.371094 -1.230469 20.429688 -1.933594 22.679688 -3.132812 C 24.921875 -4.335938 26.800781 -5.871094 28.3125 -7.746094 C 29.75 -9.527344 30.367188 -11.347656 30.167969 -13.203125 C 30.113281 -13.734375 29.941406 -14.101562 29.664062 -14.296875 C 29.351562 -14.519531 28.855469 -14.59375 28.179688 -14.523438 C 26.71875 -14.363281 25.335938 -13.945312 24.035156 -13.265625 C 22.542969 -12.484375 20.960938 -12.007812 19.292969 -11.828125 C 16.210938 -11.496094 14.386719 -12.410156 13.820312 -14.566406 C 13.363281 -16.296875 13.054688 -17.914062 12.894531 -19.414062 C 12.578125 -22.339844 13.128906 -24.773438 14.539062 -26.71875 C 15.851562 -28.527344 17.359375 -30.277344 19.058594 -31.964844 C 20.660156 -33.554688 21.957031 -35.363281 22.953125 -37.390625 C 23.816406 -39.167969 24.785156 -41.195312 25.855469 -43.46875 C 26.914062 -45.714844 27.816406 -47.96875 28.5625 -50.230469 C 29.28125 -52.414062 29.550781 -54.332031 29.375 -55.984375 C 29.097656 -58.539062 28.046875 -60.425781 26.222656 -61.644531 C 24.34375 -62.894531 22.203125 -63.390625 19.796875 -63.132812 C 16.179688 -62.742188 13.175781 -60.953125 10.785156 -57.765625 C 8.3125 -54.464844 6.40625 -50.394531 5.066406 -45.550781 C 3.714844 -40.65625 2.816406 -35.628906 2.378906 -30.464844 C 1.941406 -25.296875 1.886719 -20.695312 2.214844 -16.667969 Z M 24.007812 -51.4375 C 23.386719 -52.136719 22.789062 -52.886719 22.214844 -53.695312 C 21.84375 -54.214844 21.558594 -54.460938 21.363281 -54.441406 C 20.539062 -54.351562 19.832031 -53.628906 19.242188 -52.265625 C 18.546875 -50.664062 18 -48.863281 17.597656 -46.875 C 17.183594 -44.820312 16.835938 -43.144531 16.550781 -41.84375 L 15.734375 -42.023438 L 16.566406 -42.113281 C 16.585938 -41.929688 16.566406 -41.761719 16.511719 -41.613281 C 16.382812 -41.261719 16.132812 -41.066406 15.765625 -41.027344 C 16.082031 -41.0625 16.292969 -41.226562 16.402344 -41.523438 C 16.4375 -41.617188 16.453125 -41.703125 16.445312 -41.785156 C 16.457031 -41.664062 16.628906 -41.4375 16.964844 -41.097656 C 17.25 -40.8125 17.46875 -40.675781 17.617188 -40.695312 C 18.164062 -40.75 18.761719 -41.378906 19.414062 -42.582031 C 20.191406 -44.011719 20.972656 -45.675781 21.757812 -47.578125 C 22.558594 -49.527344 23.265625 -51.121094 23.882812 -52.363281 L 24.632812 -51.996094 Z M 25.253906 -52.550781 L 25.628906 -52.128906 L 25.378906 -51.625 C 24.78125 -50.414062 24.089844 -48.855469 23.300781 -46.941406 C 22.496094 -44.984375 21.6875 -43.265625 20.882812 -41.78125 C 19.949219 -40.070312 18.921875 -39.152344 17.796875 -39.03125 C 17.113281 -38.957031 16.441406 -39.253906 15.78125 -39.921875 C 15.167969 -40.535156 14.835938 -41.097656 14.78125 -41.605469 C 14.761719 -41.789062 14.78125 -41.953125 14.835938 -42.105469 C 14.96875 -42.457031 15.21875 -42.648438 15.585938 -42.691406 C 15.269531 -42.65625 15.054688 -42.492188 14.945312 -42.195312 C 14.910156 -42.101562 14.898438 -42.011719 14.90625 -41.933594 L 14.890625 -42.070312 L 14.917969 -42.203125 C 15.203125 -43.492188 15.546875 -45.160156 15.960938 -47.203125 C 16.386719 -49.308594 16.96875 -51.21875 17.710938 -52.929688 C 18.558594 -54.886719 19.714844 -55.945312 21.183594 -56.101562 C 22.03125 -56.195312 22.828125 -55.714844 23.574219 -54.664062 C 24.113281 -53.90625 24.675781 -53.199219 25.253906 -52.550781 Z M 25.253906 -52.550781 "/></g></g></g></g></g><g clip-path="url(#fd74746865)"><g clip-path="url(#1740a3956d)"><g clip-path="url(#262547c0ea)"><path fill="#f4f1de" d="M 416.304688 283.984375 C 417.710938 282.34375 417.71875 280.851562 416.304688 280.273438 C 415.597656 279.984375 414.832031 280.394531 412.242188 282.238281 C 404.648438 287.792969 400.851562 286.902344 395.226562 283.910156 C 394.40625 283.484375 393.921875 283.570312 392.992188 284.347656 C 391.875 285.28125 391.882812 285.457031 392.769531 288.011719 C 395.582031 296.210938 386.984375 303.492188 389.171875 306.101562 C 391.050781 308.347656 393.78125 303.542969 401.066406 302.40625 C 406.621094 301.527344 409.03125 304.828125 411.078125 303.117188 C 411.730469 302.570312 411.980469 302.035156 411.773438 301.511719 C 409.4375 295.867188 409.519531 291.921875 416.304688 283.984375 Z M 416.304688 283.984375 " fill-opacity="1" fill-rule="nonzero"/></g></g></g><g transform="matrix(1, 0, 0, 1, 46, 269)"><g clip-path="url(#4f7e8efa0c)"><g fill="#f4f1de" fill-opacity="1"><g transform="translate(16.876761, 154.984019)"><g><path d="M 11.453125 -43.5 C 15.546875 -43.375 18.796875 -43.441406 21.203125 -43.703125 C 23.609375 -43.960938 27.171875 -44.515625 31.890625 -45.359375 C 36.609375 -46.210938 40.085938 -46.757812 42.328125 -47 C 47.242188 -47.519531 50.878906 -47.050781 53.234375 -45.59375 C 55.597656 -44.144531 56.203125 -41.441406 55.046875 -37.484375 C 54.359375 -35.492188 53.046875 -33.488281 51.109375 -31.46875 C 49.171875 -29.445312 47.222656 -27.816406 45.265625 -26.578125 C 43.316406 -25.347656 40.765625 -23.828125 37.609375 -22.015625 C 34.460938 -20.210938 32.207031 -18.84375 30.84375 -17.90625 C 28.625 -16.414062 26.617188 -15.546875 24.828125 -15.296875 C 23.046875 -15.046875 20.921875 -15.359375 18.453125 -16.234375 C 18.597656 -17.035156 19.082031 -18.046875 19.90625 -19.265625 C 20.738281 -20.492188 21.796875 -21.742188 23.078125 -23.015625 C 24.359375 -24.285156 25.742188 -25.59375 27.234375 -26.9375 C 28.734375 -28.289062 30.207031 -29.550781 31.65625 -30.71875 C 33.113281 -31.894531 34.414062 -32.941406 35.5625 -33.859375 C 36.71875 -34.785156 37.597656 -35.5625 38.203125 -36.1875 C 38.816406 -36.820312 39.066406 -37.132812 38.953125 -37.125 C 37.003906 -37.363281 32.3125 -36.570312 24.875 -34.75 C 17.4375 -32.925781 13.15625 -31.957031 12.03125 -31.84375 C 7.445312 -31.351562 4.007812 -31.972656 1.71875 -33.703125 C -0.5625 -35.441406 -1.285156 -38.285156 -0.453125 -42.234375 C 0.171875 -45.804688 2.109375 -49.347656 5.359375 -52.859375 C 5.648438 -53.335938 8.925781 -56.007812 15.1875 -60.875 C 21.457031 -65.738281 26.488281 -69.503906 30.28125 -72.171875 C 32.476562 -73.753906 34.300781 -74.90625 35.75 -75.625 C 37.207031 -76.351562 38.78125 -76.753906 40.46875 -76.828125 C 42.15625 -76.898438 43.847656 -76.398438 45.546875 -75.328125 C 48.328125 -73.703125 49.53125 -72.019531 49.15625 -70.28125 C 48.78125 -68.539062 46.847656 -67.035156 43.359375 -65.765625 C 31.316406 -60.960938 20.679688 -53.539062 11.453125 -43.5 Z M 11.453125 -43.5 "/></g></g></g><g fill="#f4f1de" fill-opacity="1"><g transform="translate(16.876761, 154.984019)"><g><path d="M 11.484375 -44.394531 C 15.53125 -44.269531 18.738281 -44.332031 21.101562 -44.585938 C 23.484375 -44.839844 27.027344 -45.390625 31.726562 -46.234375 C 36.464844 -47.082031 39.964844 -47.628906 42.222656 -47.871094 C 47.347656 -48.421875 51.175781 -47.921875 53.710938 -46.371094 C 56.464844 -44.6875 57.195312 -41.640625 55.910156 -37.230469 L 55.90625 -37.210938 L 55.898438 -37.1875 C 55.164062 -35.066406 53.785156 -32.949219 51.761719 -30.835938 C 49.777344 -28.765625 47.769531 -27.09375 45.746094 -25.828125 C 43.777344 -24.59375 41.210938 -23.066406 38.058594 -21.253906 C 34.933594 -19.457031 32.699219 -18.09375 31.347656 -17.167969 C 29.007812 -15.605469 26.882812 -14.691406 24.960938 -14.425781 C 23.035156 -14.15625 20.765625 -14.480469 18.160156 -15.394531 L 17.445312 -15.644531 L 17.574219 -16.394531 C 17.734375 -17.328125 18.269531 -18.457031 19.171875 -19.785156 C 20.035156 -21.054688 21.125 -22.34375 22.445312 -23.652344 C 23.734375 -24.933594 25.132812 -26.25 26.636719 -27.609375 C 28.148438 -28.96875 29.636719 -30.242188 31.109375 -31.425781 L 35.015625 -34.5625 C 36.132812 -35.457031 36.984375 -36.203125 37.570312 -36.808594 C 37.855469 -37.105469 38.054688 -37.320312 38.160156 -37.453125 L 38.164062 -37.4375 C 38.078125 -37.246094 38.066406 -37.046875 38.132812 -36.835938 C 38.277344 -36.375 38.585938 -36.171875 39.058594 -36.222656 L 38.957031 -36.210938 L 38.851562 -36.222656 C 37.011719 -36.453125 32.421875 -35.671875 25.085938 -33.882812 C 17.601562 -32.054688 13.28125 -31.078125 12.125 -30.953125 C 7.300781 -30.4375 3.65625 -31.117188 1.1875 -32.996094 C -1.394531 -34.960938 -2.234375 -38.097656 -1.335938 -42.402344 L -0.457031 -42.21875 L -1.339844 -42.375 C -0.675781 -46.125 1.339844 -49.820312 4.703125 -53.464844 L 5.359375 -52.859375 L 4.589844 -53.316406 C 4.933594 -53.898438 8.289062 -56.652344 14.644531 -61.582031 C 20.925781 -66.449219 25.964844 -70.222656 29.761719 -72.902344 C 32 -74.519531 33.867188 -75.703125 35.363281 -76.445312 C 36.925781 -77.222656 38.617188 -77.648438 40.4375 -77.722656 C 42.3125 -77.800781 44.175781 -77.257812 46.03125 -76.097656 L 45.554688 -75.335938 L 46.007812 -76.109375 C 49.160156 -74.265625 50.5 -72.261719 50.027344 -70.097656 C 49.578125 -68.039062 47.457031 -66.3125 43.667969 -64.921875 L 43.359375 -65.761719 L 43.691406 -64.929688 C 31.769531 -60.179688 21.246094 -52.832031 12.117188 -42.890625 L 11.457031 -43.496094 Z M 11.429688 -42.601562 L 9.472656 -42.664062 L 10.796875 -44.105469 C 20.109375 -54.246094 30.851562 -61.746094 43.027344 -66.597656 L 43.035156 -66.601562 L 43.046875 -66.605469 C 46.222656 -67.773438 47.96875 -69.0625 48.277344 -70.480469 C 48.5625 -71.796875 47.503906 -73.15625 45.101562 -74.5625 L 45.089844 -74.570312 L 45.078125 -74.574219 C 43.539062 -75.539062 42.015625 -75.992188 40.507812 -75.929688 C 38.945312 -75.867188 37.496094 -75.503906 36.160156 -74.839844 C 34.753906 -74.140625 32.964844 -73.003906 30.796875 -71.433594 C 27.019531 -68.773438 22 -65.015625 15.742188 -60.164062 C 9.566406 -55.375 6.359375 -52.785156 6.132812 -52.398438 L 6.082031 -52.320312 L 6.019531 -52.25 C 2.894531 -48.863281 1.03125 -45.464844 0.425781 -42.0625 L 0.421875 -42.046875 L 0.421875 -42.035156 C -0.324219 -38.46875 0.292969 -35.933594 2.273438 -34.425781 C 4.363281 -32.832031 7.582031 -32.269531 11.933594 -32.738281 C 13.011719 -32.855469 17.253906 -33.816406 24.660156 -35.625 C 32.210938 -37.46875 37.015625 -38.261719 39.074219 -38.003906 L 38.964844 -37.113281 L 38.867188 -38.003906 C 39.367188 -38.058594 39.695312 -37.847656 39.84375 -37.371094 C 39.914062 -37.140625 39.898438 -36.914062 39.792969 -36.683594 C 39.746094 -36.582031 39.667969 -36.460938 39.558594 -36.328125 C 39.417969 -36.152344 39.183594 -35.894531 38.859375 -35.5625 C 38.222656 -34.902344 37.3125 -34.101562 36.140625 -33.164062 L 32.234375 -30.03125 C 30.789062 -28.867188 29.324219 -27.613281 27.839844 -26.277344 C 26.355469 -24.9375 24.976562 -23.640625 23.707031 -22.378906 C 22.472656 -21.152344 21.453125 -19.949219 20.65625 -18.777344 C 19.894531 -17.664062 19.457031 -16.765625 19.339844 -16.085938 L 18.457031 -16.238281 L 18.753906 -17.085938 C 21.085938 -16.265625 23.074219 -15.972656 24.714844 -16.199219 C 26.363281 -16.429688 28.234375 -17.246094 30.332031 -18.648438 C 31.722656 -19.601562 34 -20.988281 37.164062 -22.808594 C 40.300781 -24.609375 42.84375 -26.125 44.792969 -27.347656 C 46.691406 -28.535156 48.582031 -30.113281 50.464844 -32.078125 C 52.308594 -34 53.554688 -35.902344 54.203125 -37.773438 L 55.050781 -37.480469 L 54.1875 -37.734375 C 55.21875 -41.265625 54.75 -43.636719 52.777344 -44.839844 C 50.589844 -46.179688 47.132812 -46.59375 42.414062 -46.089844 C 40.195312 -45.851562 36.738281 -45.308594 32.042969 -44.46875 C 27.300781 -43.617188 23.71875 -43.0625 21.292969 -42.800781 C 18.847656 -42.539062 15.558594 -42.472656 11.429688 -42.601562 Z M 11.429688 -42.601562 "/></g></g></g></g></g><g transform="matrix(1, 0, 0, 1, 310, 240)"><g clip-path="url(#5a762dff12)"><g fill="#f4f1de" fill-opacity="1"><g transform="translate(16.854782, 155.65154)"><g><path d="M 11.453125 -43.5 C 15.546875 -43.375 18.796875 -43.441406 21.203125 -43.703125 C 23.609375 -43.960938 27.171875 -44.515625 31.890625 -45.359375 C 36.609375 -46.210938 40.085938 -46.757812 42.328125 -47 C 47.242188 -47.519531 50.878906 -47.050781 53.234375 -45.59375 C 55.597656 -44.144531 56.203125 -41.441406 55.046875 -37.484375 C 54.359375 -35.492188 53.046875 -33.488281 51.109375 -31.46875 C 49.171875 -29.445312 47.222656 -27.816406 45.265625 -26.578125 C 43.316406 -25.347656 40.765625 -23.828125 37.609375 -22.015625 C 34.460938 -20.210938 32.207031 -18.84375 30.84375 -17.90625 C 28.625 -16.414062 26.617188 -15.546875 24.828125 -15.296875 C 23.046875 -15.046875 20.921875 -15.359375 18.453125 -16.234375 C 18.597656 -17.035156 19.082031 -18.046875 19.90625 -19.265625 C 20.738281 -20.492188 21.796875 -21.742188 23.078125 -23.015625 C 24.359375 -24.285156 25.742188 -25.59375 27.234375 -26.9375 C 28.734375 -28.289062 30.207031 -29.550781 31.65625 -30.71875 C 33.113281 -31.894531 34.414062 -32.941406 35.5625 -33.859375 C 36.71875 -34.785156 37.597656 -35.5625 38.203125 -36.1875 C 38.816406 -36.820312 39.066406 -37.132812 38.953125 -37.125 C 37.003906 -37.363281 32.3125 -36.570312 24.875 -34.75 C 17.4375 -32.925781 13.15625 -31.957031 12.03125 -31.84375 C 7.445312 -31.351562 4.007812 -31.972656 1.71875 -33.703125 C -0.5625 -35.441406 -1.285156 -38.285156 -0.453125 -42.234375 C 0.171875 -45.804688 2.109375 -49.347656 5.359375 -52.859375 C 5.648438 -53.335938 8.925781 -56.007812 15.1875 -60.875 C 21.457031 -65.738281 26.488281 -69.503906 30.28125 -72.171875 C 32.476562 -73.753906 34.300781 -74.90625 35.75 -75.625 C 37.207031 -76.351562 38.78125 -76.753906 40.46875 -76.828125 C 42.15625 -76.898438 43.847656 -76.398438 45.546875 -75.328125 C 48.328125 -73.703125 49.53125 -72.019531 49.15625 -70.28125 C 48.78125 -68.539062 46.847656 -67.035156 43.359375 -65.765625 C 31.316406 -60.960938 20.679688 -53.539062 11.453125 -43.5 Z M 11.453125 -43.5 "/></g></g></g><g fill="#f4f1de" fill-opacity="1"><g transform="translate(16.854782, 155.65154)"><g><path d="M 11.484375 -44.394531 C 15.53125 -44.269531 18.738281 -44.332031 21.101562 -44.585938 C 23.484375 -44.839844 27.027344 -45.390625 31.726562 -46.234375 C 36.464844 -47.082031 39.964844 -47.628906 42.222656 -47.871094 C 47.347656 -48.421875 51.175781 -47.921875 53.710938 -46.371094 C 56.464844 -44.6875 57.195312 -41.640625 55.910156 -37.230469 L 55.90625 -37.210938 L 55.898438 -37.1875 C 55.164062 -35.066406 53.785156 -32.949219 51.761719 -30.835938 C 49.777344 -28.765625 47.769531 -27.09375 45.746094 -25.828125 C 43.777344 -24.59375 41.210938 -23.066406 38.058594 -21.253906 C 34.933594 -19.457031 32.699219 -18.09375 31.347656 -17.167969 C 29.007812 -15.605469 26.882812 -14.691406 24.960938 -14.425781 C 23.035156 -14.15625 20.765625 -14.480469 18.160156 -15.394531 L 17.445312 -15.644531 L 17.574219 -16.394531 C 17.734375 -17.328125 18.269531 -18.457031 19.171875 -19.785156 C 20.035156 -21.054688 21.125 -22.34375 22.445312 -23.652344 C 23.734375 -24.933594 25.132812 -26.25 26.636719 -27.609375 C 28.148438 -28.96875 29.636719 -30.242188 31.109375 -31.425781 L 35.015625 -34.5625 C 36.132812 -35.457031 36.984375 -36.203125 37.570312 -36.808594 C 37.855469 -37.105469 38.054688 -37.320312 38.160156 -37.453125 L 38.164062 -37.4375 C 38.078125 -37.246094 38.066406 -37.046875 38.132812 -36.835938 C 38.277344 -36.375 38.585938 -36.171875 39.058594 -36.222656 L 38.957031 -36.210938 L 38.851562 -36.222656 C 37.011719 -36.453125 32.421875 -35.671875 25.085938 -33.882812 C 17.601562 -32.054688 13.28125 -31.078125 12.125 -30.953125 C 7.300781 -30.4375 3.65625 -31.117188 1.1875 -32.996094 C -1.394531 -34.960938 -2.234375 -38.097656 -1.335938 -42.402344 L -0.457031 -42.21875 L -1.339844 -42.375 C -0.675781 -46.125 1.339844 -49.820312 4.703125 -53.464844 L 5.359375 -52.859375 L 4.589844 -53.316406 C 4.933594 -53.898438 8.289062 -56.652344 14.644531 -61.582031 C 20.925781 -66.449219 25.964844 -70.222656 29.761719 -72.902344 C 32 -74.519531 33.867188 -75.703125 35.363281 -76.445312 C 36.925781 -77.222656 38.617188 -77.648438 40.4375 -77.722656 C 42.3125 -77.800781 44.175781 -77.257812 46.03125 -76.097656 L 45.554688 -75.335938 L 46.007812 -76.109375 C 49.160156 -74.265625 50.5 -72.261719 50.027344 -70.097656 C 49.578125 -68.039062 47.457031 -66.3125 43.667969 -64.921875 L 43.359375 -65.761719 L 43.691406 -64.929688 C 31.769531 -60.179688 21.246094 -52.832031 12.117188 -42.890625 L 11.457031 -43.496094 Z M 11.429688 -42.601562 L 9.472656 -42.664062 L 10.796875 -44.105469 C 20.109375 -54.246094 30.851562 -61.746094 43.027344 -66.597656 L 43.035156 -66.601562 L 43.046875 -66.605469 C 46.222656 -67.773438 47.96875 -69.0625 48.277344 -70.480469 C 48.5625 -71.796875 47.503906 -73.15625 45.101562 -74.5625 L 45.089844 -74.570312 L 45.078125 -74.574219 C 43.539062 -75.539062 42.015625 -75.992188 40.507812 -75.929688 C 38.945312 -75.867188 37.496094 -75.503906 36.160156 -74.839844 C 34.753906 -74.140625 32.964844 -73.003906 30.796875 -71.433594 C 27.019531 -68.773438 22 -65.015625 15.742188 -60.164062 C 9.566406 -55.375 6.359375 -52.785156 6.132812 -52.398438 L 6.082031 -52.320312 L 6.019531 -52.25 C 2.894531 -48.863281 1.03125 -45.464844 0.425781 -42.0625 L 0.421875 -42.046875 L 0.421875 -42.035156 C -0.324219 -38.46875 0.292969 -35.933594 2.273438 -34.425781 C 4.363281 -32.832031 7.582031 -32.269531 11.933594 -32.738281 C 13.011719 -32.855469 17.253906 -33.816406 24.660156 -35.625 C 32.210938 -37.46875 37.015625 -38.261719 39.074219 -38.003906 L 38.964844 -37.113281 L 38.867188 -38.003906 C 39.367188 -38.058594 39.695312 -37.847656 39.84375 -37.371094 C 39.914062 -37.140625 39.898438 -36.914062 39.792969 -36.683594 C 39.746094 -36.582031 39.667969 -36.460938 39.558594 -36.328125 C 39.417969 -36.152344 39.183594 -35.894531 38.859375 -35.5625 C 38.222656 -34.902344 37.3125 -34.101562 36.140625 -33.164062 L 32.234375 -30.03125 C 30.789062 -28.867188 29.324219 -27.613281 27.839844 -26.277344 C 26.355469 -24.9375 24.976562 -23.640625 23.707031 -22.378906 C 22.472656 -21.152344 21.453125 -19.949219 20.65625 -18.777344 C 19.894531 -17.664062 19.457031 -16.765625 19.339844 -16.085938 L 18.457031 -16.238281 L 18.753906 -17.085938 C 21.085938 -16.265625 23.074219 -15.972656 24.714844 -16.199219 C 26.363281 -16.429688 28.234375 -17.246094 30.332031 -18.648438 C 31.722656 -19.601562 34 -20.988281 37.164062 -22.808594 C 40.300781 -24.609375 42.84375 -26.125 44.792969 -27.347656 C 46.691406 -28.535156 48.582031 -30.113281 50.464844 -32.078125 C 52.308594 -34 53.554688 -35.902344 54.203125 -37.773438 L 55.050781 -37.480469 L 54.1875 -37.734375 C 55.21875 -41.265625 54.75 -43.636719 52.777344 -44.839844 C 50.589844 -46.179688 47.132812 -46.59375 42.414062 -46.089844 C 40.195312 -45.851562 36.738281 -45.308594 32.042969 -44.46875 C 27.300781 -43.617188 23.71875 -43.0625 21.292969 -42.800781 C 18.847656 -42.539062 15.558594 -42.472656 11.429688 -42.601562 Z M 11.429688 -42.601562 "/></g></g></g></g></g><g transform="matrix(1, 0, 0, 1, 273, 274)"><g clip-path="url(#865a845969)"><g fill="#f4f1de" fill-opacity="1"><g transform="translate(11.112134, 103.13583)"><g><path d="M 44.75 -46.375 C 44.65625 -45.84375 44.347656 -45.398438 43.828125 -45.046875 C 43.316406 -44.691406 42.847656 -44.378906 42.421875 -44.109375 C 42.515625 -43.972656 42.625 -43.835938 42.75 -43.703125 C 42.875 -43.566406 42.945312 -43.421875 42.96875 -43.265625 C 43.039062 -42.523438 42.644531 -41.867188 41.78125 -41.296875 C 40.914062 -40.722656 39.984375 -40.195312 38.984375 -39.71875 C 37.984375 -39.238281 37.25 -38.820312 36.78125 -38.46875 C 35.832031 -36.800781 34.285156 -35.535156 32.140625 -34.671875 C 29.992188 -33.816406 27.960938 -32.945312 26.046875 -32.0625 C 25.347656 -31.707031 24.644531 -31.320312 23.9375 -30.90625 C 23.238281 -30.5 22.546875 -30.066406 21.859375 -29.609375 C 21.265625 -27.460938 20.445312 -25.175781 19.40625 -22.75 C 18.363281 -20.332031 17.59375 -17.984375 17.09375 -15.703125 C 16.84375 -14.484375 16.375 -12.882812 15.6875 -10.90625 C 15.007812 -8.925781 14.394531 -7.015625 13.84375 -5.171875 C 13.300781 -3.328125 13.085938 -1.882812 13.203125 -0.84375 C 13.265625 -0.269531 13.332031 0.367188 13.40625 1.078125 C 13.476562 1.785156 13.363281 2.40625 13.0625 2.9375 C 13.050781 2.863281 13.078125 2.789062 13.140625 2.71875 C 12.867188 3.050781 12.625 3.734375 12.40625 4.765625 C 12.1875 5.796875 11.953125 6.898438 11.703125 8.078125 C 11.453125 9.253906 11.148438 10.269531 10.796875 11.125 C 10.453125 11.976562 9.984375 12.4375 9.390625 12.5 C 8.066406 12.644531 7.15625 12.296875 6.65625 11.453125 C 6.15625 10.617188 5.84375 9.628906 5.71875 8.484375 C 5.59375 7.335938 5.484375 6.328125 5.390625 5.453125 C 5.335938 4.929688 5.335938 4.410156 5.390625 3.890625 C 5.441406 3.367188 5.4375 2.8125 5.375 2.21875 C 5.332031 1.84375 5.207031 1.535156 5 1.296875 C 4.789062 1.054688 4.660156 0.6875 4.609375 0.1875 C 4.546875 -0.332031 4.5625 -0.835938 4.65625 -1.328125 C 4.75 -1.828125 4.773438 -2.296875 4.734375 -2.734375 C 4.703125 -3.035156 4.632812 -3.3125 4.53125 -3.5625 C 4.4375 -3.8125 4.378906 -4.015625 4.359375 -4.171875 C 4.046875 -7.109375 4.140625 -10.019531 4.640625 -12.90625 C 5.148438 -15.789062 5.796875 -18.59375 6.578125 -21.3125 C 7.367188 -24.039062 8.015625 -26.628906 8.515625 -29.078125 C 8.328125 -29.347656 8.109375 -29.582031 7.859375 -29.78125 C 7.691406 -29.988281 7.21875 -30.421875 6.4375 -31.078125 C 5.664062 -31.742188 4.804688 -32.472656 3.859375 -33.265625 C 2.921875 -34.066406 2.09375 -34.835938 1.375 -35.578125 C 0.65625 -36.316406 0.28125 -36.832031 0.25 -37.125 C 0.09375 -38.601562 0.445312 -39.628906 1.3125 -40.203125 C 2.1875 -40.785156 3.101562 -41.128906 4.0625 -41.234375 C 5.019531 -41.335938 5.503906 -41.347656 5.515625 -41.265625 C 6.390625 -41.441406 7.257812 -41.5 8.125 -41.4375 C 8.988281 -41.375 9.894531 -41.394531 10.84375 -41.5 C 11.507812 -41.570312 12.101562 -42.269531 12.625 -43.59375 C 13.15625 -44.914062 13.617188 -46.53125 14.015625 -48.4375 C 14.410156 -50.34375 14.804688 -52.226562 15.203125 -54.09375 C 15.597656 -55.96875 16.03125 -57.523438 16.5 -58.765625 C 17.039062 -59.867188 17.351562 -61.242188 17.4375 -62.890625 C 17.519531 -64.535156 17.71875 -66.007812 18.03125 -67.3125 C 18.34375 -68.613281 19.085938 -69.328125 20.265625 -69.453125 C 20.773438 -69.503906 21.285156 -69.390625 21.796875 -69.109375 C 22.316406 -68.828125 22.757812 -68.707031 23.125 -68.75 C 23.425781 -68.78125 23.703125 -68.847656 23.953125 -68.953125 C 24.203125 -69.054688 24.4375 -69.117188 24.65625 -69.140625 C 25.46875 -69.222656 26.421875 -69.15625 27.515625 -68.9375 C 28.617188 -68.71875 29.613281 -68.320312 30.5 -67.75 C 31.382812 -67.175781 31.875 -66.445312 31.96875 -65.5625 C 31.976562 -65.488281 31.84375 -64.988281 31.5625 -64.0625 C 31.289062 -63.132812 30.972656 -62.09375 30.609375 -60.9375 C 30.253906 -59.789062 29.90625 -58.75 29.5625 -57.8125 C 28.832031 -55.570312 28.210938 -53.328125 27.703125 -51.078125 C 27.203125 -48.835938 26.628906 -46.597656 25.984375 -44.359375 C 26.429688 -44.328125 26.875 -44.332031 27.3125 -44.375 C 27.757812 -44.425781 28.203125 -44.476562 28.640625 -44.53125 C 31.285156 -44.8125 33.835938 -45.476562 36.296875 -46.53125 C 38.765625 -47.582031 40.882812 -48.203125 42.65625 -48.390625 C 43.007812 -48.429688 43.378906 -48.191406 43.765625 -47.671875 C 44.160156 -47.148438 44.488281 -46.71875 44.75 -46.375 Z M 44.75 -46.375 "/></g></g></g><g fill="#f4f1de" fill-opacity="1"><g transform="translate(11.112134, 103.13583)"><g><path d="M 45.601562 -46.222656 C 45.46875 -45.449219 45.039062 -44.816406 44.316406 -44.324219 C 43.789062 -43.964844 43.3125 -43.652344 42.890625 -43.378906 L 42.421875 -44.109375 L 43.152344 -44.578125 C 43.210938 -44.480469 43.289062 -44.386719 43.378906 -44.289062 C 43.636719 -44.011719 43.785156 -43.703125 43.820312 -43.367188 C 43.9375 -42.28125 43.414062 -41.351562 42.253906 -40.578125 C 41.351562 -39.980469 40.386719 -39.429688 39.359375 -38.933594 C 38.414062 -38.480469 37.71875 -38.089844 37.277344 -37.769531 L 36.765625 -38.472656 L 37.523438 -38.046875 C 36.484375 -36.207031 34.800781 -34.816406 32.46875 -33.875 C 30.339844 -33.019531 28.324219 -32.152344 26.417969 -31.28125 L 26.058594 -32.074219 L 26.464844 -31.304688 C 25.769531 -30.9375 25.078125 -30.550781 24.386719 -30.148438 C 23.695312 -29.742188 23.007812 -29.320312 22.320312 -28.878906 L 21.851562 -29.609375 L 22.6875 -29.378906 C 22.089844 -27.191406 21.261719 -24.871094 20.199219 -22.410156 C 19.179688 -20.039062 18.425781 -17.738281 17.9375 -15.503906 C 17.6875 -14.257812 17.21875 -12.628906 16.523438 -10.621094 C 15.84375 -8.660156 15.234375 -6.761719 14.691406 -4.929688 C 14.175781 -3.191406 13.96875 -1.867188 14.066406 -0.953125 L 14.277344 0.980469 C 14.371094 1.867188 14.214844 2.667969 13.8125 3.382812 L 12.480469 5.742188 L 12.191406 3.050781 C 12.160156 2.738281 12.25 2.445312 12.464844 2.179688 L 13.816406 3.269531 C 13.640625 3.488281 13.453125 4.046875 13.257812 4.941406 C 13.035156 5.96875 12.800781 7.074219 12.554688 8.25 C 12.296875 9.484375 11.980469 10.554688 11.605469 11.464844 C 11.121094 12.640625 10.410156 13.277344 9.480469 13.375 C 7.785156 13.558594 6.59375 13.070312 5.902344 11.910156 C 5.339844 10.960938 4.988281 9.851562 4.851562 8.585938 L 4.527344 5.546875 C 4.464844 4.972656 4.464844 4.390625 4.527344 3.800781 C 4.574219 3.335938 4.570312 2.835938 4.515625 2.308594 C 4.496094 2.125 4.441406 1.984375 4.351562 1.882812 C 4.015625 1.507812 3.8125 0.96875 3.738281 0.269531 C 3.671875 -0.332031 3.695312 -0.921875 3.808594 -1.503906 C 3.886719 -1.914062 3.910156 -2.292969 3.871094 -2.648438 C 3.847656 -2.863281 3.800781 -3.058594 3.730469 -3.234375 C 3.597656 -3.558594 3.519531 -3.835938 3.496094 -4.0625 C 3.171875 -7.089844 3.269531 -10.085938 3.792969 -13.054688 C 4.308594 -15.96875 4.964844 -18.804688 5.761719 -21.566406 C 6.542969 -24.269531 7.171875 -26.828125 7.648438 -29.238281 L 8.5 -29.070312 L 7.769531 -28.601562 C 7.640625 -28.800781 7.492188 -28.972656 7.320312 -29.109375 L 7.253906 -29.164062 L 7.199219 -29.230469 C 7.058594 -29.394531 6.621094 -29.792969 5.878906 -30.421875 L 3.300781 -32.601562 C 2.335938 -33.414062 1.484375 -34.203125 0.753906 -34.96875 C -0.0976562 -35.855469 -0.550781 -36.542969 -0.601562 -37.03125 C -0.796875 -38.855469 -0.3125 -40.152344 0.847656 -40.925781 C 1.835938 -41.582031 2.878906 -41.96875 3.976562 -42.085938 C 4.476562 -42.136719 4.859375 -42.167969 5.121094 -42.175781 C 5.898438 -42.199219 6.316406 -41.925781 6.378906 -41.359375 L 5.515625 -41.265625 L 5.351562 -42.117188 C 6.300781 -42.300781 7.242188 -42.359375 8.179688 -42.300781 C 8.992188 -42.246094 9.855469 -42.269531 10.761719 -42.367188 C 11.078125 -42.398438 11.433594 -42.917969 11.835938 -43.917969 C 12.34375 -45.191406 12.789062 -46.757812 13.171875 -48.609375 L 14.351562 -54.269531 C 14.757812 -56.183594 15.199219 -57.777344 15.675781 -59.058594 L 15.691406 -59.105469 L 15.710938 -59.144531 C 16.210938 -60.140625 16.5 -61.398438 16.574219 -62.925781 C 16.664062 -64.625 16.867188 -66.152344 17.183594 -67.503906 C 17.585938 -69.199219 18.582031 -70.136719 20.164062 -70.304688 C 20.859375 -70.378906 21.546875 -70.234375 22.21875 -69.867188 C 22.574219 -69.671875 22.847656 -69.585938 23.035156 -69.605469 C 23.25 -69.628906 23.441406 -69.675781 23.617188 -69.746094 C 23.941406 -69.878906 24.253906 -69.960938 24.558594 -69.992188 C 25.453125 -70.089844 26.496094 -70.023438 27.6875 -69.789062 C 28.902344 -69.550781 29.996094 -69.113281 30.972656 -68.472656 C 32.082031 -67.746094 32.699219 -66.808594 32.824219 -65.652344 C 32.84375 -65.460938 32.703125 -64.851562 32.394531 -63.816406 C 32.121094 -62.890625 31.800781 -61.84375 31.441406 -60.683594 C 31.078125 -59.515625 30.71875 -58.457031 30.367188 -57.507812 L 29.550781 -57.8125 L 30.378906 -57.542969 C 29.65625 -55.332031 29.050781 -53.113281 28.550781 -50.886719 C 28.042969 -48.617188 27.460938 -46.359375 26.800781 -44.109375 L 25.96875 -44.355469 L 26.019531 -45.222656 C 26.421875 -45.199219 26.820312 -45.207031 27.210938 -45.25 L 28.539062 -45.390625 C 31.105469 -45.667969 33.574219 -46.3125 35.953125 -47.324219 C 38.492188 -48.402344 40.6875 -49.042969 42.539062 -49.242188 C 43.234375 -49.316406 43.875 -48.964844 44.464844 -48.183594 L 45.667969 -46.59375 Z M 43.890625 -46.519531 L 44.746094 -46.371094 L 44.054688 -45.847656 L 43.078125 -47.136719 C 42.945312 -47.3125 42.832031 -47.429688 42.730469 -47.492188 L 42.726562 -47.515625 C 41.042969 -47.335938 39.011719 -46.738281 36.632812 -45.726562 C 34.097656 -44.644531 31.460938 -43.960938 28.722656 -43.664062 L 27.398438 -43.523438 C 26.910156 -43.46875 26.414062 -43.457031 25.917969 -43.488281 L 24.828125 -43.550781 L 25.136719 -44.597656 C 25.785156 -46.8125 26.359375 -49.035156 26.859375 -51.265625 C 27.367188 -53.546875 27.988281 -55.816406 28.726562 -58.082031 L 28.730469 -58.097656 L 28.738281 -58.117188 C 29.078125 -59.03125 29.429688 -60.0625 29.785156 -61.203125 C 30.144531 -62.355469 30.457031 -63.390625 30.730469 -64.308594 C 30.863281 -64.761719 30.964844 -65.109375 31.027344 -65.351562 C 31.058594 -65.464844 31.078125 -65.550781 31.09375 -65.609375 C 31.097656 -65.625 31.097656 -65.636719 31.097656 -65.640625 C 31.089844 -65.589844 31.089844 -65.53125 31.097656 -65.464844 C 31.03125 -66.078125 30.671875 -66.59375 30.023438 -67.019531 C 29.234375 -67.535156 28.34375 -67.890625 27.351562 -68.085938 C 26.335938 -68.285156 25.464844 -68.34375 24.742188 -68.269531 C 24.601562 -68.253906 24.445312 -68.210938 24.269531 -68.140625 C 23.945312 -68.007812 23.59375 -67.921875 23.21875 -67.882812 C 22.671875 -67.820312 22.0625 -67.976562 21.386719 -68.34375 C 21.03125 -68.535156 20.6875 -68.613281 20.351562 -68.578125 C 19.578125 -68.496094 19.085938 -68.003906 18.875 -67.101562 C 18.578125 -65.855469 18.390625 -64.433594 18.308594 -62.839844 C 18.21875 -61.070312 17.871094 -59.578125 17.265625 -58.367188 L 16.488281 -58.757812 L 17.300781 -58.453125 C 16.855469 -57.253906 16.4375 -55.738281 16.050781 -53.917969 L 14.871094 -48.261719 C 14.46875 -46.304688 13.996094 -44.644531 13.445312 -43.273438 C 12.789062 -41.625 11.957031 -40.75 10.945312 -40.640625 C 9.941406 -40.53125 8.980469 -40.507812 8.066406 -40.566406 C 7.277344 -40.617188 6.484375 -40.566406 5.679688 -40.414062 L 4.753906 -40.234375 L 4.652344 -41.171875 C 4.6875 -40.839844 4.859375 -40.609375 5.164062 -40.484375 C 5.21875 -40.460938 5.269531 -40.449219 5.316406 -40.441406 C 5.300781 -40.445312 5.25 -40.445312 5.175781 -40.441406 C 4.953125 -40.433594 4.617188 -40.40625 4.160156 -40.359375 C 3.34375 -40.269531 2.558594 -39.976562 1.808594 -39.476562 C 1.230469 -39.09375 1.003906 -38.34375 1.125 -37.21875 C 1.121094 -37.242188 1.117188 -37.265625 1.113281 -37.277344 C 1.113281 -37.273438 1.121094 -37.261719 1.125 -37.25 C 1.15625 -37.1875 1.203125 -37.113281 1.269531 -37.023438 C 1.433594 -36.796875 1.675781 -36.511719 2.003906 -36.171875 C 2.695312 -35.449219 3.5 -34.703125 4.421875 -33.929688 L 7.003906 -31.746094 C 7.820312 -31.050781 8.328125 -30.585938 8.53125 -30.339844 L 7.867188 -29.785156 L 8.410156 -30.460938 C 8.726562 -30.203125 9 -29.898438 9.230469 -29.539062 L 9.421875 -29.246094 L 9.351562 -28.902344 C 8.863281 -26.441406 8.222656 -23.835938 7.429688 -21.082031 C 6.648438 -18.382812 6.007812 -15.605469 5.503906 -12.75 C 5.007812 -9.945312 4.914062 -7.113281 5.222656 -4.246094 C 5.230469 -4.179688 5.269531 -4.058594 5.339844 -3.886719 C 5.46875 -3.5625 5.558594 -3.210938 5.597656 -2.835938 C 5.652344 -2.308594 5.625 -1.753906 5.511719 -1.171875 C 5.433594 -0.765625 5.417969 -0.34375 5.464844 0.0859375 C 5.5 0.414062 5.5625 0.628906 5.648438 0.730469 C 5.984375 1.105469 6.183594 1.570312 6.242188 2.125 C 6.3125 2.773438 6.316406 3.394531 6.253906 3.980469 C 6.203125 4.449219 6.203125 4.910156 6.253906 5.363281 L 6.578125 8.402344 C 6.6875 9.417969 6.960938 10.289062 7.394531 11.023438 C 7.707031 11.542969 8.339844 11.753906 9.296875 11.648438 C 9.542969 11.625 9.777344 11.339844 10.003906 10.800781 C 10.335938 9.992188 10.621094 9.023438 10.855469 7.898438 C 11.101562 6.714844 11.335938 5.605469 11.5625 4.574219 C 11.816406 3.410156 12.117188 2.613281 12.464844 2.179688 L 13.140625 2.722656 L 13.816406 3.269531 C 13.902344 3.164062 13.9375 3.027344 13.917969 2.863281 L 13.054688 2.957031 L 12.300781 2.53125 C 12.519531 2.136719 12.605469 1.683594 12.550781 1.167969 L 12.34375 -0.765625 C 12.21875 -1.910156 12.445312 -3.464844 13.027344 -5.421875 C 13.578125 -7.28125 14.195312 -9.203125 14.882812 -11.1875 C 15.550781 -13.121094 16.003906 -14.683594 16.242188 -15.875 C 16.75 -18.21875 17.539062 -20.625 18.605469 -23.097656 C 19.632812 -25.480469 20.4375 -27.730469 21.015625 -29.839844 L 21.101562 -30.160156 L 21.382812 -30.339844 C 22.089844 -30.792969 22.796875 -31.230469 23.511719 -31.644531 C 24.222656 -32.0625 24.933594 -32.460938 25.652344 -32.839844 L 25.671875 -32.851562 L 25.695312 -32.863281 C 27.625 -33.742188 29.667969 -34.617188 31.820312 -35.488281 C 33.777344 -36.273438 35.171875 -37.410156 36.011719 -38.898438 L 36.105469 -39.066406 L 36.257812 -39.175781 C 36.785156 -39.558594 37.566406 -39.996094 38.601562 -40.5 C 39.558594 -40.960938 40.457031 -41.46875 41.292969 -42.023438 C 41.867188 -42.40625 42.136719 -42.792969 42.09375 -43.179688 C 42.097656 -43.148438 42.105469 -43.121094 42.117188 -43.097656 L 42.109375 -43.105469 C 41.945312 -43.277344 41.808594 -43.457031 41.691406 -43.640625 L 41.222656 -44.371094 L 41.953125 -44.839844 C 42.363281 -45.105469 42.828125 -45.410156 43.339844 -45.761719 C 43.660156 -45.976562 43.84375 -46.230469 43.890625 -46.519531 Z M 43.890625 -46.519531 "/></g></g></g></g></g></svg>